<svg width="24" height="24" viewBox="0 0 24 24" fill="none" xmlns="http://www.w3.org/2000/svg">
<rect width="24" height="24" rx="12" fill="#3B7EE6"/>
<path d="M8.7292 15.6493C8.6698 15.6493 8.55949 15.6281 8.39828 15.5857C8.24555 15.5433 8.08433 15.4923 7.91463 15.4329C7.75341 15.3651 7.62613 15.2929 7.5328 15.2166C7.24431 14.9705 7.03642 14.699 6.90914 14.402C6.78187 14.0965 6.7055 13.7868 6.68005 13.4729C6.66308 13.1589 6.6758 12.862 6.71823 12.582C6.81157 12.0389 7.00672 11.5001 7.3037 10.9655C7.60068 10.4225 7.95705 9.97279 8.37282 9.61642C8.59343 9.42126 8.81405 9.25581 9.03466 9.12004C9.25527 8.98428 9.49285 8.8867 9.74741 8.82731C9.84074 8.80185 9.97226 8.78913 10.142 8.78913C10.3201 8.78064 10.4389 8.7764 10.4983 8.7764C10.668 8.7764 10.8547 8.81458 11.0584 8.89095C11.2705 8.95883 11.4529 9.04368 11.6056 9.1455C11.7584 9.23884 11.8347 9.32793 11.8347 9.41278C11.8347 9.47217 11.8305 9.53157 11.822 9.59097C11.8135 9.65036 11.7753 9.66309 11.7075 9.62915H11.5802L11.7075 10.011C11.7414 10.0789 11.7711 10.1722 11.7966 10.291C11.822 10.4013 11.8347 10.5031 11.8347 10.5964C11.8347 10.6813 11.822 10.8086 11.7966 10.9783C11.7796 11.1395 11.7499 11.3134 11.7075 11.5001C11.6735 11.6868 11.6353 11.8607 11.5929 12.0219C11.559 12.1832 11.525 12.302 11.4911 12.3783C11.4656 12.4292 11.4487 12.4801 11.4402 12.531C11.4402 12.5735 11.4402 12.6117 11.4402 12.6456C11.4062 12.7135 11.3511 12.8323 11.2747 13.002C11.1984 13.1717 11.1432 13.2905 11.1093 13.3583C11.0753 13.3923 11.0456 13.422 11.0202 13.4474C11.0032 13.4729 11.0117 13.5026 11.0456 13.5365C11.0456 13.562 11.0244 13.6214 10.982 13.7147C10.9396 13.7996 10.8929 13.8802 10.842 13.9565C10.7996 14.0329 10.7656 14.0711 10.7402 14.0711C10.7402 14.0711 10.7274 14.0753 10.702 14.0838C10.685 14.0838 10.6765 14.0965 10.6765 14.122C10.6765 14.1559 10.6171 14.245 10.4983 14.3893C10.388 14.5335 10.2565 14.682 10.1038 14.8347C10.0189 14.9196 9.88317 15.0299 9.69649 15.1657C9.50982 15.2929 9.32315 15.4075 9.13648 15.5093C8.95829 15.6026 8.82253 15.6493 8.7292 15.6493ZM8.70374 14.4275C8.79708 14.4275 8.88617 14.4147 8.97102 14.3893C9.05587 14.3553 9.12799 14.3087 9.18739 14.2493C9.34012 14.1475 9.48437 14.0117 9.62013 13.842C9.76438 13.6723 9.88317 13.4771 9.9765 13.2565C10.0698 13.1292 10.142 12.9977 10.1929 12.862C10.2523 12.7177 10.3414 12.4759 10.4602 12.1365C10.528 12.0432 10.5747 11.9286 10.6002 11.7928C10.6256 11.6571 10.6383 11.5425 10.6383 11.4492C10.6383 11.3559 10.6383 11.2286 10.6383 11.0674C10.6468 10.9062 10.668 10.7704 10.702 10.6601C10.702 10.4395 10.6977 10.3122 10.6892 10.2783C10.6808 10.2358 10.6468 10.1807 10.5874 10.1128C10.5535 10.0873 10.5068 10.0619 10.4474 10.0364C10.3965 10.011 10.3414 9.99825 10.282 9.99825C10.2226 9.99825 10.142 10.0152 10.0401 10.0492C9.9468 10.0746 9.8662 10.1086 9.79832 10.151C9.73892 10.1849 9.67104 10.1892 9.59467 10.1637C9.52679 10.1383 9.49285 10.1043 9.49285 10.0619C9.49285 9.9431 9.43346 9.95158 9.31467 10.0873C9.20436 10.2146 9.05587 10.3928 8.8692 10.6219C8.71647 10.7746 8.58495 10.9316 8.47464 11.0928C8.37282 11.2456 8.32191 11.3389 8.32191 11.3728C8.32191 11.4068 8.30918 11.4492 8.28373 11.5001C8.25827 11.551 8.23282 11.6104 8.20736 11.6783C8.16494 11.7377 8.11403 11.8353 8.05463 11.971C7.99524 12.1068 7.93584 12.2426 7.87644 12.3783C7.82553 12.5056 7.79159 12.6032 7.77462 12.6711C7.77462 12.705 7.77462 12.7983 7.77462 12.9511C7.77462 13.0953 7.77462 13.2311 7.77462 13.3583C7.77462 13.5026 7.77887 13.6087 7.78735 13.6765C7.79584 13.7444 7.80856 13.7996 7.82553 13.842C7.85099 13.8844 7.88493 13.9481 7.92735 14.0329C7.96129 14.0923 8.01221 14.1644 8.08009 14.2493C8.15645 14.3256 8.20736 14.3808 8.23282 14.4147C8.32615 14.4996 8.38555 14.5335 8.411 14.5166C8.44494 14.4911 8.54252 14.4614 8.70374 14.4275ZM15.35 15.9166C15.3246 15.9336 15.261 15.9378 15.1591 15.9293C15.0658 15.9208 14.964 15.8954 14.8537 15.853C14.7518 15.819 14.6712 15.7766 14.6118 15.7257C14.5779 15.6917 14.544 15.6536 14.51 15.6111C14.4761 15.5602 14.4591 15.4754 14.4591 15.3566C14.4676 15.2378 14.4973 15.0469 14.5482 14.7838C14.5821 14.6141 14.6246 14.4359 14.6755 14.2493C14.7264 14.0626 14.7731 13.9014 14.8155 13.7656C14.8579 13.6299 14.8791 13.562 14.8791 13.562C14.9216 13.545 14.9809 13.4177 15.0573 13.1802C15.1422 12.9426 15.2355 12.6541 15.3373 12.3147C15.3713 12.1959 15.4307 11.9965 15.5155 11.7165C15.6004 11.4365 15.6852 11.1649 15.7701 10.9019C15.8464 10.6558 15.9185 10.4649 15.9864 10.3292C16.0543 10.1934 16.0883 10.1255 16.0883 10.1255C16.0883 10.1255 16.0373 10.1552 15.9355 10.2146C15.8337 10.274 15.7022 10.3546 15.541 10.4564C15.3797 10.5583 15.21 10.6771 15.0319 10.8128C14.8876 10.8977 14.7222 11.0165 14.5355 11.1692C14.3573 11.3134 14.1918 11.4322 14.0391 11.5256C13.81 11.7038 13.653 11.8183 13.5682 11.8692C13.4918 11.9201 13.4154 11.9244 13.3391 11.8819C13.2288 11.7886 13.1227 11.6528 13.0209 11.4747C12.9276 11.288 12.9063 11.1522 12.9573 11.0674C12.9742 11.0589 13.0294 11.0207 13.1227 10.9528C13.2245 10.8849 13.3391 10.8043 13.4664 10.711C13.5936 10.6177 13.7082 10.5328 13.81 10.4564C13.9203 10.3801 13.9967 10.3292 14.0391 10.3037C14.0646 10.3037 14.1112 10.274 14.1791 10.2146C14.247 10.1552 14.3191 10.1001 14.3955 10.0492C14.4379 9.99825 14.5864 9.8837 14.8409 9.70551C15.0955 9.52733 15.3713 9.32793 15.6682 9.10732C15.9822 8.91216 16.2622 8.75519 16.5083 8.63639C16.7543 8.5176 16.8943 8.46245 16.9283 8.47093C16.9537 8.47093 17.0131 8.50063 17.1065 8.56003C17.2083 8.61942 17.3059 8.6873 17.3992 8.76367C17.4925 8.84004 17.5434 8.90367 17.5519 8.95458C17.6028 9.01398 17.5774 9.14974 17.4756 9.36187C17.4416 9.43823 17.3865 9.57824 17.3101 9.78188C17.2337 9.97704 17.1489 10.2061 17.0555 10.4692C16.9707 10.7237 16.8858 10.9783 16.801 11.2328C16.7246 11.4789 16.661 11.691 16.6101 11.8692C16.5422 12.1322 16.4786 12.3359 16.4192 12.4801C16.3683 12.6244 16.3173 12.7644 16.2664 12.9001C16.224 13.0274 16.1731 13.2056 16.1137 13.4347C16.0543 13.5705 15.9907 13.7444 15.9228 13.9565C15.8634 14.1602 15.8082 14.3638 15.7573 14.5675C15.7064 14.7626 15.6682 14.9238 15.6428 15.0511C15.5749 15.2378 15.5197 15.4202 15.4773 15.5984C15.4349 15.7766 15.3925 15.8827 15.35 15.9166Z" fill="white"/>
</svg>
