<svg width="24" height="24" viewBox="0 0 24 24" fill="none" xmlns="http://www.w3.org/2000/svg">
<rect width="24" height="24" rx="12" fill="#3B7EE6"/>
<path d="M8.7292 15.6493C8.6698 15.6493 8.55949 15.6281 8.39828 15.5857C8.24555 15.5433 8.08433 15.4923 7.91463 15.4329C7.75341 15.3651 7.62613 15.2929 7.5328 15.2166C7.24431 14.9705 7.03642 14.699 6.90914 14.402C6.78187 14.0965 6.7055 13.7868 6.68005 13.4729C6.66308 13.1589 6.6758 12.862 6.71823 12.582C6.81157 12.0389 7.00672 11.5001 7.3037 10.9655C7.60068 10.4225 7.95705 9.97279 8.37282 9.61642C8.59343 9.42126 8.81405 9.25581 9.03466 9.12004C9.25527 8.98428 9.49285 8.8867 9.74741 8.82731C9.84074 8.80185 9.97226 8.78913 10.142 8.78913C10.3201 8.78064 10.4389 8.7764 10.4983 8.7764C10.668 8.7764 10.8547 8.81458 11.0584 8.89095C11.2705 8.95883 11.4529 9.04368 11.6056 9.1455C11.7584 9.23884 11.8347 9.32793 11.8347 9.41278C11.8347 9.47217 11.8305 9.53157 11.822 9.59097C11.8135 9.65036 11.7753 9.66309 11.7075 9.62915H11.5802L11.7075 10.011C11.7414 10.0789 11.7711 10.1722 11.7966 10.291C11.822 10.4013 11.8347 10.5031 11.8347 10.5964C11.8347 10.6813 11.822 10.8086 11.7966 10.9783C11.7796 11.1395 11.7499 11.3134 11.7075 11.5001C11.6735 11.6868 11.6353 11.8607 11.5929 12.0219C11.559 12.1832 11.525 12.302 11.4911 12.3783C11.4656 12.4292 11.4487 12.4801 11.4402 12.531C11.4402 12.5735 11.4402 12.6117 11.4402 12.6456C11.4062 12.7135 11.3511 12.8323 11.2747 13.002C11.1984 13.1717 11.1432 13.2905 11.1093 13.3583C11.0753 13.3923 11.0456 13.422 11.0202 13.4474C11.0032 13.4729 11.0117 13.5026 11.0456 13.5365C11.0456 13.562 11.0244 13.6214 10.982 13.7147C10.9396 13.7996 10.8929 13.8802 10.842 13.9565C10.7996 14.0329 10.7656 14.0711 10.7402 14.0711C10.7402 14.0711 10.7274 14.0753 10.702 14.0838C10.685 14.0838 10.6765 14.0965 10.6765 14.122C10.6765 14.1559 10.6171 14.245 10.4983 14.3893C10.388 14.5335 10.2565 14.682 10.1038 14.8347C10.0189 14.9196 9.88317 15.0299 9.69649 15.1657C9.50982 15.2929 9.32315 15.4075 9.13648 15.5093C8.95829 15.6026 8.82253 15.6493 8.7292 15.6493ZM8.70374 14.4275C8.79708 14.4275 8.88617 14.4147 8.97102 14.3893C9.05587 14.3553 9.12799 14.3087 9.18739 14.2493C9.34012 14.1475 9.48437 14.0117 9.62013 13.842C9.76438 13.6723 9.88317 13.4771 9.9765 13.2565C10.0698 13.1292 10.142 12.9977 10.1929 12.862C10.2523 12.7177 10.3414 12.4759 10.4602 12.1365C10.528 12.0432 10.5747 11.9286 10.6002 11.7928C10.6256 11.6571 10.6383 11.5425 10.6383 11.4492C10.6383 11.3559 10.6383 11.2286 10.6383 11.0674C10.6468 10.9062 10.668 10.7704 10.702 10.6601C10.702 10.4395 10.6977 10.3122 10.6892 10.2783C10.6808 10.2358 10.6468 10.1807 10.5874 10.1128C10.5535 10.0873 10.5068 10.0619 10.4474 10.0364C10.3965 10.011 10.3414 9.99825 10.282 9.99825C10.2226 9.99825 10.142 10.0152 10.0401 10.0492C9.9468 10.0746 9.8662 10.1086 9.79832 10.151C9.73892 10.1849 9.67104 10.1892 9.59467 10.1637C9.52679 10.1383 9.49285 10.1043 9.49285 10.0619C9.49285 9.9431 9.43346 9.95158 9.31467 10.0873C9.20436 10.2146 9.05587 10.3928 8.8692 10.6219C8.71647 10.7746 8.58495 10.9316 8.47464 11.0928C8.37282 11.2456 8.32191 11.3389 8.32191 11.3728C8.32191 11.4068 8.30918 11.4492 8.28373 11.5001C8.25827 11.551 8.23282 11.6104 8.20736 11.6783C8.16494 11.7377 8.11403 11.8353 8.05463 11.971C7.99524 12.1068 7.93584 12.2426 7.87644 12.3783C7.82553 12.5056 7.79159 12.6032 7.77462 12.6711C7.77462 12.705 7.77462 12.7983 7.77462 12.9511C7.77462 13.0953 7.77462 13.2311 7.77462 13.3583C7.77462 13.5026 7.77887 13.6087 7.78735 13.6765C7.79584 13.7444 7.80856 13.7996 7.82553 13.842C7.85099 13.8844 7.88493 13.9481 7.92735 14.0329C7.96129 14.0923 8.01221 14.1644 8.08009 14.2493C8.15645 14.3256 8.20736 14.3808 8.23282 14.4147C8.32615 14.4996 8.38555 14.5335 8.411 14.5166C8.44494 14.4911 8.54252 14.4614 8.70374 14.4275ZM12.7918 15.5857C12.7579 15.5687 12.6985 15.522 12.6136 15.4457C12.5372 15.3693 12.4609 15.2845 12.3845 15.1911C12.3081 15.0893 12.2572 15.0129 12.2318 14.962C12.2063 14.9196 12.2063 14.8432 12.2318 14.7329C12.2657 14.6226 12.2997 14.5675 12.3336 14.5675C12.3591 14.5844 12.393 14.5547 12.4354 14.4784C12.4778 14.402 12.5203 14.3214 12.5627 14.2366C12.6051 14.1432 12.6263 14.0881 12.6263 14.0711C12.6348 14.0372 12.656 14.0117 12.69 13.9947C12.7324 13.9693 12.7706 13.9438 12.8045 13.9184C12.8469 13.8505 12.9021 13.7826 12.97 13.7147C13.0463 13.6384 13.1057 13.5747 13.1482 13.5238C13.216 13.439 13.3391 13.3117 13.5173 13.142C13.6955 12.9723 13.8694 12.7983 14.0391 12.6201C14.2173 12.425 14.3743 12.2553 14.51 12.111C14.6458 11.9583 14.7179 11.8522 14.7264 11.7928C14.7264 11.7928 14.7391 11.7801 14.7646 11.7547C14.7985 11.7207 14.8367 11.691 14.8791 11.6656C14.9216 11.6401 14.9767 11.5977 15.0446 11.5383C15.121 11.4789 15.1846 11.4237 15.2355 11.3728C15.2525 11.305 15.2907 11.2286 15.35 11.1437C15.4179 11.0504 15.4943 10.9613 15.5791 10.8765C15.647 10.7746 15.7107 10.6643 15.7701 10.5455C15.8295 10.4183 15.8676 10.3249 15.8846 10.2655C15.9101 10.1722 15.9016 10.117 15.8592 10.1001C15.8167 10.0746 15.7022 10.0322 15.5155 9.97279C15.3119 9.90491 15.121 9.89219 14.9428 9.93461C14.7646 9.97704 14.527 10.1043 14.23 10.3164C14.1112 10.3419 14.0009 10.3758 13.8991 10.4183C13.8058 10.4607 13.7252 10.4777 13.6573 10.4692C13.6233 10.4522 13.5851 10.414 13.5427 10.3546C13.5003 10.2952 13.4536 10.2401 13.4027 10.1892L13.2754 9.64188L13.67 9.42551C14.0179 9.20489 14.3488 9.03944 14.6628 8.92913C14.9852 8.81034 15.2652 8.78913 15.5028 8.86549C15.5961 8.86549 15.681 8.87822 15.7573 8.90367C15.8337 8.92064 15.8719 8.92913 15.8719 8.92913C15.9398 8.92064 16.0373 8.95458 16.1646 9.03095C16.3004 9.10732 16.4319 9.20489 16.5592 9.32369C16.6949 9.44248 16.7883 9.56127 16.8392 9.68006C16.9749 9.8837 17.0259 10.1298 16.9919 10.4183C16.958 10.7068 16.8349 11.008 16.6228 11.3219C16.5804 11.3728 16.487 11.4789 16.3428 11.6401C16.1986 11.8013 16.0331 11.9838 15.8464 12.1874C15.6682 12.3826 15.5028 12.5565 15.35 12.7092C15.2058 12.862 15.1125 12.9595 15.07 13.002C15.0106 13.0274 14.9088 13.108 14.7646 13.2438C14.6288 13.3796 14.4803 13.5323 14.3191 13.702C14.1664 13.8632 14.0349 14.0075 13.9246 14.1347C13.8227 14.2535 13.7803 14.3129 13.7973 14.3129C13.7888 14.3469 13.8312 14.3469 13.9246 14.3129C14.0264 14.2705 14.1155 14.2366 14.1918 14.2111C14.3191 14.1687 14.4676 14.1305 14.6373 14.0965C14.8155 14.0541 14.9937 14.0202 15.1719 13.9947C15.35 13.9693 15.5028 13.9523 15.6301 13.9438C15.7658 13.9353 15.8464 13.9438 15.8719 13.9693C15.8889 14.0117 15.9016 14.0287 15.9101 14.0202C15.927 14.0032 15.9355 13.9947 15.9355 13.9947C15.9525 13.9353 16.0586 13.9184 16.2537 13.9438C16.4574 13.9693 16.6398 14.0075 16.801 14.0584C16.8943 14.0838 16.9665 14.1178 17.0174 14.1602C17.0768 14.2026 17.1065 14.2408 17.1065 14.2747C17.1065 14.2747 17.1149 14.2959 17.1319 14.3384C17.1574 14.3723 17.1956 14.419 17.2465 14.4784C17.3822 14.5887 17.3822 14.7075 17.2465 14.8347C17.1192 14.962 16.8858 14.996 16.5464 14.9366C16.3258 14.9366 16.1434 14.9493 15.9992 14.9748C15.9652 14.9917 15.8931 15.0002 15.7828 15.0002C15.6725 15.0002 15.5664 15.0045 15.4646 15.0129C15.3119 14.996 15.1591 15.0045 15.0064 15.0384C14.8537 15.0638 14.6712 15.1105 14.4591 15.1784C14.3827 15.2039 14.264 15.242 14.1027 15.2929C13.9415 15.3439 13.7676 15.3948 13.5809 15.4457C13.3942 15.4966 13.2245 15.5348 13.0718 15.5602C12.9276 15.5857 12.8342 15.5942 12.7918 15.5857Z" fill="white"/>
</svg>
