<svg width="24" height="24" viewBox="0 0 24 24" fill="none" xmlns="http://www.w3.org/2000/svg">
<rect width="24" height="24" rx="12" fill="#3B7EE6"/>
<path d="M8.7292 15.6493C8.6698 15.6493 8.55949 15.6281 8.39828 15.5857C8.24555 15.5433 8.08433 15.4923 7.91463 15.4329C7.75341 15.3651 7.62613 15.2929 7.5328 15.2166C7.24431 14.9705 7.03642 14.699 6.90914 14.402C6.78187 14.0965 6.7055 13.7868 6.68005 13.4729C6.66308 13.1589 6.6758 12.862 6.71823 12.582C6.81157 12.0389 7.00672 11.5001 7.3037 10.9655C7.60068 10.4225 7.95705 9.97279 8.37282 9.61642C8.59343 9.42126 8.81405 9.25581 9.03466 9.12004C9.25527 8.98428 9.49285 8.8867 9.74741 8.82731C9.84074 8.80185 9.97226 8.78913 10.142 8.78913C10.3201 8.78064 10.4389 8.7764 10.4983 8.7764C10.668 8.7764 10.8547 8.81458 11.0584 8.89095C11.2705 8.95883 11.4529 9.04368 11.6056 9.1455C11.7584 9.23884 11.8347 9.32793 11.8347 9.41278C11.8347 9.47217 11.8305 9.53157 11.822 9.59097C11.8135 9.65036 11.7753 9.66309 11.7075 9.62915H11.5802L11.7075 10.011C11.7414 10.0789 11.7711 10.1722 11.7966 10.291C11.822 10.4013 11.8347 10.5031 11.8347 10.5964C11.8347 10.6813 11.822 10.8086 11.7966 10.9783C11.7796 11.1395 11.7499 11.3134 11.7075 11.5001C11.6735 11.6868 11.6353 11.8607 11.5929 12.0219C11.559 12.1832 11.525 12.302 11.4911 12.3783C11.4656 12.4292 11.4487 12.4801 11.4402 12.531C11.4402 12.5735 11.4402 12.6117 11.4402 12.6456C11.4062 12.7135 11.3511 12.8323 11.2747 13.002C11.1984 13.1717 11.1432 13.2905 11.1093 13.3583C11.0753 13.3923 11.0456 13.422 11.0202 13.4474C11.0032 13.4729 11.0117 13.5026 11.0456 13.5365C11.0456 13.562 11.0244 13.6214 10.982 13.7147C10.9396 13.7996 10.8929 13.8802 10.842 13.9565C10.7996 14.0329 10.7656 14.0711 10.7402 14.0711C10.7402 14.0711 10.7274 14.0753 10.702 14.0838C10.685 14.0838 10.6765 14.0965 10.6765 14.122C10.6765 14.1559 10.6171 14.245 10.4983 14.3893C10.388 14.5335 10.2565 14.682 10.1038 14.8347C10.0189 14.9196 9.88317 15.0299 9.69649 15.1657C9.50982 15.2929 9.32315 15.4075 9.13648 15.5093C8.95829 15.6026 8.82253 15.6493 8.7292 15.6493ZM8.70374 14.4275C8.79708 14.4275 8.88617 14.4147 8.97102 14.3893C9.05587 14.3553 9.12799 14.3087 9.18739 14.2493C9.34012 14.1475 9.48437 14.0117 9.62013 13.842C9.76438 13.6723 9.88317 13.4771 9.9765 13.2565C10.0698 13.1292 10.142 12.9977 10.1929 12.862C10.2523 12.7177 10.3414 12.4759 10.4602 12.1365C10.528 12.0432 10.5747 11.9286 10.6002 11.7928C10.6256 11.6571 10.6383 11.5425 10.6383 11.4492C10.6383 11.3559 10.6383 11.2286 10.6383 11.0674C10.6468 10.9062 10.668 10.7704 10.702 10.6601C10.702 10.4395 10.6977 10.3122 10.6892 10.2783C10.6808 10.2358 10.6468 10.1807 10.5874 10.1128C10.5535 10.0873 10.5068 10.0619 10.4474 10.0364C10.3965 10.011 10.3414 9.99825 10.282 9.99825C10.2226 9.99825 10.142 10.0152 10.0401 10.0492C9.9468 10.0746 9.8662 10.1086 9.79832 10.151C9.73892 10.1849 9.67104 10.1892 9.59467 10.1637C9.52679 10.1383 9.49285 10.1043 9.49285 10.0619C9.49285 9.9431 9.43346 9.95158 9.31467 10.0873C9.20436 10.2146 9.05587 10.3928 8.8692 10.6219C8.71647 10.7746 8.58495 10.9316 8.47464 11.0928C8.37282 11.2456 8.32191 11.3389 8.32191 11.3728C8.32191 11.4068 8.30918 11.4492 8.28373 11.5001C8.25827 11.551 8.23282 11.6104 8.20736 11.6783C8.16494 11.7377 8.11403 11.8353 8.05463 11.971C7.99524 12.1068 7.93584 12.2426 7.87644 12.3783C7.82553 12.5056 7.79159 12.6032 7.77462 12.6711C7.77462 12.705 7.77462 12.7983 7.77462 12.9511C7.77462 13.0953 7.77462 13.2311 7.77462 13.3583C7.77462 13.5026 7.77887 13.6087 7.78735 13.6765C7.79584 13.7444 7.80856 13.7996 7.82553 13.842C7.85099 13.8844 7.88493 13.9481 7.92735 14.0329C7.96129 14.0923 8.01221 14.1644 8.08009 14.2493C8.15645 14.3256 8.20736 14.3808 8.23282 14.4147C8.32615 14.4996 8.38555 14.5335 8.411 14.5166C8.44494 14.4911 8.54252 14.4614 8.70374 14.4275ZM13.8355 15.6748C13.6233 15.6748 13.4154 15.6366 13.2118 15.5602C13.0166 15.4754 12.8597 15.3778 12.7409 15.2675C12.6221 15.1572 12.5669 15.0511 12.5754 14.9493C12.5839 14.8135 12.6306 14.7075 12.7154 14.6311C12.8003 14.5547 12.936 14.5293 13.1227 14.5547C13.4112 14.6141 13.7039 14.6353 14.0009 14.6184C14.2979 14.5929 14.5737 14.5335 14.8282 14.4402C15.0913 14.3469 15.3034 14.2196 15.4646 14.0584C15.6937 13.8378 15.8125 13.6511 15.821 13.4983C15.8295 13.3371 15.7107 13.1759 15.4646 13.0147C15.3543 12.9383 15.2185 12.8662 15.0573 12.7983C14.8961 12.7304 14.7349 12.6795 14.5737 12.6456C14.4209 12.6032 14.2852 12.5862 14.1664 12.5947C14.09 12.6032 13.9967 12.5904 13.8864 12.5565C13.7761 12.5141 13.6658 12.4632 13.5555 12.4038C13.5045 12.3444 13.4579 12.2468 13.4154 12.111C13.373 11.9753 13.3433 11.8904 13.3264 11.8565C13.3179 11.8141 13.3476 11.7631 13.4154 11.7038C13.4833 11.6444 13.6191 11.5553 13.8227 11.4365C14.0264 11.3092 14.3234 11.1395 14.7137 10.9274C15.07 10.7322 15.3416 10.5837 15.5282 10.4819C15.7234 10.3716 15.8719 10.2867 15.9737 10.2273C16.084 10.1595 16.1773 10.0916 16.2537 10.0237C16.3555 9.90491 16.4022 9.81582 16.3937 9.75643C16.3852 9.69703 16.2707 9.64612 16.0501 9.60369C15.8379 9.58672 15.6682 9.58672 15.541 9.60369C15.4137 9.61218 15.35 9.63339 15.35 9.66733C15.35 9.66733 15.3458 9.66733 15.3373 9.66733C15.3373 9.66733 15.3246 9.66733 15.2991 9.66733C15.2567 9.65036 15.1634 9.6546 15.0191 9.68006C14.8749 9.70551 14.7349 9.73521 14.5991 9.76915C14.4718 9.80309 14.404 9.83279 14.3955 9.85825C14.387 9.87522 14.3276 9.90491 14.2173 9.94734C14.1155 9.98128 14.0094 10.011 13.8991 10.0364C13.7973 10.0619 13.7336 10.0746 13.7082 10.0746C13.6658 10.0576 13.6148 9.99825 13.5555 9.89643C13.5045 9.79461 13.4621 9.68854 13.4282 9.57824C13.3942 9.45945 13.3858 9.37884 13.4027 9.33641C13.4197 9.30247 13.4791 9.25156 13.5809 9.18368C13.6912 9.10732 13.8142 9.03095 13.95 8.95458C14.0858 8.86973 14.2003 8.8061 14.2937 8.76367C14.4124 8.72973 14.5864 8.70003 14.8155 8.67458C15.0531 8.64064 15.2864 8.61518 15.5155 8.59821C15.7531 8.57276 15.9228 8.56427 16.0246 8.57276C16.4149 8.61518 16.7289 8.717 16.9665 8.87822C17.204 9.03095 17.3568 9.27702 17.4247 9.61642C17.4501 9.73521 17.4501 9.85825 17.4247 9.98552C17.3992 10.1128 17.344 10.2401 17.2592 10.3674C17.1743 10.4946 17.0471 10.6346 16.8774 10.7874C16.6652 10.9231 16.4998 11.0377 16.381 11.131C16.2707 11.2159 16.1179 11.305 15.9228 11.3983C15.8634 11.4407 15.7701 11.4874 15.6428 11.5383C15.5155 11.5892 15.3967 11.6359 15.2864 11.6783C15.1761 11.7207 15.121 11.7504 15.121 11.7674C15.121 11.7674 15.1591 11.7759 15.2355 11.7928C15.3203 11.8013 15.4094 11.8183 15.5028 11.8438C15.6046 11.8607 15.6767 11.8904 15.7191 11.9328C15.9652 12.0177 16.1901 12.1662 16.3937 12.3783C16.6058 12.582 16.7543 12.7432 16.8392 12.862C16.958 13.125 16.9707 13.4135 16.8774 13.7274C16.7925 14.0329 16.6355 14.3256 16.4064 14.6057C16.1858 14.8772 15.927 15.102 15.6301 15.2802C15.3925 15.416 15.0997 15.5136 14.7518 15.573C14.4124 15.6239 14.107 15.6578 13.8355 15.6748Z" fill="white"/>
</svg>
