<svg width="24" height="24" viewBox="0 0 24 24" fill="none" xmlns="http://www.w3.org/2000/svg">
<rect width="24" height="24" rx="12" fill="#3B7EE6"/>
<path d="M8.7292 15.6493C8.6698 15.6493 8.55949 15.6281 8.39828 15.5857C8.24555 15.5433 8.08433 15.4923 7.91463 15.4329C7.75341 15.3651 7.62613 15.2929 7.5328 15.2166C7.24431 14.9705 7.03642 14.699 6.90914 14.402C6.78187 14.0965 6.7055 13.7868 6.68005 13.4729C6.66308 13.1589 6.6758 12.862 6.71823 12.582C6.81157 12.0389 7.00672 11.5001 7.3037 10.9655C7.60068 10.4225 7.95705 9.97279 8.37282 9.61642C8.59343 9.42126 8.81405 9.25581 9.03466 9.12004C9.25527 8.98428 9.49285 8.8867 9.74741 8.82731C9.84074 8.80185 9.97226 8.78913 10.142 8.78913C10.3201 8.78064 10.4389 8.7764 10.4983 8.7764C10.668 8.7764 10.8547 8.81458 11.0584 8.89095C11.2705 8.95883 11.4529 9.04368 11.6056 9.1455C11.7584 9.23884 11.8347 9.32793 11.8347 9.41278C11.8347 9.47217 11.8305 9.53157 11.822 9.59097C11.8135 9.65036 11.7753 9.66309 11.7075 9.62915H11.5802L11.7075 10.011C11.7414 10.0789 11.7711 10.1722 11.7966 10.291C11.822 10.4013 11.8347 10.5031 11.8347 10.5964C11.8347 10.6813 11.822 10.8086 11.7966 10.9783C11.7796 11.1395 11.7499 11.3134 11.7075 11.5001C11.6735 11.6868 11.6353 11.8607 11.5929 12.0219C11.559 12.1832 11.525 12.302 11.4911 12.3783C11.4656 12.4292 11.4487 12.4801 11.4402 12.531C11.4402 12.5735 11.4402 12.6117 11.4402 12.6456C11.4062 12.7135 11.3511 12.8323 11.2747 13.002C11.1984 13.1717 11.1432 13.2905 11.1093 13.3583C11.0753 13.3923 11.0456 13.422 11.0202 13.4474C11.0032 13.4729 11.0117 13.5026 11.0456 13.5365C11.0456 13.562 11.0244 13.6214 10.982 13.7147C10.9396 13.7996 10.8929 13.8802 10.842 13.9565C10.7996 14.0329 10.7656 14.0711 10.7402 14.0711C10.7402 14.0711 10.7274 14.0753 10.702 14.0838C10.685 14.0838 10.6765 14.0965 10.6765 14.122C10.6765 14.1559 10.6171 14.245 10.4983 14.3893C10.388 14.5335 10.2565 14.682 10.1038 14.8347C10.0189 14.9196 9.88317 15.0299 9.69649 15.1657C9.50982 15.2929 9.32315 15.4075 9.13648 15.5093C8.95829 15.6026 8.82253 15.6493 8.7292 15.6493ZM8.70374 14.4275C8.79708 14.4275 8.88617 14.4147 8.97102 14.3893C9.05587 14.3553 9.12799 14.3087 9.18739 14.2493C9.34012 14.1475 9.48437 14.0117 9.62013 13.842C9.76438 13.6723 9.88317 13.4771 9.9765 13.2565C10.0698 13.1292 10.142 12.9977 10.1929 12.862C10.2523 12.7177 10.3414 12.4759 10.4602 12.1365C10.528 12.0432 10.5747 11.9286 10.6002 11.7928C10.6256 11.6571 10.6383 11.5425 10.6383 11.4492C10.6383 11.3559 10.6383 11.2286 10.6383 11.0674C10.6468 10.9062 10.668 10.7704 10.702 10.6601C10.702 10.4395 10.6977 10.3122 10.6892 10.2783C10.6808 10.2358 10.6468 10.1807 10.5874 10.1128C10.5535 10.0873 10.5068 10.0619 10.4474 10.0364C10.3965 10.011 10.3414 9.99825 10.282 9.99825C10.2226 9.99825 10.142 10.0152 10.0401 10.0492C9.9468 10.0746 9.8662 10.1086 9.79832 10.151C9.73892 10.1849 9.67104 10.1892 9.59467 10.1637C9.52679 10.1383 9.49285 10.1043 9.49285 10.0619C9.49285 9.9431 9.43346 9.95158 9.31467 10.0873C9.20436 10.2146 9.05587 10.3928 8.8692 10.6219C8.71647 10.7746 8.58495 10.9316 8.47464 11.0928C8.37282 11.2456 8.32191 11.3389 8.32191 11.3728C8.32191 11.4068 8.30918 11.4492 8.28373 11.5001C8.25827 11.551 8.23282 11.6104 8.20736 11.6783C8.16494 11.7377 8.11403 11.8353 8.05463 11.971C7.99524 12.1068 7.93584 12.2426 7.87644 12.3783C7.82553 12.5056 7.79159 12.6032 7.77462 12.6711C7.77462 12.705 7.77462 12.7983 7.77462 12.9511C7.77462 13.0953 7.77462 13.2311 7.77462 13.3583C7.77462 13.5026 7.77887 13.6087 7.78735 13.6765C7.79584 13.7444 7.80856 13.7996 7.82553 13.842C7.85099 13.8844 7.88493 13.9481 7.92735 14.0329C7.96129 14.0923 8.01221 14.1644 8.08009 14.2493C8.15645 14.3256 8.20736 14.3808 8.23282 14.4147C8.32615 14.4996 8.38555 14.5335 8.411 14.5166C8.44494 14.4911 8.54252 14.4614 8.70374 14.4275ZM14.9428 15.8402C14.9088 15.8402 14.824 15.7808 14.6882 15.662C14.5609 15.5433 14.4973 15.3651 14.4973 15.1275C14.5058 14.8644 14.5482 14.5887 14.6246 14.3002C14.7094 14.0032 14.79 13.7402 14.8664 13.5111C14.9173 13.3583 14.9597 13.2311 14.9937 13.1292C15.0361 13.0274 15.0573 12.9638 15.0573 12.9383C15.0488 12.9383 15.0022 12.9468 14.9173 12.9638C14.8409 12.9808 14.7434 13.002 14.6246 13.0274C14.2088 13.1123 13.8906 13.1547 13.67 13.1547C13.4579 13.1547 13.2754 13.0274 13.1227 12.7729C13.0718 12.722 13.0039 12.6286 12.9191 12.4929C12.8342 12.3571 12.7748 12.2086 12.7409 12.0474C12.7154 11.8862 12.7579 11.7504 12.8682 11.6401C12.953 11.428 13.0209 11.2753 13.0718 11.1819C13.1227 11.0886 13.1567 11.0207 13.1736 10.9783C13.1991 10.9359 13.2118 10.8934 13.2118 10.851C13.2203 10.834 13.233 10.8086 13.25 10.7746C13.267 10.7407 13.2882 10.7068 13.3136 10.6728C13.39 10.5455 13.4961 10.3801 13.6318 10.1764C13.7761 9.97279 13.9246 9.76915 14.0773 9.56551C14.2385 9.35338 14.3827 9.16671 14.51 9.00549C14.6373 8.83579 14.7306 8.72549 14.79 8.67458C14.8409 8.64912 14.93 8.61094 15.0573 8.56003C15.1931 8.50912 15.2907 8.48366 15.35 8.48366C15.4179 8.48366 15.4816 8.53033 15.541 8.62367C15.6088 8.70852 15.664 8.79761 15.7064 8.89095C15.7488 8.98428 15.7701 9.04792 15.7701 9.08186C15.7701 9.08186 15.7658 9.09035 15.7573 9.10732C15.7488 9.12429 15.7319 9.15398 15.7064 9.19641C15.6725 9.24732 15.6216 9.3152 15.5537 9.40005C15.4943 9.4849 15.4052 9.59521 15.2864 9.73097C15.1846 9.84976 15.0573 10.0237 14.9046 10.2528C14.7518 10.4734 14.5991 10.711 14.4464 10.9655C14.3021 11.2116 14.1791 11.4322 14.0773 11.6274C13.9755 11.8225 13.9246 11.9541 13.9246 12.0219C13.9246 12.0644 13.9373 12.0983 13.9627 12.1238C13.9967 12.1407 14.0561 12.1492 14.1409 12.1492C14.2512 12.1322 14.3488 12.1153 14.4337 12.0983C14.527 12.0813 14.6118 12.0644 14.6882 12.0474C14.7815 12.0304 14.8622 12.0135 14.93 11.9965C14.9979 11.971 15.0616 11.9498 15.121 11.9328C15.1888 11.9074 15.2482 11.8862 15.2991 11.8692C15.3585 11.8438 15.4094 11.8141 15.4519 11.7801C15.5537 11.6953 15.6301 11.5807 15.681 11.4365C15.7319 11.2922 15.8125 11.0971 15.9228 10.851C15.9907 10.6813 16.0586 10.5286 16.1264 10.3928C16.2028 10.2486 16.2707 10.117 16.3301 9.99825C16.5422 9.60794 16.7204 9.32369 16.8646 9.1455C17.0089 8.95883 17.0895 8.86549 17.1065 8.86549C17.1319 8.86549 17.1913 8.89943 17.2846 8.96731C17.378 9.03519 17.4671 9.10732 17.5519 9.18368C17.6198 9.24308 17.675 9.29823 17.7174 9.34914C17.7598 9.39157 17.781 9.42126 17.781 9.43823C17.781 9.54006 17.7556 9.64612 17.7047 9.75643C17.6622 9.85825 17.5986 9.97704 17.5137 10.1128C17.4289 10.2486 17.3313 10.4225 17.221 10.6346C17.0937 10.8807 16.9749 11.1268 16.8646 11.3728C16.7543 11.6104 16.6483 11.848 16.5464 12.0856C16.4446 12.3147 16.3513 12.5395 16.2664 12.7601C16.1816 12.9808 16.101 13.1886 16.0246 13.3838C15.8379 13.8844 15.7107 14.2535 15.6428 14.4911C15.5749 14.7287 15.541 14.8941 15.541 14.9875C15.5494 15.0723 15.5664 15.1445 15.5919 15.2039C15.5919 15.3142 15.5579 15.4202 15.4901 15.522C15.4222 15.6154 15.3373 15.6917 15.2355 15.7511C15.1337 15.8105 15.0361 15.8402 14.9428 15.8402Z" fill="white"/>
</svg>
