<svg width="24" height="24" viewBox="0 0 24 24" fill="none" xmlns="http://www.w3.org/2000/svg">
<rect width="24" height="24" rx="12" fill="#3B7EE6"/>
<path d="M8.7292 15.6493C8.6698 15.6493 8.55949 15.6281 8.39828 15.5857C8.24555 15.5433 8.08433 15.4923 7.91463 15.4329C7.75341 15.3651 7.62613 15.2929 7.5328 15.2166C7.24431 14.9705 7.03642 14.699 6.90914 14.402C6.78187 14.0965 6.7055 13.7868 6.68005 13.4729C6.66308 13.1589 6.6758 12.862 6.71823 12.582C6.81157 12.0389 7.00672 11.5001 7.3037 10.9655C7.60068 10.4225 7.95705 9.97279 8.37282 9.61642C8.59343 9.42126 8.81405 9.25581 9.03466 9.12004C9.25527 8.98428 9.49285 8.8867 9.74741 8.82731C9.84074 8.80185 9.97226 8.78913 10.142 8.78913C10.3201 8.78064 10.4389 8.7764 10.4983 8.7764C10.668 8.7764 10.8547 8.81458 11.0584 8.89095C11.2705 8.95883 11.4529 9.04368 11.6056 9.1455C11.7584 9.23884 11.8347 9.32793 11.8347 9.41278C11.8347 9.47217 11.8305 9.53157 11.822 9.59097C11.8135 9.65036 11.7753 9.66309 11.7075 9.62915H11.5802L11.7075 10.011C11.7414 10.0789 11.7711 10.1722 11.7966 10.291C11.822 10.4013 11.8347 10.5031 11.8347 10.5964C11.8347 10.6813 11.822 10.8086 11.7966 10.9783C11.7796 11.1395 11.7499 11.3134 11.7075 11.5001C11.6735 11.6868 11.6353 11.8607 11.5929 12.0219C11.559 12.1832 11.525 12.302 11.4911 12.3783C11.4656 12.4292 11.4487 12.4801 11.4402 12.531C11.4402 12.5735 11.4402 12.6117 11.4402 12.6456C11.4062 12.7135 11.3511 12.8323 11.2747 13.002C11.1984 13.1717 11.1432 13.2905 11.1093 13.3583C11.0753 13.3923 11.0456 13.422 11.0202 13.4474C11.0032 13.4729 11.0117 13.5026 11.0456 13.5365C11.0456 13.562 11.0244 13.6214 10.982 13.7147C10.9396 13.7996 10.8929 13.8802 10.842 13.9565C10.7996 14.0329 10.7656 14.0711 10.7402 14.0711C10.7402 14.0711 10.7274 14.0753 10.702 14.0838C10.685 14.0838 10.6765 14.0965 10.6765 14.122C10.6765 14.1559 10.6171 14.245 10.4983 14.3893C10.388 14.5335 10.2565 14.682 10.1038 14.8347C10.0189 14.9196 9.88317 15.0299 9.69649 15.1657C9.50982 15.2929 9.32315 15.4075 9.13648 15.5093C8.95829 15.6026 8.82253 15.6493 8.7292 15.6493ZM8.70374 14.4275C8.79708 14.4275 8.88617 14.4147 8.97102 14.3893C9.05587 14.3553 9.12799 14.3087 9.18739 14.2493C9.34012 14.1475 9.48437 14.0117 9.62013 13.842C9.76438 13.6723 9.88317 13.4771 9.9765 13.2565C10.0698 13.1292 10.142 12.9977 10.1929 12.862C10.2523 12.7177 10.3414 12.4759 10.4602 12.1365C10.528 12.0432 10.5747 11.9286 10.6002 11.7928C10.6256 11.6571 10.6383 11.5425 10.6383 11.4492C10.6383 11.3559 10.6383 11.2286 10.6383 11.0674C10.6468 10.9062 10.668 10.7704 10.702 10.6601C10.702 10.4395 10.6977 10.3122 10.6892 10.2783C10.6808 10.2358 10.6468 10.1807 10.5874 10.1128C10.5535 10.0873 10.5068 10.0619 10.4474 10.0364C10.3965 10.011 10.3414 9.99825 10.282 9.99825C10.2226 9.99825 10.142 10.0152 10.0401 10.0492C9.9468 10.0746 9.8662 10.1086 9.79832 10.151C9.73892 10.1849 9.67104 10.1892 9.59467 10.1637C9.52679 10.1383 9.49285 10.1043 9.49285 10.0619C9.49285 9.9431 9.43346 9.95158 9.31467 10.0873C9.20436 10.2146 9.05587 10.3928 8.8692 10.6219C8.71647 10.7746 8.58495 10.9316 8.47464 11.0928C8.37282 11.2456 8.32191 11.3389 8.32191 11.3728C8.32191 11.4068 8.30918 11.4492 8.28373 11.5001C8.25827 11.551 8.23282 11.6104 8.20736 11.6783C8.16494 11.7377 8.11403 11.8353 8.05463 11.971C7.99524 12.1068 7.93584 12.2426 7.87644 12.3783C7.82553 12.5056 7.79159 12.6032 7.77462 12.6711C7.77462 12.705 7.77462 12.7983 7.77462 12.9511C7.77462 13.0953 7.77462 13.2311 7.77462 13.3583C7.77462 13.5026 7.77887 13.6087 7.78735 13.6765C7.79584 13.7444 7.80856 13.7996 7.82553 13.842C7.85099 13.8844 7.88493 13.9481 7.92735 14.0329C7.96129 14.0923 8.01221 14.1644 8.08009 14.2493C8.15645 14.3256 8.20736 14.3808 8.23282 14.4147C8.32615 14.4996 8.38555 14.5335 8.411 14.5166C8.44494 14.4911 8.54252 14.4614 8.70374 14.4275ZM12.9063 15.4839C12.7536 15.3736 12.6772 15.2802 12.6772 15.2039C12.6433 15.1529 12.6051 15.1275 12.5627 15.1275C12.5372 15.136 12.5118 15.0935 12.4863 15.0002C12.4694 14.9069 12.4524 14.8051 12.4354 14.6947C12.4269 14.5844 12.4269 14.5123 12.4354 14.4784C12.4694 14.4105 12.533 14.3596 12.6263 14.3256C12.7282 14.2917 12.8257 14.279 12.9191 14.2875C13.0209 14.2875 13.076 14.3214 13.0845 14.3893C13.1015 14.4572 13.1651 14.5123 13.2754 14.5547C13.3942 14.5972 13.547 14.6141 13.7336 14.6057C13.9712 14.5972 14.1876 14.559 14.3827 14.4911C14.5864 14.4232 14.7688 14.3256 14.93 14.1984C15.0997 14.0711 15.2525 13.9184 15.3882 13.7402C15.4476 13.6214 15.5028 13.4644 15.5537 13.2693C15.6046 13.0741 15.6385 12.9001 15.6555 12.7474C15.6725 12.5947 15.6598 12.5183 15.6173 12.5183C15.6173 12.5183 15.6088 12.4886 15.5919 12.4292C15.5834 12.3698 15.5664 12.3062 15.541 12.2383C15.4985 12.111 15.401 11.9838 15.2482 11.8565C15.0955 11.7207 14.947 11.6231 14.8028 11.5637C14.7434 11.5468 14.6203 11.5468 14.4337 11.5637C14.247 11.5807 14.09 11.5977 13.9627 11.6147C13.827 11.6231 13.7464 11.6231 13.7209 11.6147C13.7039 11.5977 13.6955 11.5892 13.6955 11.5892C13.653 11.5807 13.5809 11.5383 13.4791 11.4619C13.3858 11.3856 13.2967 11.305 13.2118 11.2201C13.1354 11.1353 13.0973 11.0716 13.0973 11.0292C13.1142 10.9698 13.1609 10.868 13.2373 10.7237C13.3136 10.5795 13.407 10.4225 13.5173 10.2528C13.6361 10.0831 13.7549 9.91764 13.8736 9.75643C13.9924 9.59521 14.1027 9.46369 14.2046 9.36187C14.4591 9.08186 14.7646 8.87398 15.121 8.73822C15.4773 8.59397 15.8295 8.53033 16.1773 8.5473C16.4234 8.55579 16.6058 8.58973 16.7246 8.64912C16.8519 8.70003 16.9665 8.79337 17.0683 8.92913C17.1362 9.04792 17.1616 9.17095 17.1446 9.29823C17.1277 9.42551 17.0852 9.52309 17.0174 9.59097C16.9495 9.65885 16.8646 9.66733 16.7628 9.61642C16.644 9.54006 16.4828 9.51036 16.2792 9.52733C16.0755 9.5443 15.8592 9.58672 15.6301 9.6546C15.4519 9.72248 15.3076 9.78188 15.1973 9.83279C15.087 9.87522 15.0106 9.9431 14.9682 10.0364C14.9343 10.0619 14.9088 10.0873 14.8919 10.1128C14.8834 10.1383 14.8622 10.1467 14.8282 10.1383C14.8282 10.1383 14.8155 10.1552 14.79 10.1892C14.7646 10.2146 14.7518 10.2443 14.7518 10.2783C14.7094 10.3292 14.6797 10.3674 14.6628 10.3928C14.6543 10.4098 14.6331 10.4013 14.5991 10.3674C14.5991 10.3674 14.5991 10.3801 14.5991 10.4055C14.5991 10.431 14.5949 10.4607 14.5864 10.4946C14.5779 10.554 14.5949 10.5964 14.6373 10.6219C14.6882 10.6389 14.7943 10.6558 14.9555 10.6728C15.1676 10.7068 15.3246 10.7407 15.4264 10.7746C15.5367 10.8001 15.6979 10.8765 15.9101 11.0037C16.1476 11.1395 16.3216 11.3431 16.4319 11.6147C16.5507 11.8777 16.6186 12.1704 16.6355 12.4929C16.661 12.8068 16.6525 13.108 16.6101 13.3965C16.5846 13.5832 16.5592 13.7274 16.5337 13.8293C16.5083 13.9311 16.4361 14.0711 16.3173 14.2493C16.1222 14.5208 15.8719 14.7626 15.5664 14.9748C15.261 15.1784 14.9385 15.3396 14.5991 15.4584C14.2597 15.5772 13.9373 15.6451 13.6318 15.662C13.3348 15.6705 13.093 15.6111 12.9063 15.4839Z" fill="white"/>
</svg>
