<svg width="24" height="24" viewBox="0 0 24 24" fill="none" xmlns="http://www.w3.org/2000/svg">
<rect width="24" height="24" rx="12" fill="#3B7EE6"/>
<path d="M8.7292 15.6493C8.6698 15.6493 8.55949 15.6281 8.39828 15.5857C8.24555 15.5433 8.08433 15.4923 7.91463 15.4329C7.75341 15.3651 7.62613 15.2929 7.5328 15.2166C7.24431 14.9705 7.03642 14.699 6.90914 14.402C6.78187 14.0965 6.7055 13.7868 6.68005 13.4729C6.66308 13.1589 6.6758 12.862 6.71823 12.582C6.81157 12.0389 7.00672 11.5001 7.3037 10.9655C7.60068 10.4225 7.95705 9.97279 8.37282 9.61642C8.59343 9.42126 8.81405 9.25581 9.03466 9.12004C9.25527 8.98428 9.49285 8.8867 9.74741 8.82731C9.84074 8.80185 9.97226 8.78913 10.142 8.78913C10.3201 8.78064 10.4389 8.7764 10.4983 8.7764C10.668 8.7764 10.8547 8.81458 11.0584 8.89095C11.2705 8.95883 11.4529 9.04368 11.6056 9.1455C11.7584 9.23884 11.8347 9.32793 11.8347 9.41278C11.8347 9.47217 11.8305 9.53157 11.822 9.59097C11.8135 9.65036 11.7753 9.66309 11.7075 9.62915H11.5802L11.7075 10.011C11.7414 10.0789 11.7711 10.1722 11.7966 10.291C11.822 10.4013 11.8347 10.5031 11.8347 10.5964C11.8347 10.6813 11.822 10.8086 11.7966 10.9783C11.7796 11.1395 11.7499 11.3134 11.7075 11.5001C11.6735 11.6868 11.6353 11.8607 11.5929 12.0219C11.559 12.1832 11.525 12.302 11.4911 12.3783C11.4656 12.4292 11.4487 12.4801 11.4402 12.531C11.4402 12.5735 11.4402 12.6117 11.4402 12.6456C11.4062 12.7135 11.3511 12.8323 11.2747 13.002C11.1984 13.1717 11.1432 13.2905 11.1093 13.3583C11.0753 13.3923 11.0456 13.422 11.0202 13.4474C11.0032 13.4729 11.0117 13.5026 11.0456 13.5365C11.0456 13.562 11.0244 13.6214 10.982 13.7147C10.9396 13.7996 10.8929 13.8802 10.842 13.9565C10.7996 14.0329 10.7656 14.0711 10.7402 14.0711C10.7402 14.0711 10.7274 14.0753 10.702 14.0838C10.685 14.0838 10.6765 14.0965 10.6765 14.122C10.6765 14.1559 10.6171 14.245 10.4983 14.3893C10.388 14.5335 10.2565 14.682 10.1038 14.8347C10.0189 14.9196 9.88317 15.0299 9.69649 15.1657C9.50982 15.2929 9.32315 15.4075 9.13648 15.5093C8.95829 15.6026 8.82253 15.6493 8.7292 15.6493ZM8.70374 14.4275C8.79708 14.4275 8.88617 14.4147 8.97102 14.3893C9.05587 14.3553 9.12799 14.3087 9.18739 14.2493C9.34012 14.1475 9.48437 14.0117 9.62013 13.842C9.76438 13.6723 9.88317 13.4771 9.9765 13.2565C10.0698 13.1292 10.142 12.9977 10.1929 12.862C10.2523 12.7177 10.3414 12.4759 10.4602 12.1365C10.528 12.0432 10.5747 11.9286 10.6002 11.7928C10.6256 11.6571 10.6383 11.5425 10.6383 11.4492C10.6383 11.3559 10.6383 11.2286 10.6383 11.0674C10.6468 10.9062 10.668 10.7704 10.702 10.6601C10.702 10.4395 10.6977 10.3122 10.6892 10.2783C10.6808 10.2358 10.6468 10.1807 10.5874 10.1128C10.5535 10.0873 10.5068 10.0619 10.4474 10.0364C10.3965 10.011 10.3414 9.99825 10.282 9.99825C10.2226 9.99825 10.142 10.0152 10.0401 10.0492C9.9468 10.0746 9.8662 10.1086 9.79832 10.151C9.73892 10.1849 9.67104 10.1892 9.59467 10.1637C9.52679 10.1383 9.49285 10.1043 9.49285 10.0619C9.49285 9.9431 9.43346 9.95158 9.31467 10.0873C9.20436 10.2146 9.05587 10.3928 8.8692 10.6219C8.71647 10.7746 8.58495 10.9316 8.47464 11.0928C8.37282 11.2456 8.32191 11.3389 8.32191 11.3728C8.32191 11.4068 8.30918 11.4492 8.28373 11.5001C8.25827 11.551 8.23282 11.6104 8.20736 11.6783C8.16494 11.7377 8.11403 11.8353 8.05463 11.971C7.99524 12.1068 7.93584 12.2426 7.87644 12.3783C7.82553 12.5056 7.79159 12.6032 7.77462 12.6711C7.77462 12.705 7.77462 12.7983 7.77462 12.9511C7.77462 13.0953 7.77462 13.2311 7.77462 13.3583C7.77462 13.5026 7.77887 13.6087 7.78735 13.6765C7.79584 13.7444 7.80856 13.7996 7.82553 13.842C7.85099 13.8844 7.88493 13.9481 7.92735 14.0329C7.96129 14.0923 8.01221 14.1644 8.08009 14.2493C8.15645 14.3256 8.20736 14.3808 8.23282 14.4147C8.32615 14.4996 8.38555 14.5335 8.411 14.5166C8.44494 14.4911 8.54252 14.4614 8.70374 14.4275ZM14.51 15.4839C14.23 15.5602 13.9627 15.5899 13.7082 15.573C13.4621 15.5475 13.25 15.4499 13.0718 15.2802C12.953 15.1869 12.83 15.0596 12.7027 14.8984C12.5839 14.7372 12.5118 14.5717 12.4863 14.402C12.4439 14.2747 12.4185 14.1729 12.41 14.0965C12.4015 14.0202 12.4057 13.9268 12.4227 13.8165C12.4481 13.7062 12.4821 13.5365 12.5245 13.3074C12.5924 13.002 12.6518 12.7644 12.7027 12.5947C12.7536 12.4165 12.8554 12.2213 13.0082 12.0092C13.076 11.831 13.1524 11.6528 13.2373 11.4747C13.3306 11.288 13.3985 11.1692 13.4409 11.1183C13.4833 11.0589 13.547 10.9698 13.6318 10.851C13.7167 10.7322 13.8058 10.6219 13.8991 10.5201C13.9839 10.4098 14.0603 10.308 14.1282 10.2146C14.2046 10.1128 14.2427 10.0619 14.2427 10.0619C14.2852 10.0364 14.3234 10.011 14.3573 9.98552C14.3997 9.96007 14.4421 9.91764 14.4846 9.85825C14.5524 9.78188 14.6628 9.68854 14.8155 9.57824C14.9682 9.45945 15.1422 9.34066 15.3373 9.22186C15.5325 9.10307 15.7234 9.0055 15.9101 8.92913C16.0967 8.84428 16.258 8.79337 16.3937 8.7764C16.6652 8.68306 16.7925 8.6873 16.7755 8.78913C16.7755 8.78913 16.818 8.83579 16.9028 8.92913C16.9962 9.01398 17.0768 9.06489 17.1446 9.08186C17.1786 9.09035 17.204 9.12004 17.221 9.17095C17.2465 9.21338 17.2719 9.25581 17.2974 9.29823C17.3143 9.36611 17.2804 9.45945 17.1956 9.57824C17.1107 9.68854 17.0089 9.79885 16.8901 9.90916C16.7713 9.99401 16.6864 10.0407 16.6355 10.0492C16.5931 10.0576 16.5549 10.0449 16.521 10.011C16.5295 9.97704 16.5125 9.95582 16.4701 9.94734C16.4277 9.93037 16.4064 9.92188 16.4064 9.92188C16.3555 9.90491 16.258 9.92188 16.1137 9.97279C15.9779 10.0152 15.8295 10.0873 15.6682 10.1892C15.5155 10.2825 15.3755 10.397 15.2482 10.5328C15.1719 10.6007 15.104 10.6686 15.0446 10.7365C14.9852 10.8043 14.947 10.8552 14.93 10.8892C14.8197 10.9995 14.7222 11.1098 14.6373 11.2201C14.5524 11.3219 14.51 11.3728 14.51 11.3728C14.5355 11.4237 14.5949 11.4365 14.6882 11.411C14.79 11.3856 14.8452 11.3559 14.8537 11.3219C14.8537 11.288 14.947 11.2456 15.1337 11.1946C15.3288 11.1353 15.524 11.0971 15.7191 11.0801C15.7955 11.0462 15.8973 11.0419 16.0246 11.0674C16.1604 11.0928 16.2707 11.114 16.3555 11.131C16.5422 11.1649 16.6695 11.1989 16.7374 11.2328C16.8052 11.2668 16.8901 11.3474 16.9919 11.4747C17.1616 11.6359 17.2762 11.8098 17.3356 11.9965C17.4034 12.1832 17.4331 12.3868 17.4247 12.6074C17.4247 12.7432 17.4119 12.862 17.3865 12.9638C17.361 13.0656 17.3016 13.1717 17.2083 13.282C17.1404 13.3923 17.0513 13.5323 16.941 13.702C16.8307 13.8632 16.7204 14.0117 16.6101 14.1475C16.5083 14.2832 16.4192 14.3766 16.3428 14.4275C16.3089 14.4444 16.2749 14.4656 16.241 14.4911C16.2155 14.5081 16.2028 14.5166 16.2028 14.5166C16.1943 14.5675 16.1264 14.6396 15.9992 14.7329C15.8804 14.8178 15.7276 14.9154 15.541 15.0257C15.3628 15.1275 15.1803 15.2208 14.9937 15.3057C14.807 15.3905 14.6458 15.4499 14.51 15.4839ZM13.7464 14.5038C13.8821 14.5208 13.9839 14.5335 14.0518 14.542C14.1197 14.542 14.247 14.5038 14.4337 14.4275C14.5015 14.4105 14.5609 14.3935 14.6118 14.3766C14.6628 14.3596 14.7009 14.3553 14.7264 14.3638C14.7264 14.3638 14.7773 14.3299 14.8791 14.262C14.9894 14.1856 15.1125 14.105 15.2482 14.0202C15.647 13.7741 15.944 13.5068 16.1392 13.2183C16.3343 12.9214 16.4107 12.6711 16.3683 12.4674C16.3767 12.4165 16.3683 12.3613 16.3428 12.302C16.3173 12.2341 16.3046 12.1916 16.3046 12.1747C16.2876 12.1747 16.2495 12.1662 16.1901 12.1492C16.1392 12.1322 16.0755 12.1195 15.9992 12.111C15.9143 12.0856 15.8337 12.0729 15.7573 12.0729C15.681 12.0729 15.5622 12.0898 15.401 12.1238C15.2482 12.1492 15.0022 12.2044 14.6628 12.2892C14.6034 12.2977 14.5397 12.3189 14.4718 12.3529C14.4124 12.3783 14.3488 12.3995 14.2809 12.4165C14.264 12.442 14.2215 12.4717 14.1537 12.5056C14.0858 12.5395 14.0306 12.565 13.9882 12.582C13.9033 12.5904 13.8312 12.6583 13.7718 12.7856C13.7124 12.9129 13.6403 13.1632 13.5555 13.5365C13.513 13.7996 13.4833 13.9735 13.4664 14.0584C13.4579 14.1432 13.4706 14.2153 13.5045 14.2747C13.5215 14.3596 13.5512 14.4147 13.5936 14.4402C13.6361 14.4656 13.687 14.4869 13.7464 14.5038Z" fill="white"/>
</svg>
