<svg width="24" height="24" viewBox="0 0 24 24" fill="none" xmlns="http://www.w3.org/2000/svg">
<rect width="24" height="24" rx="12" fill="#3B7EE6"/>
<path d="M8.7292 15.6493C8.6698 15.6493 8.55949 15.6281 8.39828 15.5857C8.24555 15.5433 8.08433 15.4923 7.91463 15.4329C7.75341 15.3651 7.62613 15.2929 7.5328 15.2166C7.24431 14.9705 7.03642 14.699 6.90914 14.402C6.78187 14.0965 6.7055 13.7868 6.68005 13.4729C6.66308 13.1589 6.6758 12.862 6.71823 12.582C6.81157 12.0389 7.00672 11.5001 7.3037 10.9655C7.60068 10.4225 7.95705 9.97279 8.37282 9.61642C8.59343 9.42126 8.81405 9.25581 9.03466 9.12004C9.25527 8.98428 9.49285 8.8867 9.74741 8.82731C9.84074 8.80185 9.97226 8.78913 10.142 8.78913C10.3201 8.78064 10.4389 8.7764 10.4983 8.7764C10.668 8.7764 10.8547 8.81458 11.0584 8.89095C11.2705 8.95883 11.4529 9.04368 11.6056 9.1455C11.7584 9.23884 11.8347 9.32793 11.8347 9.41278C11.8347 9.47217 11.8305 9.53157 11.822 9.59097C11.8135 9.65036 11.7753 9.66309 11.7075 9.62915H11.5802L11.7075 10.011C11.7414 10.0789 11.7711 10.1722 11.7966 10.291C11.822 10.4013 11.8347 10.5031 11.8347 10.5964C11.8347 10.6813 11.822 10.8086 11.7966 10.9783C11.7796 11.1395 11.7499 11.3134 11.7075 11.5001C11.6735 11.6868 11.6353 11.8607 11.5929 12.0219C11.559 12.1832 11.525 12.302 11.4911 12.3783C11.4656 12.4292 11.4487 12.4801 11.4402 12.531C11.4402 12.5735 11.4402 12.6117 11.4402 12.6456C11.4062 12.7135 11.3511 12.8323 11.2747 13.002C11.1984 13.1717 11.1432 13.2905 11.1093 13.3583C11.0753 13.3923 11.0456 13.422 11.0202 13.4474C11.0032 13.4729 11.0117 13.5026 11.0456 13.5365C11.0456 13.562 11.0244 13.6214 10.982 13.7147C10.9396 13.7996 10.8929 13.8802 10.842 13.9565C10.7996 14.0329 10.7656 14.0711 10.7402 14.0711C10.7402 14.0711 10.7274 14.0753 10.702 14.0838C10.685 14.0838 10.6765 14.0965 10.6765 14.122C10.6765 14.1559 10.6171 14.245 10.4983 14.3893C10.388 14.5335 10.2565 14.682 10.1038 14.8347C10.0189 14.9196 9.88317 15.0299 9.69649 15.1657C9.50982 15.2929 9.32315 15.4075 9.13648 15.5093C8.95829 15.6026 8.82253 15.6493 8.7292 15.6493ZM8.70374 14.4275C8.79708 14.4275 8.88617 14.4147 8.97102 14.3893C9.05587 14.3553 9.12799 14.3087 9.18739 14.2493C9.34012 14.1475 9.48437 14.0117 9.62013 13.842C9.76438 13.6723 9.88317 13.4771 9.9765 13.2565C10.0698 13.1292 10.142 12.9977 10.1929 12.862C10.2523 12.7177 10.3414 12.4759 10.4602 12.1365C10.528 12.0432 10.5747 11.9286 10.6002 11.7928C10.6256 11.6571 10.6383 11.5425 10.6383 11.4492C10.6383 11.3559 10.6383 11.2286 10.6383 11.0674C10.6468 10.9062 10.668 10.7704 10.702 10.6601C10.702 10.4395 10.6977 10.3122 10.6892 10.2783C10.6808 10.2358 10.6468 10.1807 10.5874 10.1128C10.5535 10.0873 10.5068 10.0619 10.4474 10.0364C10.3965 10.011 10.3414 9.99825 10.282 9.99825C10.2226 9.99825 10.142 10.0152 10.0401 10.0492C9.9468 10.0746 9.8662 10.1086 9.79832 10.151C9.73892 10.1849 9.67104 10.1892 9.59467 10.1637C9.52679 10.1383 9.49285 10.1043 9.49285 10.0619C9.49285 9.9431 9.43346 9.95158 9.31467 10.0873C9.20436 10.2146 9.05587 10.3928 8.8692 10.6219C8.71647 10.7746 8.58495 10.9316 8.47464 11.0928C8.37282 11.2456 8.32191 11.3389 8.32191 11.3728C8.32191 11.4068 8.30918 11.4492 8.28373 11.5001C8.25827 11.551 8.23282 11.6104 8.20736 11.6783C8.16494 11.7377 8.11403 11.8353 8.05463 11.971C7.99524 12.1068 7.93584 12.2426 7.87644 12.3783C7.82553 12.5056 7.79159 12.6032 7.77462 12.6711C7.77462 12.705 7.77462 12.7983 7.77462 12.9511C7.77462 13.0953 7.77462 13.2311 7.77462 13.3583C7.77462 13.5026 7.77887 13.6087 7.78735 13.6765C7.79584 13.7444 7.80856 13.7996 7.82553 13.842C7.85099 13.8844 7.88493 13.9481 7.92735 14.0329C7.96129 14.0923 8.01221 14.1644 8.08009 14.2493C8.15645 14.3256 8.20736 14.3808 8.23282 14.4147C8.32615 14.4996 8.38555 14.5335 8.411 14.5166C8.44494 14.4911 8.54252 14.4614 8.70374 14.4275ZM13.7464 16.0184C13.6445 16.0014 13.5258 15.9293 13.39 15.802C13.2542 15.6748 13.1609 15.5517 13.11 15.4329C13.076 15.2717 13.1439 14.9917 13.3136 14.5929C13.4833 14.1856 13.7124 13.7105 14.0009 13.1674C14.1876 12.862 14.2809 12.6838 14.2809 12.6329C14.2809 12.582 14.1961 12.5565 14.0264 12.5565C13.95 12.5395 13.8439 12.5183 13.7082 12.4929C13.5809 12.4589 13.5045 12.425 13.4791 12.391C13.3433 12.3232 13.2627 12.251 13.2373 12.1747C13.2203 12.0898 13.25 12.0432 13.3264 12.0347C13.4112 11.9922 13.4367 11.9371 13.4027 11.8692C13.3773 11.7928 13.373 11.7335 13.39 11.691C13.4324 11.691 13.4664 11.6953 13.4918 11.7038C13.5173 11.7038 13.5639 11.7122 13.6318 11.7292C13.7506 11.7292 13.8609 11.7335 13.9627 11.7419C14.073 11.7504 14.1749 11.7547 14.2682 11.7547C14.3106 11.7547 14.3615 11.7547 14.4209 11.7547C14.4888 11.7547 14.5482 11.7589 14.5991 11.7674C14.7179 11.7844 14.7985 11.7759 14.8409 11.7419C14.8834 11.6995 14.964 11.6019 15.0828 11.4492C15.1506 11.3304 15.2397 11.2031 15.35 11.0674C15.4604 10.9231 15.5707 10.7449 15.681 10.5328C15.9779 10.1086 16.1434 9.82431 16.1773 9.68006C16.2113 9.53581 16.1434 9.47217 15.9737 9.48915C15.8379 9.50612 15.6852 9.54006 15.5155 9.59097C15.3543 9.63339 15.1125 9.714 14.79 9.83279C14.5524 9.92613 14.3658 9.98552 14.23 10.011C14.1027 10.0279 13.9924 10.011 13.8991 9.96007C13.8482 9.95158 13.8058 9.90067 13.7718 9.80734C13.7464 9.714 13.7294 9.61218 13.7209 9.50187C13.7209 9.38308 13.7252 9.29399 13.7336 9.23459C13.7506 9.14126 13.9246 9.03944 14.2555 8.92913C14.5864 8.81882 14.9682 8.70852 15.401 8.59821C15.5961 8.56427 15.8167 8.54306 16.0628 8.53457C16.3089 8.52609 16.5295 8.53457 16.7246 8.56003C16.9283 8.58548 17.0471 8.63215 17.081 8.70003C17.081 8.70003 17.0895 8.71276 17.1065 8.73822C17.1319 8.75519 17.1489 8.7467 17.1574 8.71276C17.1913 8.72124 17.2168 8.75518 17.2337 8.81458C17.2507 8.86549 17.2846 8.93337 17.3356 9.01822C17.4204 9.16247 17.4713 9.26853 17.4883 9.33641C17.5137 9.40429 17.5137 9.50187 17.4883 9.62915C17.4628 9.72248 17.4204 9.81582 17.361 9.90916C17.3016 10.0025 17.2549 10.0619 17.221 10.0873C17.1786 10.1213 17.1446 10.1595 17.1192 10.2019C17.1022 10.2443 17.0937 10.2655 17.0937 10.2655C17.0852 10.2995 17.0598 10.3334 17.0174 10.3674C16.9749 10.3928 16.9325 10.431 16.8901 10.4819C16.8816 10.5158 16.8604 10.554 16.8265 10.5964C16.801 10.6389 16.784 10.6728 16.7755 10.6983C16.7671 10.7068 16.7331 10.7577 16.6737 10.851C16.6143 10.9359 16.5464 11.0377 16.4701 11.1565C16.3937 11.2753 16.3216 11.3856 16.2537 11.4874C16.1858 11.5892 16.1392 11.6613 16.1137 11.7038C15.9949 11.8141 15.9355 11.8947 15.9355 11.9456C15.9355 11.9965 15.9907 12.0474 16.101 12.0983C16.2452 12.1577 16.364 12.2298 16.4574 12.3147C16.5507 12.391 16.6143 12.4886 16.6483 12.6074C16.6568 12.8026 16.6228 12.9171 16.5464 12.9511C16.504 13.0105 16.4319 13.0529 16.3301 13.0783C16.2367 13.1038 16.1773 13.0995 16.1519 13.0656C16.1264 13.0147 16.067 12.968 15.9737 12.9256C15.8889 12.8747 15.804 12.8365 15.7191 12.8111C15.6343 12.7856 15.5791 12.7729 15.5537 12.7729C15.5197 12.7898 15.4858 12.8238 15.4519 12.8747C15.4179 12.9171 15.3797 12.9638 15.3373 13.0147C15.2779 13.0995 15.2016 13.2311 15.1082 13.4093C15.0149 13.579 14.9216 13.7487 14.8282 13.9184C14.7349 14.0796 14.6628 14.2026 14.6118 14.2875C14.6034 14.3299 14.5779 14.3723 14.5355 14.4147C14.5015 14.4572 14.4761 14.5081 14.4591 14.5675C14.4252 14.6269 14.3955 14.716 14.37 14.8347C14.3446 14.9451 14.3318 15.0469 14.3318 15.1402C14.3318 15.2251 14.3446 15.2717 14.37 15.2802C14.4379 15.2632 14.4846 15.2717 14.51 15.3057C14.544 15.3311 14.5694 15.3778 14.5864 15.4457C14.6288 15.5051 14.5949 15.5857 14.4846 15.6875C14.3827 15.7808 14.2555 15.8614 14.1027 15.9293C13.9585 16.0057 13.8397 16.0354 13.7464 16.0184Z" fill="white"/>
</svg>
