<svg width="24" height="24" viewBox="0 0 24 24" fill="none" xmlns="http://www.w3.org/2000/svg">
<rect width="24" height="24" rx="12" fill="#3B7EE6"/>
<path d="M8.7292 15.6493C8.6698 15.6493 8.55949 15.6281 8.39828 15.5857C8.24555 15.5433 8.08433 15.4923 7.91463 15.4329C7.75341 15.3651 7.62613 15.2929 7.5328 15.2166C7.24431 14.9705 7.03642 14.699 6.90914 14.402C6.78187 14.0965 6.7055 13.7868 6.68005 13.4729C6.66308 13.1589 6.6758 12.862 6.71823 12.582C6.81157 12.0389 7.00672 11.5001 7.3037 10.9655C7.60068 10.4225 7.95705 9.97279 8.37282 9.61642C8.59343 9.42126 8.81405 9.25581 9.03466 9.12004C9.25527 8.98428 9.49285 8.8867 9.74741 8.82731C9.84074 8.80185 9.97226 8.78913 10.142 8.78913C10.3201 8.78064 10.4389 8.7764 10.4983 8.7764C10.668 8.7764 10.8547 8.81458 11.0584 8.89095C11.2705 8.95883 11.4529 9.04368 11.6056 9.1455C11.7584 9.23884 11.8347 9.32793 11.8347 9.41278C11.8347 9.47217 11.8305 9.53157 11.822 9.59097C11.8135 9.65036 11.7753 9.66309 11.7075 9.62915H11.5802L11.7075 10.011C11.7414 10.0789 11.7711 10.1722 11.7966 10.291C11.822 10.4013 11.8347 10.5031 11.8347 10.5964C11.8347 10.6813 11.822 10.8086 11.7966 10.9783C11.7796 11.1395 11.7499 11.3134 11.7075 11.5001C11.6735 11.6868 11.6353 11.8607 11.5929 12.0219C11.559 12.1832 11.525 12.302 11.4911 12.3783C11.4656 12.4292 11.4487 12.4801 11.4402 12.531C11.4402 12.5735 11.4402 12.6117 11.4402 12.6456C11.4062 12.7135 11.3511 12.8323 11.2747 13.002C11.1984 13.1717 11.1432 13.2905 11.1093 13.3583C11.0753 13.3923 11.0456 13.422 11.0202 13.4474C11.0032 13.4729 11.0117 13.5026 11.0456 13.5365C11.0456 13.562 11.0244 13.6214 10.982 13.7147C10.9396 13.7996 10.8929 13.8802 10.842 13.9565C10.7996 14.0329 10.7656 14.0711 10.7402 14.0711C10.7402 14.0711 10.7274 14.0753 10.702 14.0838C10.685 14.0838 10.6765 14.0965 10.6765 14.122C10.6765 14.1559 10.6171 14.245 10.4983 14.3893C10.388 14.5335 10.2565 14.682 10.1038 14.8347C10.0189 14.9196 9.88317 15.0299 9.69649 15.1657C9.50982 15.2929 9.32315 15.4075 9.13648 15.5093C8.95829 15.6026 8.82253 15.6493 8.7292 15.6493ZM8.70374 14.4275C8.79708 14.4275 8.88617 14.4147 8.97102 14.3893C9.05587 14.3553 9.12799 14.3087 9.18739 14.2493C9.34012 14.1475 9.48437 14.0117 9.62013 13.842C9.76438 13.6723 9.88317 13.4771 9.9765 13.2565C10.0698 13.1292 10.142 12.9977 10.1929 12.862C10.2523 12.7177 10.3414 12.4759 10.4602 12.1365C10.528 12.0432 10.5747 11.9286 10.6002 11.7928C10.6256 11.6571 10.6383 11.5425 10.6383 11.4492C10.6383 11.3559 10.6383 11.2286 10.6383 11.0674C10.6468 10.9062 10.668 10.7704 10.702 10.6601C10.702 10.4395 10.6977 10.3122 10.6892 10.2783C10.6808 10.2358 10.6468 10.1807 10.5874 10.1128C10.5535 10.0873 10.5068 10.0619 10.4474 10.0364C10.3965 10.011 10.3414 9.99825 10.282 9.99825C10.2226 9.99825 10.142 10.0152 10.0401 10.0492C9.9468 10.0746 9.8662 10.1086 9.79832 10.151C9.73892 10.1849 9.67104 10.1892 9.59467 10.1637C9.52679 10.1383 9.49285 10.1043 9.49285 10.0619C9.49285 9.9431 9.43346 9.95158 9.31467 10.0873C9.20436 10.2146 9.05587 10.3928 8.8692 10.6219C8.71647 10.7746 8.58495 10.9316 8.47464 11.0928C8.37282 11.2456 8.32191 11.3389 8.32191 11.3728C8.32191 11.4068 8.30918 11.4492 8.28373 11.5001C8.25827 11.551 8.23282 11.6104 8.20736 11.6783C8.16494 11.7377 8.11403 11.8353 8.05463 11.971C7.99524 12.1068 7.93584 12.2426 7.87644 12.3783C7.82553 12.5056 7.79159 12.6032 7.77462 12.6711C7.77462 12.705 7.77462 12.7983 7.77462 12.9511C7.77462 13.0953 7.77462 13.2311 7.77462 13.3583C7.77462 13.5026 7.77887 13.6087 7.78735 13.6765C7.79584 13.7444 7.80856 13.7996 7.82553 13.842C7.85099 13.8844 7.88493 13.9481 7.92735 14.0329C7.96129 14.0923 8.01221 14.1644 8.08009 14.2493C8.15645 14.3256 8.20736 14.3808 8.23282 14.4147C8.32615 14.4996 8.38555 14.5335 8.411 14.5166C8.44494 14.4911 8.54252 14.4614 8.70374 14.4275ZM13.0463 16.2857C12.987 16.2772 12.9063 16.239 12.8045 16.1711C12.7027 16.1033 12.6009 16.0269 12.4991 15.9421C12.3972 15.8657 12.3209 15.8063 12.27 15.7639C12.2106 15.6196 12.1681 15.5093 12.1427 15.4329C12.1172 15.3566 12.1172 15.2293 12.1427 15.0511C12.1427 14.9493 12.1512 14.8305 12.1681 14.6947C12.1936 14.559 12.236 14.4487 12.2954 14.3638C12.3548 14.1941 12.4481 13.9947 12.5754 13.7656C12.7112 13.5365 12.8554 13.3074 13.0082 13.0783C13.1694 12.8492 13.3179 12.6414 13.4536 12.4547C13.5979 12.2595 13.7039 12.1195 13.7718 12.0347C13.8652 11.9159 13.9076 11.8183 13.8991 11.7419C13.8991 11.6571 13.8142 11.5001 13.6445 11.271C13.6106 11.1777 13.5724 11.1098 13.53 11.0674C13.4876 11.0165 13.4833 10.991 13.5173 10.991C13.5173 10.991 13.5045 10.9783 13.4791 10.9528C13.4621 10.9189 13.4409 10.8722 13.4154 10.8128C13.2882 10.694 13.2245 10.5116 13.2245 10.2655C13.233 10.0195 13.2967 9.77764 13.4154 9.54006C13.5512 9.23459 13.7336 8.97155 13.9627 8.75094C14.1918 8.53033 14.4337 8.40305 14.6882 8.36911C14.7815 8.3776 14.9428 8.40305 15.1719 8.44548C15.4094 8.48791 15.6513 8.53457 15.8973 8.58548C16.1519 8.63639 16.3513 8.69579 16.4955 8.76367C16.5974 8.8061 16.7289 8.88246 16.8901 8.99277C17.0598 9.10307 17.2125 9.21338 17.3483 9.32369C17.484 9.43399 17.5562 9.5146 17.5647 9.56551C17.5647 9.59097 17.5774 9.62066 17.6028 9.6546C17.6368 9.68006 17.658 9.714 17.6665 9.75643C17.7174 9.84976 17.7428 9.97704 17.7428 10.1383C17.7513 10.2995 17.7428 10.4564 17.7174 10.6092C17.6919 10.7619 17.6537 10.8765 17.6028 10.9528C17.3907 11.1904 17.2422 11.3262 17.1574 11.3601C17.1149 11.394 17.064 11.4365 17.0046 11.4874C16.9537 11.5383 16.8943 11.5722 16.8265 11.5892C16.784 11.6486 16.7416 11.6995 16.6992 11.7419C16.6652 11.7844 16.6313 11.8056 16.5974 11.8056C16.5634 11.7801 16.5295 11.7674 16.4955 11.7674C16.4616 11.7589 16.4446 11.7716 16.4446 11.8056C16.4446 11.8225 16.3852 11.8607 16.2664 11.9201C16.1561 11.9795 16.0416 12.0304 15.9228 12.0729C15.804 12.1153 15.7276 12.128 15.6937 12.111C15.6937 12.111 15.681 12.111 15.6555 12.111C15.6301 12.111 15.5919 12.128 15.541 12.1619C15.4307 12.145 15.4943 12.2807 15.7319 12.5692C15.927 12.9341 16.0713 13.2862 16.1646 13.6256C16.2664 13.9565 16.2537 14.2111 16.1264 14.3893C15.9652 14.7541 15.7913 15.0554 15.6046 15.2929C15.4179 15.522 15.2694 15.6323 15.1591 15.6239C15.1591 15.6239 15.1379 15.6366 15.0955 15.662C15.0616 15.6875 15.0234 15.713 14.9809 15.7384C14.964 15.7978 14.9258 15.836 14.8664 15.853C14.8155 15.8784 14.7688 15.8869 14.7264 15.8784C14.65 15.8445 14.5185 15.8869 14.3318 16.0057C14.2215 16.0821 14.0773 16.1457 13.8991 16.1966C13.7209 16.2475 13.547 16.2815 13.3773 16.2984C13.216 16.3154 13.1057 16.3112 13.0463 16.2857ZM13.3391 15.3184C13.4239 15.3269 13.5342 15.3057 13.67 15.2548C13.8142 15.2039 13.9627 15.136 14.1155 15.0511C14.2767 14.9663 14.4209 14.8814 14.5482 14.7966C14.8197 14.5844 15.0022 14.3723 15.0955 14.1602C15.1973 13.9481 15.2058 13.7359 15.121 13.5238C15.07 13.422 15.0149 13.3117 14.9555 13.1929C14.8961 13.0741 14.8452 12.9808 14.8028 12.9129C14.7518 12.8365 14.7052 12.7814 14.6628 12.7474C14.6288 12.7135 14.5906 12.6838 14.5482 12.6583C14.5482 12.6583 14.527 12.688 14.4846 12.7474C14.4506 12.7983 14.4124 12.8705 14.37 12.9638C14.2767 13.0826 14.2215 13.1547 14.2046 13.1802C14.1876 13.2056 14.1621 13.248 14.1282 13.3074C14.0688 13.3668 14.0136 13.422 13.9627 13.4729C13.9118 13.5238 13.8736 13.562 13.8482 13.5874C13.8482 13.6129 13.8227 13.6893 13.7718 13.8165C13.7209 13.9353 13.6615 14.0541 13.5936 14.1729C13.407 14.4953 13.2882 14.7626 13.2373 14.9748C13.1948 15.1869 13.2288 15.3014 13.3391 15.3184ZM15.3119 11.1692C15.4901 11.008 15.6301 10.9146 15.7319 10.8892C15.8337 10.8637 15.9101 10.8977 15.961 10.991C15.9779 11.0249 16.0586 11.0037 16.2028 10.9274C16.3555 10.8425 16.4998 10.728 16.6355 10.5837C16.6864 10.4904 16.6992 10.4437 16.6737 10.4437C16.6568 10.4437 16.6398 10.3758 16.6228 10.2401C16.6313 10.1552 16.6313 10.0873 16.6228 10.0364C16.6143 9.98552 16.5761 9.93461 16.5083 9.8837C16.4404 9.83279 16.3173 9.7734 16.1392 9.70551C15.6131 9.51884 15.21 9.45945 14.93 9.52733C14.65 9.58672 14.4549 9.76491 14.3446 10.0619C14.2937 10.2231 14.2682 10.3546 14.2682 10.4564C14.2682 10.5583 14.3021 10.6813 14.37 10.8255C14.4464 10.8595 14.4973 10.9062 14.5228 10.9655C14.5482 11.0165 14.5609 11.0419 14.5609 11.0419C14.5609 11.1183 14.5949 11.1565 14.6628 11.1565C14.6797 11.1989 14.7391 11.2456 14.8409 11.2965C14.9428 11.3474 15.0997 11.305 15.3119 11.1692Z" fill="white"/>
</svg>
