<svg width="24" height="24" viewBox="0 0 24 24" fill="none" xmlns="http://www.w3.org/2000/svg">
<rect width="24" height="24" rx="12" fill="#3B7EE6"/>
<path d="M8.7292 15.6493C8.6698 15.6493 8.55949 15.6281 8.39828 15.5857C8.24555 15.5433 8.08433 15.4923 7.91463 15.4329C7.75341 15.3651 7.62613 15.2929 7.5328 15.2166C7.24431 14.9705 7.03642 14.699 6.90914 14.402C6.78187 14.0965 6.7055 13.7868 6.68005 13.4729C6.66308 13.1589 6.6758 12.862 6.71823 12.582C6.81157 12.0389 7.00672 11.5001 7.3037 10.9655C7.60068 10.4225 7.95705 9.97279 8.37282 9.61642C8.59343 9.42126 8.81405 9.25581 9.03466 9.12004C9.25527 8.98428 9.49285 8.8867 9.74741 8.82731C9.84074 8.80185 9.97226 8.78913 10.142 8.78913C10.3201 8.78064 10.4389 8.7764 10.4983 8.7764C10.668 8.7764 10.8547 8.81458 11.0584 8.89095C11.2705 8.95883 11.4529 9.04368 11.6056 9.1455C11.7584 9.23884 11.8347 9.32793 11.8347 9.41278C11.8347 9.47217 11.8305 9.53157 11.822 9.59097C11.8135 9.65036 11.7753 9.66309 11.7075 9.62915H11.5802L11.7075 10.011C11.7414 10.0789 11.7711 10.1722 11.7966 10.291C11.822 10.4013 11.8347 10.5031 11.8347 10.5964C11.8347 10.6813 11.822 10.8086 11.7966 10.9783C11.7796 11.1395 11.7499 11.3134 11.7075 11.5001C11.6735 11.6868 11.6353 11.8607 11.5929 12.0219C11.559 12.1832 11.525 12.302 11.4911 12.3783C11.4656 12.4292 11.4487 12.4801 11.4402 12.531C11.4402 12.5735 11.4402 12.6117 11.4402 12.6456C11.4062 12.7135 11.3511 12.8323 11.2747 13.002C11.1984 13.1717 11.1432 13.2905 11.1093 13.3583C11.0753 13.3923 11.0456 13.422 11.0202 13.4474C11.0032 13.4729 11.0117 13.5026 11.0456 13.5365C11.0456 13.562 11.0244 13.6214 10.982 13.7147C10.9396 13.7996 10.8929 13.8802 10.842 13.9565C10.7996 14.0329 10.7656 14.0711 10.7402 14.0711C10.7402 14.0711 10.7274 14.0753 10.702 14.0838C10.685 14.0838 10.6765 14.0965 10.6765 14.122C10.6765 14.1559 10.6171 14.245 10.4983 14.3893C10.388 14.5335 10.2565 14.682 10.1038 14.8347C10.0189 14.9196 9.88317 15.0299 9.69649 15.1657C9.50982 15.2929 9.32315 15.4075 9.13648 15.5093C8.95829 15.6026 8.82253 15.6493 8.7292 15.6493ZM8.70374 14.4275C8.79708 14.4275 8.88617 14.4147 8.97102 14.3893C9.05587 14.3553 9.12799 14.3087 9.18739 14.2493C9.34012 14.1475 9.48437 14.0117 9.62013 13.842C9.76438 13.6723 9.88317 13.4771 9.9765 13.2565C10.0698 13.1292 10.142 12.9977 10.1929 12.862C10.2523 12.7177 10.3414 12.4759 10.4602 12.1365C10.528 12.0432 10.5747 11.9286 10.6002 11.7928C10.6256 11.6571 10.6383 11.5425 10.6383 11.4492C10.6383 11.3559 10.6383 11.2286 10.6383 11.0674C10.6468 10.9062 10.668 10.7704 10.702 10.6601C10.702 10.4395 10.6977 10.3122 10.6892 10.2783C10.6808 10.2358 10.6468 10.1807 10.5874 10.1128C10.5535 10.0873 10.5068 10.0619 10.4474 10.0364C10.3965 10.011 10.3414 9.99825 10.282 9.99825C10.2226 9.99825 10.142 10.0152 10.0401 10.0492C9.9468 10.0746 9.8662 10.1086 9.79832 10.151C9.73892 10.1849 9.67104 10.1892 9.59467 10.1637C9.52679 10.1383 9.49285 10.1043 9.49285 10.0619C9.49285 9.9431 9.43346 9.95158 9.31467 10.0873C9.20436 10.2146 9.05587 10.3928 8.8692 10.6219C8.71647 10.7746 8.58495 10.9316 8.47464 11.0928C8.37282 11.2456 8.32191 11.3389 8.32191 11.3728C8.32191 11.4068 8.30918 11.4492 8.28373 11.5001C8.25827 11.551 8.23282 11.6104 8.20736 11.6783C8.16494 11.7377 8.11403 11.8353 8.05463 11.971C7.99524 12.1068 7.93584 12.2426 7.87644 12.3783C7.82553 12.5056 7.79159 12.6032 7.77462 12.6711C7.77462 12.705 7.77462 12.7983 7.77462 12.9511C7.77462 13.0953 7.77462 13.2311 7.77462 13.3583C7.77462 13.5026 7.77887 13.6087 7.78735 13.6765C7.79584 13.7444 7.80856 13.7996 7.82553 13.842C7.85099 13.8844 7.88493 13.9481 7.92735 14.0329C7.96129 14.0923 8.01221 14.1644 8.08009 14.2493C8.15645 14.3256 8.20736 14.3808 8.23282 14.4147C8.32615 14.4996 8.38555 14.5335 8.411 14.5166C8.44494 14.4911 8.54252 14.4614 8.70374 14.4275ZM14.7009 16.2221C14.6585 16.2136 14.5949 16.1839 14.51 16.133C14.4337 16.0905 14.3615 16.0396 14.2937 15.9802C14.2258 15.9208 14.1918 15.8827 14.1918 15.8657C14.2003 15.8233 14.1833 15.802 14.1409 15.802C14.1409 15.802 14.1324 15.7724 14.1155 15.713C14.0985 15.662 14.0943 15.6069 14.1027 15.5475C14.1027 15.522 14.107 15.4584 14.1155 15.3566C14.124 15.2548 14.1282 15.1742 14.1282 15.1148C14.1452 14.9451 14.1876 14.7202 14.2555 14.4402C14.3234 14.1602 14.404 13.8674 14.4973 13.562C14.5906 13.248 14.6797 12.968 14.7646 12.722C14.8834 12.4165 14.9343 12.2298 14.9173 12.1619C14.9088 12.0941 14.8028 12.0686 14.5991 12.0856C14.3361 12.128 14.0943 12.0856 13.8736 11.9583C13.653 11.831 13.4791 11.6528 13.3518 11.4237C13.2245 11.1862 13.1694 10.9443 13.1864 10.6983C13.1948 10.571 13.2203 10.4564 13.2627 10.3546C13.3136 10.2443 13.3942 10.0958 13.5045 9.90916C13.6827 9.64612 13.8949 9.39581 14.1409 9.15823C14.3955 8.92064 14.6585 8.717 14.93 8.5473C15.2016 8.3776 15.4476 8.27154 15.6682 8.22911C15.804 8.20365 15.9652 8.19517 16.1519 8.20365C16.3386 8.21214 16.4828 8.2376 16.5846 8.28002C16.7119 8.33093 16.8519 8.44124 17.0046 8.61094C17.1574 8.78064 17.2846 8.95883 17.3865 9.1455C17.4968 9.33217 17.5392 9.47642 17.5137 9.57824C17.4543 9.85825 17.3865 10.0704 17.3101 10.2146C17.2337 10.3589 17.1404 10.4904 17.0301 10.6092C16.8943 10.728 16.7331 10.9443 16.5464 11.2583C16.3683 11.5722 16.1858 11.9328 15.9992 12.3401C15.821 12.7389 15.664 13.1335 15.5282 13.5238C15.4094 13.8802 15.3331 14.2026 15.2991 14.4911C15.2737 14.7796 15.2907 14.9281 15.35 14.9366C15.384 14.9366 15.4434 14.9493 15.5282 14.9748C15.6131 15.0002 15.6725 15.0129 15.7064 15.0129C15.7319 15.0469 15.7446 15.0851 15.7446 15.1275C15.7446 15.1699 15.7234 15.2378 15.681 15.3311C15.6555 15.3905 15.5961 15.4711 15.5028 15.573C15.4179 15.6748 15.3161 15.7724 15.1973 15.8657C15.087 15.9675 14.9852 16.0524 14.8919 16.1202C14.7985 16.1881 14.7349 16.2221 14.7009 16.2221ZM14.3318 10.991C14.4591 11.1268 14.6118 11.1862 14.79 11.1692C14.9682 11.1437 15.1549 11.0504 15.35 10.8892C15.5452 10.728 15.7319 10.5074 15.9101 10.2273C16.0119 10.1086 16.0755 10.0152 16.101 9.94734C16.1349 9.87097 16.1689 9.82006 16.2028 9.79461C16.3131 9.67582 16.3895 9.58248 16.4319 9.5146C16.4743 9.44672 16.4658 9.38308 16.4064 9.32369C16.347 9.23035 16.2834 9.17944 16.2155 9.17095C16.1476 9.16247 16.0119 9.19641 15.8082 9.27278C15.6725 9.29823 15.5664 9.34066 15.4901 9.40005C15.4222 9.45945 15.2991 9.54854 15.121 9.66733C15.087 9.70127 15.0531 9.72248 15.0191 9.73097C14.9852 9.73097 14.9512 9.72673 14.9173 9.71824C14.9173 9.71824 14.9088 9.72248 14.8919 9.73097C14.8749 9.73097 14.8664 9.74794 14.8664 9.78188C14.9088 9.85825 14.8579 9.95582 14.7137 10.0746C14.4931 10.3122 14.353 10.5031 14.2937 10.6474C14.2343 10.7831 14.247 10.8977 14.3318 10.991Z" fill="white"/>
</svg>
