<svg width="24" height="24" viewBox="0 0 24 24" fill="none" xmlns="http://www.w3.org/2000/svg">
<rect width="24" height="24" rx="12" fill="#3B7EE6"/>
<path d="M9.62013 15.9166C9.59467 15.9336 9.53104 15.9378 9.42921 15.9293C9.33588 15.9208 9.23406 15.8954 9.12375 15.853C9.02193 15.819 8.94132 15.7766 8.88193 15.7257C8.84799 15.6917 8.81405 15.6536 8.78011 15.6111C8.74617 15.5602 8.7292 15.4754 8.7292 15.3566C8.73768 15.2378 8.76738 15.0469 8.81829 14.7838C8.85223 14.6141 8.89465 14.4359 8.94556 14.2493C8.99648 14.0626 9.04314 13.9014 9.08557 13.7656C9.12799 13.6299 9.14921 13.562 9.14921 13.562C9.19163 13.545 9.25103 13.4177 9.32739 13.1802C9.41224 12.9426 9.50558 12.6541 9.6074 12.3147C9.64134 12.1959 9.70074 11.9965 9.78559 11.7165C9.87044 11.4365 9.95529 11.1649 10.0401 10.9019C10.1165 10.6558 10.1886 10.4649 10.2565 10.3292C10.3244 10.1934 10.3583 10.1255 10.3583 10.1255C10.3583 10.1255 10.3074 10.1552 10.2056 10.2146C10.1038 10.274 9.97226 10.3546 9.81104 10.4564C9.64983 10.5583 9.48013 10.6771 9.30194 10.8128C9.15769 10.8977 8.99223 11.0165 8.80556 11.1692C8.62737 11.3134 8.46192 11.4322 8.30918 11.5256C8.08009 11.7038 7.92311 11.8183 7.83826 11.8692C7.7619 11.9201 7.68553 11.9244 7.60916 11.8819C7.49886 11.7886 7.39279 11.6528 7.29097 11.4747C7.19764 11.288 7.17642 11.1522 7.22734 11.0674C7.24431 11.0589 7.29946 11.0207 7.39279 10.9528C7.49462 10.8849 7.60916 10.8043 7.73644 10.711C7.86372 10.6177 7.97826 10.5328 8.08009 10.4564C8.19039 10.3801 8.26676 10.3292 8.30918 10.3037C8.33464 10.3037 8.38131 10.274 8.44919 10.2146C8.51707 10.1552 8.58919 10.1001 8.66556 10.0492C8.70798 9.99825 8.85647 9.8837 9.11102 9.70551C9.36558 9.52733 9.64134 9.32793 9.93832 9.10732C10.2523 8.91216 10.5323 8.75519 10.7783 8.63639C11.0244 8.5176 11.1644 8.46245 11.1984 8.47093C11.2238 8.47093 11.2832 8.50063 11.3765 8.56003C11.4784 8.61942 11.5759 8.6873 11.6693 8.76367C11.7626 8.84004 11.8135 8.90367 11.822 8.95458C11.8729 9.01398 11.8475 9.14974 11.7456 9.36187C11.7117 9.43823 11.6565 9.57824 11.5802 9.78188C11.5038 9.97704 11.419 10.2061 11.3256 10.4692C11.2408 10.7237 11.1559 10.9783 11.0711 11.2328C10.9947 11.4789 10.9311 11.691 10.8802 11.8692C10.8123 12.1322 10.7486 12.3359 10.6892 12.4801C10.6383 12.6244 10.5874 12.7644 10.5365 12.9001C10.4941 13.0274 10.4432 13.2056 10.3838 13.4347C10.3244 13.5705 10.2608 13.7444 10.1929 13.9565C10.1335 14.1602 10.0783 14.3638 10.0274 14.5675C9.9765 14.7626 9.93832 14.9238 9.91286 15.0511C9.84498 15.2378 9.78983 15.4202 9.74741 15.5984C9.70498 15.7766 9.66255 15.8827 9.62013 15.9166ZM14.4591 15.6493C14.3997 15.6493 14.2894 15.6281 14.1282 15.5857C13.9755 15.5433 13.8142 15.4923 13.6445 15.4329C13.4833 15.3651 13.3561 15.2929 13.2627 15.2166C12.9742 14.9705 12.7663 14.699 12.6391 14.402C12.5118 14.0965 12.4354 13.7868 12.41 13.4729C12.393 13.1589 12.4057 12.862 12.4481 12.582C12.5415 12.0389 12.7366 11.5001 13.0336 10.9655C13.3306 10.4225 13.687 9.97279 14.1027 9.61642C14.3234 9.42126 14.544 9.25581 14.7646 9.12004C14.9852 8.98428 15.2228 8.8867 15.4773 8.82731C15.5707 8.80185 15.7022 8.78913 15.8719 8.78913C16.0501 8.78064 16.1689 8.7764 16.2283 8.7764C16.398 8.7764 16.5846 8.81458 16.7883 8.89095C17.0004 8.95883 17.1828 9.04368 17.3356 9.1455C17.4883 9.23884 17.5647 9.32793 17.5647 9.41278C17.5647 9.47217 17.5604 9.53157 17.5519 9.59097C17.5434 9.65036 17.5053 9.66309 17.4374 9.62915H17.3101L17.4374 10.011C17.4713 10.0789 17.501 10.1722 17.5265 10.291C17.5519 10.4013 17.5647 10.5031 17.5647 10.5964C17.5647 10.6813 17.5519 10.8086 17.5265 10.9783C17.5095 11.1395 17.4798 11.3134 17.4374 11.5001C17.4034 11.6868 17.3653 11.8607 17.3228 12.0219C17.2889 12.1832 17.2549 12.302 17.221 12.3783C17.1956 12.4292 17.1786 12.4801 17.1701 12.531C17.1701 12.5735 17.1701 12.6117 17.1701 12.6456C17.1362 12.7135 17.081 12.8323 17.0046 13.002C16.9283 13.1717 16.8731 13.2905 16.8392 13.3583C16.8052 13.3923 16.7755 13.422 16.7501 13.4474C16.7331 13.4729 16.7416 13.5026 16.7755 13.5365C16.7755 13.562 16.7543 13.6214 16.7119 13.7147C16.6695 13.7996 16.6228 13.8802 16.5719 13.9565C16.5295 14.0329 16.4955 14.0711 16.4701 14.0711C16.4701 14.0711 16.4574 14.0753 16.4319 14.0838C16.4149 14.0838 16.4064 14.0965 16.4064 14.122C16.4064 14.1559 16.347 14.245 16.2283 14.3893C16.1179 14.5335 15.9864 14.682 15.8337 14.8347C15.7488 14.9196 15.6131 15.0299 15.4264 15.1657C15.2397 15.2929 15.0531 15.4075 14.8664 15.5093C14.6882 15.6026 14.5524 15.6493 14.4591 15.6493ZM14.4337 14.4275C14.527 14.4275 14.6161 14.4147 14.7009 14.3893C14.7858 14.3553 14.8579 14.3087 14.9173 14.2493C15.07 14.1475 15.2143 14.0117 15.35 13.842C15.4943 13.6723 15.6131 13.4771 15.7064 13.2565C15.7998 13.1292 15.8719 12.9977 15.9228 12.862C15.9822 12.7177 16.0713 12.4759 16.1901 12.1365C16.258 12.0432 16.3046 11.9286 16.3301 11.7928C16.3555 11.6571 16.3683 11.5425 16.3683 11.4492C16.3683 11.3559 16.3683 11.2286 16.3683 11.0674C16.3767 10.9062 16.398 10.7704 16.4319 10.6601C16.4319 10.4395 16.4277 10.3122 16.4192 10.2783C16.4107 10.2358 16.3767 10.1807 16.3173 10.1128C16.2834 10.0873 16.2367 10.0619 16.1773 10.0364C16.1264 10.011 16.0713 9.99825 16.0119 9.99825C15.9525 9.99825 15.8719 10.0152 15.7701 10.0492C15.6767 10.0746 15.5961 10.1086 15.5282 10.151C15.4688 10.1849 15.401 10.1892 15.3246 10.1637C15.2567 10.1383 15.2228 10.1043 15.2228 10.0619C15.2228 9.9431 15.1634 9.95158 15.0446 10.0873C14.9343 10.2146 14.7858 10.3928 14.5991 10.6219C14.4464 10.7746 14.3149 10.9316 14.2046 11.0928C14.1027 11.2456 14.0518 11.3389 14.0518 11.3728C14.0518 11.4068 14.0391 11.4492 14.0136 11.5001C13.9882 11.551 13.9627 11.6104 13.9373 11.6783C13.8949 11.7377 13.8439 11.8353 13.7845 11.971C13.7252 12.1068 13.6658 12.2426 13.6064 12.3783C13.5555 12.5056 13.5215 12.6032 13.5045 12.6711C13.5045 12.705 13.5045 12.7983 13.5045 12.9511C13.5045 13.0953 13.5045 13.2311 13.5045 13.3583C13.5045 13.5026 13.5088 13.6087 13.5173 13.6765C13.5258 13.7444 13.5385 13.7996 13.5555 13.842C13.5809 13.8844 13.6148 13.9481 13.6573 14.0329C13.6912 14.0923 13.7421 14.1644 13.81 14.2493C13.8864 14.3256 13.9373 14.3808 13.9627 14.4147C14.0561 14.4996 14.1155 14.5335 14.1409 14.5166C14.1749 14.4911 14.2724 14.4614 14.4337 14.4275Z" fill="white"/>
</svg>
