<svg width="24" height="24" viewBox="0 0 24 24" fill="none" xmlns="http://www.w3.org/2000/svg">
<rect width="24" height="24" rx="12" fill="#3B7EE6"/>
<path d="M9.62013 15.9166C9.59467 15.9336 9.53104 15.9378 9.42921 15.9293C9.33588 15.9208 9.23406 15.8954 9.12375 15.853C9.02193 15.819 8.94132 15.7766 8.88193 15.7257C8.84799 15.6917 8.81405 15.6536 8.78011 15.6111C8.74617 15.5602 8.7292 15.4754 8.7292 15.3566C8.73768 15.2378 8.76738 15.0469 8.81829 14.7838C8.85223 14.6141 8.89465 14.4359 8.94556 14.2493C8.99648 14.0626 9.04314 13.9014 9.08557 13.7656C9.12799 13.6299 9.14921 13.562 9.14921 13.562C9.19163 13.545 9.25103 13.4177 9.32739 13.1802C9.41224 12.9426 9.50558 12.6541 9.6074 12.3147C9.64134 12.1959 9.70074 11.9965 9.78559 11.7165C9.87044 11.4365 9.95529 11.1649 10.0401 10.9019C10.1165 10.6558 10.1886 10.4649 10.2565 10.3292C10.3244 10.1934 10.3583 10.1255 10.3583 10.1255C10.3583 10.1255 10.3074 10.1552 10.2056 10.2146C10.1038 10.274 9.97226 10.3546 9.81104 10.4564C9.64983 10.5583 9.48013 10.6771 9.30194 10.8128C9.15769 10.8977 8.99223 11.0165 8.80556 11.1692C8.62737 11.3134 8.46192 11.4322 8.30918 11.5256C8.08009 11.7038 7.92311 11.8183 7.83826 11.8692C7.7619 11.9201 7.68553 11.9244 7.60916 11.8819C7.49886 11.7886 7.39279 11.6528 7.29097 11.4747C7.19764 11.288 7.17642 11.1522 7.22734 11.0674C7.24431 11.0589 7.29946 11.0207 7.39279 10.9528C7.49462 10.8849 7.60916 10.8043 7.73644 10.711C7.86372 10.6177 7.97826 10.5328 8.08009 10.4564C8.19039 10.3801 8.26676 10.3292 8.30918 10.3037C8.33464 10.3037 8.38131 10.274 8.44919 10.2146C8.51707 10.1552 8.58919 10.1001 8.66556 10.0492C8.70798 9.99825 8.85647 9.8837 9.11102 9.70551C9.36558 9.52733 9.64134 9.32793 9.93832 9.10732C10.2523 8.91216 10.5323 8.75519 10.7783 8.63639C11.0244 8.5176 11.1644 8.46245 11.1984 8.47093C11.2238 8.47093 11.2832 8.50063 11.3765 8.56003C11.4784 8.61942 11.5759 8.6873 11.6693 8.76367C11.7626 8.84004 11.8135 8.90367 11.822 8.95458C11.8729 9.01398 11.8475 9.14974 11.7456 9.36187C11.7117 9.43823 11.6565 9.57824 11.5802 9.78188C11.5038 9.97704 11.419 10.2061 11.3256 10.4692C11.2408 10.7237 11.1559 10.9783 11.0711 11.2328C10.9947 11.4789 10.9311 11.691 10.8802 11.8692C10.8123 12.1322 10.7486 12.3359 10.6892 12.4801C10.6383 12.6244 10.5874 12.7644 10.5365 12.9001C10.4941 13.0274 10.4432 13.2056 10.3838 13.4347C10.3244 13.5705 10.2608 13.7444 10.1929 13.9565C10.1335 14.1602 10.0783 14.3638 10.0274 14.5675C9.9765 14.7626 9.93832 14.9238 9.91286 15.0511C9.84498 15.2378 9.78983 15.4202 9.74741 15.5984C9.70498 15.7766 9.66255 15.8827 9.62013 15.9166ZM15.35 15.9166C15.3246 15.9336 15.261 15.9378 15.1591 15.9293C15.0658 15.9208 14.964 15.8954 14.8537 15.853C14.7518 15.819 14.6712 15.7766 14.6118 15.7257C14.5779 15.6917 14.544 15.6536 14.51 15.6111C14.4761 15.5602 14.4591 15.4754 14.4591 15.3566C14.4676 15.2378 14.4973 15.0469 14.5482 14.7838C14.5821 14.6141 14.6246 14.4359 14.6755 14.2493C14.7264 14.0626 14.7731 13.9014 14.8155 13.7656C14.8579 13.6299 14.8791 13.562 14.8791 13.562C14.9216 13.545 14.9809 13.4177 15.0573 13.1802C15.1422 12.9426 15.2355 12.6541 15.3373 12.3147C15.3713 12.1959 15.4307 11.9965 15.5155 11.7165C15.6004 11.4365 15.6852 11.1649 15.7701 10.9019C15.8464 10.6558 15.9185 10.4649 15.9864 10.3292C16.0543 10.1934 16.0883 10.1255 16.0883 10.1255C16.0883 10.1255 16.0373 10.1552 15.9355 10.2146C15.8337 10.274 15.7022 10.3546 15.541 10.4564C15.3797 10.5583 15.21 10.6771 15.0319 10.8128C14.8876 10.8977 14.7222 11.0165 14.5355 11.1692C14.3573 11.3134 14.1918 11.4322 14.0391 11.5256C13.81 11.7038 13.653 11.8183 13.5682 11.8692C13.4918 11.9201 13.4154 11.9244 13.3391 11.8819C13.2288 11.7886 13.1227 11.6528 13.0209 11.4747C12.9276 11.288 12.9063 11.1522 12.9573 11.0674C12.9742 11.0589 13.0294 11.0207 13.1227 10.9528C13.2245 10.8849 13.3391 10.8043 13.4664 10.711C13.5936 10.6177 13.7082 10.5328 13.81 10.4564C13.9203 10.3801 13.9967 10.3292 14.0391 10.3037C14.0646 10.3037 14.1112 10.274 14.1791 10.2146C14.247 10.1552 14.3191 10.1001 14.3955 10.0492C14.4379 9.99825 14.5864 9.8837 14.8409 9.70551C15.0955 9.52733 15.3713 9.32793 15.6682 9.10732C15.9822 8.91216 16.2622 8.75519 16.5083 8.63639C16.7543 8.5176 16.8943 8.46245 16.9283 8.47093C16.9537 8.47093 17.0131 8.50063 17.1065 8.56003C17.2083 8.61942 17.3059 8.6873 17.3992 8.76367C17.4925 8.84004 17.5434 8.90367 17.5519 8.95458C17.6028 9.01398 17.5774 9.14974 17.4756 9.36187C17.4416 9.43823 17.3865 9.57824 17.3101 9.78188C17.2337 9.97704 17.1489 10.2061 17.0555 10.4692C16.9707 10.7237 16.8858 10.9783 16.801 11.2328C16.7246 11.4789 16.661 11.691 16.6101 11.8692C16.5422 12.1322 16.4786 12.3359 16.4192 12.4801C16.3683 12.6244 16.3173 12.7644 16.2664 12.9001C16.224 13.0274 16.1731 13.2056 16.1137 13.4347C16.0543 13.5705 15.9907 13.7444 15.9228 13.9565C15.8634 14.1602 15.8082 14.3638 15.7573 14.5675C15.7064 14.7626 15.6682 14.9238 15.6428 15.0511C15.5749 15.2378 15.5197 15.4202 15.4773 15.5984C15.4349 15.7766 15.3925 15.8827 15.35 15.9166Z" fill="white"/>
</svg>
