<svg width="24" height="24" viewBox="0 0 24 24" fill="none" xmlns="http://www.w3.org/2000/svg">
<rect width="24" height="24" rx="12" fill="#3B7EE6"/>
<path d="M9.62013 15.9166C9.59467 15.9336 9.53104 15.9378 9.42921 15.9293C9.33588 15.9208 9.23406 15.8954 9.12375 15.853C9.02193 15.819 8.94132 15.7766 8.88193 15.7257C8.84799 15.6917 8.81405 15.6536 8.78011 15.6111C8.74617 15.5602 8.7292 15.4754 8.7292 15.3566C8.73768 15.2378 8.76738 15.0469 8.81829 14.7838C8.85223 14.6141 8.89465 14.4359 8.94556 14.2493C8.99648 14.0626 9.04314 13.9014 9.08557 13.7656C9.12799 13.6299 9.14921 13.562 9.14921 13.562C9.19163 13.545 9.25103 13.4177 9.32739 13.1802C9.41224 12.9426 9.50558 12.6541 9.6074 12.3147C9.64134 12.1959 9.70074 11.9965 9.78559 11.7165C9.87044 11.4365 9.95529 11.1649 10.0401 10.9019C10.1165 10.6558 10.1886 10.4649 10.2565 10.3292C10.3244 10.1934 10.3583 10.1255 10.3583 10.1255C10.3583 10.1255 10.3074 10.1552 10.2056 10.2146C10.1038 10.274 9.97226 10.3546 9.81104 10.4564C9.64983 10.5583 9.48013 10.6771 9.30194 10.8128C9.15769 10.8977 8.99223 11.0165 8.80556 11.1692C8.62737 11.3134 8.46192 11.4322 8.30918 11.5256C8.08009 11.7038 7.92311 11.8183 7.83826 11.8692C7.7619 11.9201 7.68553 11.9244 7.60916 11.8819C7.49886 11.7886 7.39279 11.6528 7.29097 11.4747C7.19764 11.288 7.17642 11.1522 7.22734 11.0674C7.24431 11.0589 7.29946 11.0207 7.39279 10.9528C7.49462 10.8849 7.60916 10.8043 7.73644 10.711C7.86372 10.6177 7.97826 10.5328 8.08009 10.4564C8.19039 10.3801 8.26676 10.3292 8.30918 10.3037C8.33464 10.3037 8.38131 10.274 8.44919 10.2146C8.51707 10.1552 8.58919 10.1001 8.66556 10.0492C8.70798 9.99825 8.85647 9.8837 9.11102 9.70551C9.36558 9.52733 9.64134 9.32793 9.93832 9.10732C10.2523 8.91216 10.5323 8.75519 10.7783 8.63639C11.0244 8.5176 11.1644 8.46245 11.1984 8.47093C11.2238 8.47093 11.2832 8.50063 11.3765 8.56003C11.4784 8.61942 11.5759 8.6873 11.6693 8.76367C11.7626 8.84004 11.8135 8.90367 11.822 8.95458C11.8729 9.01398 11.8475 9.14974 11.7456 9.36187C11.7117 9.43823 11.6565 9.57824 11.5802 9.78188C11.5038 9.97704 11.419 10.2061 11.3256 10.4692C11.2408 10.7237 11.1559 10.9783 11.0711 11.2328C10.9947 11.4789 10.9311 11.691 10.8802 11.8692C10.8123 12.1322 10.7486 12.3359 10.6892 12.4801C10.6383 12.6244 10.5874 12.7644 10.5365 12.9001C10.4941 13.0274 10.4432 13.2056 10.3838 13.4347C10.3244 13.5705 10.2608 13.7444 10.1929 13.9565C10.1335 14.1602 10.0783 14.3638 10.0274 14.5675C9.9765 14.7626 9.93832 14.9238 9.91286 15.0511C9.84498 15.2378 9.78983 15.4202 9.74741 15.5984C9.70498 15.7766 9.66255 15.8827 9.62013 15.9166ZM12.7918 15.5857C12.7579 15.5687 12.6985 15.522 12.6136 15.4457C12.5372 15.3693 12.4609 15.2845 12.3845 15.1911C12.3081 15.0893 12.2572 15.0129 12.2318 14.962C12.2063 14.9196 12.2063 14.8432 12.2318 14.7329C12.2657 14.6226 12.2997 14.5675 12.3336 14.5675C12.3591 14.5844 12.393 14.5547 12.4354 14.4784C12.4778 14.402 12.5203 14.3214 12.5627 14.2366C12.6051 14.1432 12.6263 14.0881 12.6263 14.0711C12.6348 14.0372 12.656 14.0117 12.69 13.9947C12.7324 13.9693 12.7706 13.9438 12.8045 13.9184C12.8469 13.8505 12.9021 13.7826 12.97 13.7147C13.0463 13.6384 13.1057 13.5747 13.1482 13.5238C13.216 13.439 13.3391 13.3117 13.5173 13.142C13.6955 12.9723 13.8694 12.7983 14.0391 12.6201C14.2173 12.425 14.3743 12.2553 14.51 12.111C14.6458 11.9583 14.7179 11.8522 14.7264 11.7928C14.7264 11.7928 14.7391 11.7801 14.7646 11.7547C14.7985 11.7207 14.8367 11.691 14.8791 11.6656C14.9216 11.6401 14.9767 11.5977 15.0446 11.5383C15.121 11.4789 15.1846 11.4237 15.2355 11.3728C15.2525 11.305 15.2907 11.2286 15.35 11.1437C15.4179 11.0504 15.4943 10.9613 15.5791 10.8765C15.647 10.7746 15.7107 10.6643 15.7701 10.5455C15.8295 10.4183 15.8676 10.3249 15.8846 10.2655C15.9101 10.1722 15.9016 10.117 15.8592 10.1001C15.8167 10.0746 15.7022 10.0322 15.5155 9.97279C15.3119 9.90491 15.121 9.89219 14.9428 9.93461C14.7646 9.97704 14.527 10.1043 14.23 10.3164C14.1112 10.3419 14.0009 10.3758 13.8991 10.4183C13.8058 10.4607 13.7252 10.4777 13.6573 10.4692C13.6233 10.4522 13.5851 10.414 13.5427 10.3546C13.5003 10.2952 13.4536 10.2401 13.4027 10.1892L13.2754 9.64188L13.67 9.42551C14.0179 9.20489 14.3488 9.03944 14.6628 8.92913C14.9852 8.81034 15.2652 8.78913 15.5028 8.86549C15.5961 8.86549 15.681 8.87822 15.7573 8.90367C15.8337 8.92064 15.8719 8.92913 15.8719 8.92913C15.9398 8.92064 16.0373 8.95458 16.1646 9.03095C16.3004 9.10732 16.4319 9.20489 16.5592 9.32369C16.6949 9.44248 16.7883 9.56127 16.8392 9.68006C16.9749 9.8837 17.0259 10.1298 16.9919 10.4183C16.958 10.7068 16.8349 11.008 16.6228 11.3219C16.5804 11.3728 16.487 11.4789 16.3428 11.6401C16.1986 11.8013 16.0331 11.9838 15.8464 12.1874C15.6682 12.3826 15.5028 12.5565 15.35 12.7092C15.2058 12.862 15.1125 12.9595 15.07 13.002C15.0106 13.0274 14.9088 13.108 14.7646 13.2438C14.6288 13.3796 14.4803 13.5323 14.3191 13.702C14.1664 13.8632 14.0349 14.0075 13.9246 14.1347C13.8227 14.2535 13.7803 14.3129 13.7973 14.3129C13.7888 14.3469 13.8312 14.3469 13.9246 14.3129C14.0264 14.2705 14.1155 14.2366 14.1918 14.2111C14.3191 14.1687 14.4676 14.1305 14.6373 14.0965C14.8155 14.0541 14.9937 14.0202 15.1719 13.9947C15.35 13.9693 15.5028 13.9523 15.6301 13.9438C15.7658 13.9353 15.8464 13.9438 15.8719 13.9693C15.8889 14.0117 15.9016 14.0287 15.9101 14.0202C15.927 14.0032 15.9355 13.9947 15.9355 13.9947C15.9525 13.9353 16.0586 13.9184 16.2537 13.9438C16.4574 13.9693 16.6398 14.0075 16.801 14.0584C16.8943 14.0838 16.9665 14.1178 17.0174 14.1602C17.0768 14.2026 17.1065 14.2408 17.1065 14.2747C17.1065 14.2747 17.1149 14.2959 17.1319 14.3384C17.1574 14.3723 17.1956 14.419 17.2465 14.4784C17.3822 14.5887 17.3822 14.7075 17.2465 14.8347C17.1192 14.962 16.8858 14.996 16.5464 14.9366C16.3258 14.9366 16.1434 14.9493 15.9992 14.9748C15.9652 14.9917 15.8931 15.0002 15.7828 15.0002C15.6725 15.0002 15.5664 15.0045 15.4646 15.0129C15.3119 14.996 15.1591 15.0045 15.0064 15.0384C14.8537 15.0638 14.6712 15.1105 14.4591 15.1784C14.3827 15.2039 14.264 15.242 14.1027 15.2929C13.9415 15.3439 13.7676 15.3948 13.5809 15.4457C13.3942 15.4966 13.2245 15.5348 13.0718 15.5602C12.9276 15.5857 12.8342 15.5942 12.7918 15.5857Z" fill="white"/>
</svg>
