<svg width="24" height="24" viewBox="0 0 24 24" fill="none" xmlns="http://www.w3.org/2000/svg">
<rect width="24" height="24" rx="12" fill="#3B7EE6"/>
<path d="M9.62013 15.9166C9.59467 15.9336 9.53104 15.9378 9.42921 15.9293C9.33588 15.9208 9.23406 15.8954 9.12375 15.853C9.02193 15.819 8.94132 15.7766 8.88193 15.7257C8.84799 15.6917 8.81405 15.6536 8.78011 15.6111C8.74617 15.5602 8.7292 15.4754 8.7292 15.3566C8.73768 15.2378 8.76738 15.0469 8.81829 14.7838C8.85223 14.6141 8.89465 14.4359 8.94556 14.2493C8.99648 14.0626 9.04314 13.9014 9.08557 13.7656C9.12799 13.6299 9.14921 13.562 9.14921 13.562C9.19163 13.545 9.25103 13.4177 9.32739 13.1802C9.41224 12.9426 9.50558 12.6541 9.6074 12.3147C9.64134 12.1959 9.70074 11.9965 9.78559 11.7165C9.87044 11.4365 9.95529 11.1649 10.0401 10.9019C10.1165 10.6558 10.1886 10.4649 10.2565 10.3292C10.3244 10.1934 10.3583 10.1255 10.3583 10.1255C10.3583 10.1255 10.3074 10.1552 10.2056 10.2146C10.1038 10.274 9.97226 10.3546 9.81104 10.4564C9.64983 10.5583 9.48013 10.6771 9.30194 10.8128C9.15769 10.8977 8.99223 11.0165 8.80556 11.1692C8.62737 11.3134 8.46192 11.4322 8.30918 11.5256C8.08009 11.7038 7.92311 11.8183 7.83826 11.8692C7.7619 11.9201 7.68553 11.9244 7.60916 11.8819C7.49886 11.7886 7.39279 11.6528 7.29097 11.4747C7.19764 11.288 7.17642 11.1522 7.22734 11.0674C7.24431 11.0589 7.29946 11.0207 7.39279 10.9528C7.49462 10.8849 7.60916 10.8043 7.73644 10.711C7.86372 10.6177 7.97826 10.5328 8.08009 10.4564C8.19039 10.3801 8.26676 10.3292 8.30918 10.3037C8.33464 10.3037 8.38131 10.274 8.44919 10.2146C8.51707 10.1552 8.58919 10.1001 8.66556 10.0492C8.70798 9.99825 8.85647 9.8837 9.11102 9.70551C9.36558 9.52733 9.64134 9.32793 9.93832 9.10732C10.2523 8.91216 10.5323 8.75519 10.7783 8.63639C11.0244 8.5176 11.1644 8.46245 11.1984 8.47093C11.2238 8.47093 11.2832 8.50063 11.3765 8.56003C11.4784 8.61942 11.5759 8.6873 11.6693 8.76367C11.7626 8.84004 11.8135 8.90367 11.822 8.95458C11.8729 9.01398 11.8475 9.14974 11.7456 9.36187C11.7117 9.43823 11.6565 9.57824 11.5802 9.78188C11.5038 9.97704 11.419 10.2061 11.3256 10.4692C11.2408 10.7237 11.1559 10.9783 11.0711 11.2328C10.9947 11.4789 10.9311 11.691 10.8802 11.8692C10.8123 12.1322 10.7486 12.3359 10.6892 12.4801C10.6383 12.6244 10.5874 12.7644 10.5365 12.9001C10.4941 13.0274 10.4432 13.2056 10.3838 13.4347C10.3244 13.5705 10.2608 13.7444 10.1929 13.9565C10.1335 14.1602 10.0783 14.3638 10.0274 14.5675C9.9765 14.7626 9.93832 14.9238 9.91286 15.0511C9.84498 15.2378 9.78983 15.4202 9.74741 15.5984C9.70498 15.7766 9.66255 15.8827 9.62013 15.9166ZM13.8355 15.6748C13.6233 15.6748 13.4154 15.6366 13.2118 15.5602C13.0166 15.4754 12.8597 15.3778 12.7409 15.2675C12.6221 15.1572 12.5669 15.0511 12.5754 14.9493C12.5839 14.8135 12.6306 14.7075 12.7154 14.6311C12.8003 14.5547 12.936 14.5293 13.1227 14.5547C13.4112 14.6141 13.7039 14.6353 14.0009 14.6184C14.2979 14.5929 14.5737 14.5335 14.8282 14.4402C15.0913 14.3469 15.3034 14.2196 15.4646 14.0584C15.6937 13.8378 15.8125 13.6511 15.821 13.4983C15.8295 13.3371 15.7107 13.1759 15.4646 13.0147C15.3543 12.9383 15.2185 12.8662 15.0573 12.7983C14.8961 12.7304 14.7349 12.6795 14.5737 12.6456C14.4209 12.6032 14.2852 12.5862 14.1664 12.5947C14.09 12.6032 13.9967 12.5904 13.8864 12.5565C13.7761 12.5141 13.6658 12.4632 13.5555 12.4038C13.5045 12.3444 13.4579 12.2468 13.4154 12.111C13.373 11.9753 13.3433 11.8904 13.3264 11.8565C13.3179 11.8141 13.3476 11.7631 13.4154 11.7038C13.4833 11.6444 13.6191 11.5553 13.8227 11.4365C14.0264 11.3092 14.3234 11.1395 14.7137 10.9274C15.07 10.7322 15.3416 10.5837 15.5282 10.4819C15.7234 10.3716 15.8719 10.2867 15.9737 10.2273C16.084 10.1595 16.1773 10.0916 16.2537 10.0237C16.3555 9.90491 16.4022 9.81582 16.3937 9.75643C16.3852 9.69703 16.2707 9.64612 16.0501 9.60369C15.8379 9.58672 15.6682 9.58672 15.541 9.60369C15.4137 9.61218 15.35 9.63339 15.35 9.66733C15.35 9.66733 15.3458 9.66733 15.3373 9.66733C15.3373 9.66733 15.3246 9.66733 15.2991 9.66733C15.2567 9.65036 15.1634 9.6546 15.0191 9.68006C14.8749 9.70551 14.7349 9.73521 14.5991 9.76915C14.4718 9.80309 14.404 9.83279 14.3955 9.85825C14.387 9.87522 14.3276 9.90491 14.2173 9.94734C14.1155 9.98128 14.0094 10.011 13.8991 10.0364C13.7973 10.0619 13.7336 10.0746 13.7082 10.0746C13.6658 10.0576 13.6148 9.99825 13.5555 9.89643C13.5045 9.79461 13.4621 9.68854 13.4282 9.57824C13.3942 9.45945 13.3858 9.37884 13.4027 9.33641C13.4197 9.30247 13.4791 9.25156 13.5809 9.18368C13.6912 9.10732 13.8142 9.03095 13.95 8.95458C14.0858 8.86973 14.2003 8.8061 14.2937 8.76367C14.4124 8.72973 14.5864 8.70003 14.8155 8.67458C15.0531 8.64064 15.2864 8.61518 15.5155 8.59821C15.7531 8.57276 15.9228 8.56427 16.0246 8.57276C16.4149 8.61518 16.7289 8.717 16.9665 8.87822C17.204 9.03095 17.3568 9.27702 17.4247 9.61642C17.4501 9.73521 17.4501 9.85825 17.4247 9.98552C17.3992 10.1128 17.344 10.2401 17.2592 10.3674C17.1743 10.4946 17.0471 10.6346 16.8774 10.7874C16.6652 10.9231 16.4998 11.0377 16.381 11.131C16.2707 11.2159 16.1179 11.305 15.9228 11.3983C15.8634 11.4407 15.7701 11.4874 15.6428 11.5383C15.5155 11.5892 15.3967 11.6359 15.2864 11.6783C15.1761 11.7207 15.121 11.7504 15.121 11.7674C15.121 11.7674 15.1591 11.7759 15.2355 11.7928C15.3203 11.8013 15.4094 11.8183 15.5028 11.8438C15.6046 11.8607 15.6767 11.8904 15.7191 11.9328C15.9652 12.0177 16.1901 12.1662 16.3937 12.3783C16.6058 12.582 16.7543 12.7432 16.8392 12.862C16.958 13.125 16.9707 13.4135 16.8774 13.7274C16.7925 14.0329 16.6355 14.3256 16.4064 14.6057C16.1858 14.8772 15.927 15.102 15.6301 15.2802C15.3925 15.416 15.0997 15.5136 14.7518 15.573C14.4124 15.6239 14.107 15.6578 13.8355 15.6748Z" fill="white"/>
</svg>
