<svg width="24" height="24" viewBox="0 0 24 24" fill="none" xmlns="http://www.w3.org/2000/svg">
<rect width="24" height="24" rx="12" fill="#3B7EE6"/>
<path d="M9.62013 15.9166C9.59467 15.9336 9.53104 15.9378 9.42921 15.9293C9.33588 15.9208 9.23406 15.8954 9.12375 15.853C9.02193 15.819 8.94132 15.7766 8.88193 15.7257C8.84799 15.6917 8.81405 15.6536 8.78011 15.6111C8.74617 15.5602 8.7292 15.4754 8.7292 15.3566C8.73768 15.2378 8.76738 15.0469 8.81829 14.7838C8.85223 14.6141 8.89465 14.4359 8.94556 14.2493C8.99648 14.0626 9.04314 13.9014 9.08557 13.7656C9.12799 13.6299 9.14921 13.562 9.14921 13.562C9.19163 13.545 9.25103 13.4177 9.32739 13.1802C9.41224 12.9426 9.50558 12.6541 9.6074 12.3147C9.64134 12.1959 9.70074 11.9965 9.78559 11.7165C9.87044 11.4365 9.95529 11.1649 10.0401 10.9019C10.1165 10.6558 10.1886 10.4649 10.2565 10.3292C10.3244 10.1934 10.3583 10.1255 10.3583 10.1255C10.3583 10.1255 10.3074 10.1552 10.2056 10.2146C10.1038 10.274 9.97226 10.3546 9.81104 10.4564C9.64983 10.5583 9.48013 10.6771 9.30194 10.8128C9.15769 10.8977 8.99223 11.0165 8.80556 11.1692C8.62737 11.3134 8.46192 11.4322 8.30918 11.5256C8.08009 11.7038 7.92311 11.8183 7.83826 11.8692C7.7619 11.9201 7.68553 11.9244 7.60916 11.8819C7.49886 11.7886 7.39279 11.6528 7.29097 11.4747C7.19764 11.288 7.17642 11.1522 7.22734 11.0674C7.24431 11.0589 7.29946 11.0207 7.39279 10.9528C7.49462 10.8849 7.60916 10.8043 7.73644 10.711C7.86372 10.6177 7.97826 10.5328 8.08009 10.4564C8.19039 10.3801 8.26676 10.3292 8.30918 10.3037C8.33464 10.3037 8.38131 10.274 8.44919 10.2146C8.51707 10.1552 8.58919 10.1001 8.66556 10.0492C8.70798 9.99825 8.85647 9.8837 9.11102 9.70551C9.36558 9.52733 9.64134 9.32793 9.93832 9.10732C10.2523 8.91216 10.5323 8.75519 10.7783 8.63639C11.0244 8.5176 11.1644 8.46245 11.1984 8.47093C11.2238 8.47093 11.2832 8.50063 11.3765 8.56003C11.4784 8.61942 11.5759 8.6873 11.6693 8.76367C11.7626 8.84004 11.8135 8.90367 11.822 8.95458C11.8729 9.01398 11.8475 9.14974 11.7456 9.36187C11.7117 9.43823 11.6565 9.57824 11.5802 9.78188C11.5038 9.97704 11.419 10.2061 11.3256 10.4692C11.2408 10.7237 11.1559 10.9783 11.0711 11.2328C10.9947 11.4789 10.9311 11.691 10.8802 11.8692C10.8123 12.1322 10.7486 12.3359 10.6892 12.4801C10.6383 12.6244 10.5874 12.7644 10.5365 12.9001C10.4941 13.0274 10.4432 13.2056 10.3838 13.4347C10.3244 13.5705 10.2608 13.7444 10.1929 13.9565C10.1335 14.1602 10.0783 14.3638 10.0274 14.5675C9.9765 14.7626 9.93832 14.9238 9.91286 15.0511C9.84498 15.2378 9.78983 15.4202 9.74741 15.5984C9.70498 15.7766 9.66255 15.8827 9.62013 15.9166ZM14.9428 15.8402C14.9088 15.8402 14.824 15.7808 14.6882 15.662C14.5609 15.5433 14.4973 15.3651 14.4973 15.1275C14.5058 14.8644 14.5482 14.5887 14.6246 14.3002C14.7094 14.0032 14.79 13.7402 14.8664 13.5111C14.9173 13.3583 14.9597 13.2311 14.9937 13.1292C15.0361 13.0274 15.0573 12.9638 15.0573 12.9383C15.0488 12.9383 15.0022 12.9468 14.9173 12.9638C14.8409 12.9808 14.7434 13.002 14.6246 13.0274C14.2088 13.1123 13.8906 13.1547 13.67 13.1547C13.4579 13.1547 13.2754 13.0274 13.1227 12.7729C13.0718 12.722 13.0039 12.6286 12.9191 12.4929C12.8342 12.3571 12.7748 12.2086 12.7409 12.0474C12.7154 11.8862 12.7579 11.7504 12.8682 11.6401C12.953 11.428 13.0209 11.2753 13.0718 11.1819C13.1227 11.0886 13.1567 11.0207 13.1736 10.9783C13.1991 10.9359 13.2118 10.8934 13.2118 10.851C13.2203 10.834 13.233 10.8086 13.25 10.7746C13.267 10.7407 13.2882 10.7068 13.3136 10.6728C13.39 10.5455 13.4961 10.3801 13.6318 10.1764C13.7761 9.97279 13.9246 9.76915 14.0773 9.56551C14.2385 9.35338 14.3827 9.16671 14.51 9.00549C14.6373 8.83579 14.7306 8.72549 14.79 8.67458C14.8409 8.64912 14.93 8.61094 15.0573 8.56003C15.1931 8.50912 15.2907 8.48366 15.35 8.48366C15.4179 8.48366 15.4816 8.53033 15.541 8.62367C15.6088 8.70852 15.664 8.79761 15.7064 8.89095C15.7488 8.98428 15.7701 9.04792 15.7701 9.08186C15.7701 9.08186 15.7658 9.09035 15.7573 9.10732C15.7488 9.12429 15.7319 9.15398 15.7064 9.19641C15.6725 9.24732 15.6216 9.3152 15.5537 9.40005C15.4943 9.4849 15.4052 9.59521 15.2864 9.73097C15.1846 9.84976 15.0573 10.0237 14.9046 10.2528C14.7518 10.4734 14.5991 10.711 14.4464 10.9655C14.3021 11.2116 14.1791 11.4322 14.0773 11.6274C13.9755 11.8225 13.9246 11.9541 13.9246 12.0219C13.9246 12.0644 13.9373 12.0983 13.9627 12.1238C13.9967 12.1407 14.0561 12.1492 14.1409 12.1492C14.2512 12.1322 14.3488 12.1153 14.4337 12.0983C14.527 12.0813 14.6118 12.0644 14.6882 12.0474C14.7815 12.0304 14.8622 12.0135 14.93 11.9965C14.9979 11.971 15.0616 11.9498 15.121 11.9328C15.1888 11.9074 15.2482 11.8862 15.2991 11.8692C15.3585 11.8438 15.4094 11.8141 15.4519 11.7801C15.5537 11.6953 15.6301 11.5807 15.681 11.4365C15.7319 11.2922 15.8125 11.0971 15.9228 10.851C15.9907 10.6813 16.0586 10.5286 16.1264 10.3928C16.2028 10.2486 16.2707 10.117 16.3301 9.99825C16.5422 9.60794 16.7204 9.32369 16.8646 9.1455C17.0089 8.95883 17.0895 8.86549 17.1065 8.86549C17.1319 8.86549 17.1913 8.89943 17.2846 8.96731C17.378 9.03519 17.4671 9.10732 17.5519 9.18368C17.6198 9.24308 17.675 9.29823 17.7174 9.34914C17.7598 9.39157 17.781 9.42126 17.781 9.43823C17.781 9.54006 17.7556 9.64612 17.7047 9.75643C17.6622 9.85825 17.5986 9.97704 17.5137 10.1128C17.4289 10.2486 17.3313 10.4225 17.221 10.6346C17.0937 10.8807 16.9749 11.1268 16.8646 11.3728C16.7543 11.6104 16.6483 11.848 16.5464 12.0856C16.4446 12.3147 16.3513 12.5395 16.2664 12.7601C16.1816 12.9808 16.101 13.1886 16.0246 13.3838C15.8379 13.8844 15.7107 14.2535 15.6428 14.4911C15.5749 14.7287 15.541 14.8941 15.541 14.9875C15.5494 15.0723 15.5664 15.1445 15.5919 15.2039C15.5919 15.3142 15.5579 15.4202 15.4901 15.522C15.4222 15.6154 15.3373 15.6917 15.2355 15.7511C15.1337 15.8105 15.0361 15.8402 14.9428 15.8402Z" fill="white"/>
</svg>
