<svg width="24" height="24" viewBox="0 0 24 24" fill="none" xmlns="http://www.w3.org/2000/svg">
<rect width="24" height="24" rx="12" fill="#3B7EE6"/>
<path d="M9.62013 15.9166C9.59467 15.9336 9.53104 15.9378 9.42921 15.9293C9.33588 15.9208 9.23406 15.8954 9.12375 15.853C9.02193 15.819 8.94132 15.7766 8.88193 15.7257C8.84799 15.6917 8.81405 15.6536 8.78011 15.6111C8.74617 15.5602 8.7292 15.4754 8.7292 15.3566C8.73768 15.2378 8.76738 15.0469 8.81829 14.7838C8.85223 14.6141 8.89465 14.4359 8.94556 14.2493C8.99648 14.0626 9.04314 13.9014 9.08557 13.7656C9.12799 13.6299 9.14921 13.562 9.14921 13.562C9.19163 13.545 9.25103 13.4177 9.32739 13.1802C9.41224 12.9426 9.50558 12.6541 9.6074 12.3147C9.64134 12.1959 9.70074 11.9965 9.78559 11.7165C9.87044 11.4365 9.95529 11.1649 10.0401 10.9019C10.1165 10.6558 10.1886 10.4649 10.2565 10.3292C10.3244 10.1934 10.3583 10.1255 10.3583 10.1255C10.3583 10.1255 10.3074 10.1552 10.2056 10.2146C10.1038 10.274 9.97226 10.3546 9.81104 10.4564C9.64983 10.5583 9.48013 10.6771 9.30194 10.8128C9.15769 10.8977 8.99223 11.0165 8.80556 11.1692C8.62737 11.3134 8.46192 11.4322 8.30918 11.5256C8.08009 11.7038 7.92311 11.8183 7.83826 11.8692C7.7619 11.9201 7.68553 11.9244 7.60916 11.8819C7.49886 11.7886 7.39279 11.6528 7.29097 11.4747C7.19764 11.288 7.17642 11.1522 7.22734 11.0674C7.24431 11.0589 7.29946 11.0207 7.39279 10.9528C7.49462 10.8849 7.60916 10.8043 7.73644 10.711C7.86372 10.6177 7.97826 10.5328 8.08009 10.4564C8.19039 10.3801 8.26676 10.3292 8.30918 10.3037C8.33464 10.3037 8.38131 10.274 8.44919 10.2146C8.51707 10.1552 8.58919 10.1001 8.66556 10.0492C8.70798 9.99825 8.85647 9.8837 9.11102 9.70551C9.36558 9.52733 9.64134 9.32793 9.93832 9.10732C10.2523 8.91216 10.5323 8.75519 10.7783 8.63639C11.0244 8.5176 11.1644 8.46245 11.1984 8.47093C11.2238 8.47093 11.2832 8.50063 11.3765 8.56003C11.4784 8.61942 11.5759 8.6873 11.6693 8.76367C11.7626 8.84004 11.8135 8.90367 11.822 8.95458C11.8729 9.01398 11.8475 9.14974 11.7456 9.36187C11.7117 9.43823 11.6565 9.57824 11.5802 9.78188C11.5038 9.97704 11.419 10.2061 11.3256 10.4692C11.2408 10.7237 11.1559 10.9783 11.0711 11.2328C10.9947 11.4789 10.9311 11.691 10.8802 11.8692C10.8123 12.1322 10.7486 12.3359 10.6892 12.4801C10.6383 12.6244 10.5874 12.7644 10.5365 12.9001C10.4941 13.0274 10.4432 13.2056 10.3838 13.4347C10.3244 13.5705 10.2608 13.7444 10.1929 13.9565C10.1335 14.1602 10.0783 14.3638 10.0274 14.5675C9.9765 14.7626 9.93832 14.9238 9.91286 15.0511C9.84498 15.2378 9.78983 15.4202 9.74741 15.5984C9.70498 15.7766 9.66255 15.8827 9.62013 15.9166ZM12.9063 15.4839C12.7536 15.3736 12.6772 15.2802 12.6772 15.2039C12.6433 15.1529 12.6051 15.1275 12.5627 15.1275C12.5372 15.136 12.5118 15.0935 12.4863 15.0002C12.4694 14.9069 12.4524 14.8051 12.4354 14.6947C12.4269 14.5844 12.4269 14.5123 12.4354 14.4784C12.4694 14.4105 12.533 14.3596 12.6263 14.3256C12.7282 14.2917 12.8257 14.279 12.9191 14.2875C13.0209 14.2875 13.076 14.3214 13.0845 14.3893C13.1015 14.4572 13.1651 14.5123 13.2754 14.5547C13.3942 14.5972 13.547 14.6141 13.7336 14.6057C13.9712 14.5972 14.1876 14.559 14.3827 14.4911C14.5864 14.4232 14.7688 14.3256 14.93 14.1984C15.0997 14.0711 15.2525 13.9184 15.3882 13.7402C15.4476 13.6214 15.5028 13.4644 15.5537 13.2693C15.6046 13.0741 15.6385 12.9001 15.6555 12.7474C15.6725 12.5947 15.6598 12.5183 15.6173 12.5183C15.6173 12.5183 15.6088 12.4886 15.5919 12.4292C15.5834 12.3698 15.5664 12.3062 15.541 12.2383C15.4985 12.111 15.401 11.9838 15.2482 11.8565C15.0955 11.7207 14.947 11.6231 14.8028 11.5637C14.7434 11.5468 14.6203 11.5468 14.4337 11.5637C14.247 11.5807 14.09 11.5977 13.9627 11.6147C13.827 11.6231 13.7464 11.6231 13.7209 11.6147C13.7039 11.5977 13.6955 11.5892 13.6955 11.5892C13.653 11.5807 13.5809 11.5383 13.4791 11.4619C13.3858 11.3856 13.2967 11.305 13.2118 11.2201C13.1354 11.1353 13.0973 11.0716 13.0973 11.0292C13.1142 10.9698 13.1609 10.868 13.2373 10.7237C13.3136 10.5795 13.407 10.4225 13.5173 10.2528C13.6361 10.0831 13.7549 9.91764 13.8736 9.75643C13.9924 9.59521 14.1027 9.46369 14.2046 9.36187C14.4591 9.08186 14.7646 8.87398 15.121 8.73822C15.4773 8.59397 15.8295 8.53033 16.1773 8.5473C16.4234 8.55579 16.6058 8.58973 16.7246 8.64912C16.8519 8.70003 16.9665 8.79337 17.0683 8.92913C17.1362 9.04792 17.1616 9.17095 17.1446 9.29823C17.1277 9.42551 17.0852 9.52309 17.0174 9.59097C16.9495 9.65885 16.8646 9.66733 16.7628 9.61642C16.644 9.54006 16.4828 9.51036 16.2792 9.52733C16.0755 9.5443 15.8592 9.58672 15.6301 9.6546C15.4519 9.72248 15.3076 9.78188 15.1973 9.83279C15.087 9.87522 15.0106 9.9431 14.9682 10.0364C14.9343 10.0619 14.9088 10.0873 14.8919 10.1128C14.8834 10.1383 14.8622 10.1467 14.8282 10.1383C14.8282 10.1383 14.8155 10.1552 14.79 10.1892C14.7646 10.2146 14.7518 10.2443 14.7518 10.2783C14.7094 10.3292 14.6797 10.3674 14.6628 10.3928C14.6543 10.4098 14.6331 10.4013 14.5991 10.3674C14.5991 10.3674 14.5991 10.3801 14.5991 10.4055C14.5991 10.431 14.5949 10.4607 14.5864 10.4946C14.5779 10.554 14.5949 10.5964 14.6373 10.6219C14.6882 10.6389 14.7943 10.6558 14.9555 10.6728C15.1676 10.7068 15.3246 10.7407 15.4264 10.7746C15.5367 10.8001 15.6979 10.8765 15.9101 11.0037C16.1476 11.1395 16.3216 11.3431 16.4319 11.6147C16.5507 11.8777 16.6186 12.1704 16.6355 12.4929C16.661 12.8068 16.6525 13.108 16.6101 13.3965C16.5846 13.5832 16.5592 13.7274 16.5337 13.8293C16.5083 13.9311 16.4361 14.0711 16.3173 14.2493C16.1222 14.5208 15.8719 14.7626 15.5664 14.9748C15.261 15.1784 14.9385 15.3396 14.5991 15.4584C14.2597 15.5772 13.9373 15.6451 13.6318 15.662C13.3348 15.6705 13.093 15.6111 12.9063 15.4839Z" fill="white"/>
</svg>
