<svg width="24" height="24" viewBox="0 0 24 24" fill="none" xmlns="http://www.w3.org/2000/svg">
<rect width="24" height="24" rx="12" fill="#3B7EE6"/>
<path d="M9.62013 15.9166C9.59467 15.9336 9.53104 15.9378 9.42921 15.9293C9.33588 15.9208 9.23406 15.8954 9.12375 15.853C9.02193 15.819 8.94132 15.7766 8.88193 15.7257C8.84799 15.6917 8.81405 15.6536 8.78011 15.6111C8.74617 15.5602 8.7292 15.4754 8.7292 15.3566C8.73768 15.2378 8.76738 15.0469 8.81829 14.7838C8.85223 14.6141 8.89465 14.4359 8.94556 14.2493C8.99648 14.0626 9.04314 13.9014 9.08557 13.7656C9.12799 13.6299 9.14921 13.562 9.14921 13.562C9.19163 13.545 9.25103 13.4177 9.32739 13.1802C9.41224 12.9426 9.50558 12.6541 9.6074 12.3147C9.64134 12.1959 9.70074 11.9965 9.78559 11.7165C9.87044 11.4365 9.95529 11.1649 10.0401 10.9019C10.1165 10.6558 10.1886 10.4649 10.2565 10.3292C10.3244 10.1934 10.3583 10.1255 10.3583 10.1255C10.3583 10.1255 10.3074 10.1552 10.2056 10.2146C10.1038 10.274 9.97226 10.3546 9.81104 10.4564C9.64983 10.5583 9.48013 10.6771 9.30194 10.8128C9.15769 10.8977 8.99223 11.0165 8.80556 11.1692C8.62737 11.3134 8.46192 11.4322 8.30918 11.5256C8.08009 11.7038 7.92311 11.8183 7.83826 11.8692C7.7619 11.9201 7.68553 11.9244 7.60916 11.8819C7.49886 11.7886 7.39279 11.6528 7.29097 11.4747C7.19764 11.288 7.17642 11.1522 7.22734 11.0674C7.24431 11.0589 7.29946 11.0207 7.39279 10.9528C7.49462 10.8849 7.60916 10.8043 7.73644 10.711C7.86372 10.6177 7.97826 10.5328 8.08009 10.4564C8.19039 10.3801 8.26676 10.3292 8.30918 10.3037C8.33464 10.3037 8.38131 10.274 8.44919 10.2146C8.51707 10.1552 8.58919 10.1001 8.66556 10.0492C8.70798 9.99825 8.85647 9.8837 9.11102 9.70551C9.36558 9.52733 9.64134 9.32793 9.93832 9.10732C10.2523 8.91216 10.5323 8.75519 10.7783 8.63639C11.0244 8.5176 11.1644 8.46245 11.1984 8.47093C11.2238 8.47093 11.2832 8.50063 11.3765 8.56003C11.4784 8.61942 11.5759 8.6873 11.6693 8.76367C11.7626 8.84004 11.8135 8.90367 11.822 8.95458C11.8729 9.01398 11.8475 9.14974 11.7456 9.36187C11.7117 9.43823 11.6565 9.57824 11.5802 9.78188C11.5038 9.97704 11.419 10.2061 11.3256 10.4692C11.2408 10.7237 11.1559 10.9783 11.0711 11.2328C10.9947 11.4789 10.9311 11.691 10.8802 11.8692C10.8123 12.1322 10.7486 12.3359 10.6892 12.4801C10.6383 12.6244 10.5874 12.7644 10.5365 12.9001C10.4941 13.0274 10.4432 13.2056 10.3838 13.4347C10.3244 13.5705 10.2608 13.7444 10.1929 13.9565C10.1335 14.1602 10.0783 14.3638 10.0274 14.5675C9.9765 14.7626 9.93832 14.9238 9.91286 15.0511C9.84498 15.2378 9.78983 15.4202 9.74741 15.5984C9.70498 15.7766 9.66255 15.8827 9.62013 15.9166ZM14.51 15.4839C14.23 15.5602 13.9627 15.5899 13.7082 15.573C13.4621 15.5475 13.25 15.4499 13.0718 15.2802C12.953 15.1869 12.83 15.0596 12.7027 14.8984C12.5839 14.7372 12.5118 14.5717 12.4863 14.402C12.4439 14.2747 12.4185 14.1729 12.41 14.0965C12.4015 14.0202 12.4057 13.9268 12.4227 13.8165C12.4481 13.7062 12.4821 13.5365 12.5245 13.3074C12.5924 13.002 12.6518 12.7644 12.7027 12.5947C12.7536 12.4165 12.8554 12.2213 13.0082 12.0092C13.076 11.831 13.1524 11.6528 13.2373 11.4747C13.3306 11.288 13.3985 11.1692 13.4409 11.1183C13.4833 11.0589 13.547 10.9698 13.6318 10.851C13.7167 10.7322 13.8058 10.6219 13.8991 10.5201C13.9839 10.4098 14.0603 10.308 14.1282 10.2146C14.2046 10.1128 14.2427 10.0619 14.2427 10.0619C14.2852 10.0364 14.3234 10.011 14.3573 9.98552C14.3997 9.96007 14.4421 9.91764 14.4846 9.85825C14.5524 9.78188 14.6628 9.68854 14.8155 9.57824C14.9682 9.45945 15.1422 9.34066 15.3373 9.22186C15.5325 9.10307 15.7234 9.0055 15.9101 8.92913C16.0967 8.84428 16.258 8.79337 16.3937 8.7764C16.6652 8.68306 16.7925 8.6873 16.7755 8.78913C16.7755 8.78913 16.818 8.83579 16.9028 8.92913C16.9962 9.01398 17.0768 9.06489 17.1446 9.08186C17.1786 9.09035 17.204 9.12004 17.221 9.17095C17.2465 9.21338 17.2719 9.25581 17.2974 9.29823C17.3143 9.36611 17.2804 9.45945 17.1956 9.57824C17.1107 9.68854 17.0089 9.79885 16.8901 9.90916C16.7713 9.99401 16.6864 10.0407 16.6355 10.0492C16.5931 10.0576 16.5549 10.0449 16.521 10.011C16.5295 9.97704 16.5125 9.95582 16.4701 9.94734C16.4277 9.93037 16.4064 9.92188 16.4064 9.92188C16.3555 9.90491 16.258 9.92188 16.1137 9.97279C15.9779 10.0152 15.8295 10.0873 15.6682 10.1892C15.5155 10.2825 15.3755 10.397 15.2482 10.5328C15.1719 10.6007 15.104 10.6686 15.0446 10.7365C14.9852 10.8043 14.947 10.8552 14.93 10.8892C14.8197 10.9995 14.7222 11.1098 14.6373 11.2201C14.5524 11.3219 14.51 11.3728 14.51 11.3728C14.5355 11.4237 14.5949 11.4365 14.6882 11.411C14.79 11.3856 14.8452 11.3559 14.8537 11.3219C14.8537 11.288 14.947 11.2456 15.1337 11.1946C15.3288 11.1353 15.524 11.0971 15.7191 11.0801C15.7955 11.0462 15.8973 11.0419 16.0246 11.0674C16.1604 11.0928 16.2707 11.114 16.3555 11.131C16.5422 11.1649 16.6695 11.1989 16.7374 11.2328C16.8052 11.2668 16.8901 11.3474 16.9919 11.4747C17.1616 11.6359 17.2762 11.8098 17.3356 11.9965C17.4034 12.1832 17.4331 12.3868 17.4247 12.6074C17.4247 12.7432 17.4119 12.862 17.3865 12.9638C17.361 13.0656 17.3016 13.1717 17.2083 13.282C17.1404 13.3923 17.0513 13.5323 16.941 13.702C16.8307 13.8632 16.7204 14.0117 16.6101 14.1475C16.5083 14.2832 16.4192 14.3766 16.3428 14.4275C16.3089 14.4444 16.2749 14.4656 16.241 14.4911C16.2155 14.5081 16.2028 14.5166 16.2028 14.5166C16.1943 14.5675 16.1264 14.6396 15.9992 14.7329C15.8804 14.8178 15.7276 14.9154 15.541 15.0257C15.3628 15.1275 15.1803 15.2208 14.9937 15.3057C14.807 15.3905 14.6458 15.4499 14.51 15.4839ZM13.7464 14.5038C13.8821 14.5208 13.9839 14.5335 14.0518 14.542C14.1197 14.542 14.247 14.5038 14.4337 14.4275C14.5015 14.4105 14.5609 14.3935 14.6118 14.3766C14.6628 14.3596 14.7009 14.3553 14.7264 14.3638C14.7264 14.3638 14.7773 14.3299 14.8791 14.262C14.9894 14.1856 15.1125 14.105 15.2482 14.0202C15.647 13.7741 15.944 13.5068 16.1392 13.2183C16.3343 12.9214 16.4107 12.6711 16.3683 12.4674C16.3767 12.4165 16.3683 12.3613 16.3428 12.302C16.3173 12.2341 16.3046 12.1916 16.3046 12.1747C16.2876 12.1747 16.2495 12.1662 16.1901 12.1492C16.1392 12.1322 16.0755 12.1195 15.9992 12.111C15.9143 12.0856 15.8337 12.0729 15.7573 12.0729C15.681 12.0729 15.5622 12.0898 15.401 12.1238C15.2482 12.1492 15.0022 12.2044 14.6628 12.2892C14.6034 12.2977 14.5397 12.3189 14.4718 12.3529C14.4124 12.3783 14.3488 12.3995 14.2809 12.4165C14.264 12.442 14.2215 12.4717 14.1537 12.5056C14.0858 12.5395 14.0306 12.565 13.9882 12.582C13.9033 12.5904 13.8312 12.6583 13.7718 12.7856C13.7124 12.9129 13.6403 13.1632 13.5555 13.5365C13.513 13.7996 13.4833 13.9735 13.4664 14.0584C13.4579 14.1432 13.4706 14.2153 13.5045 14.2747C13.5215 14.3596 13.5512 14.4147 13.5936 14.4402C13.6361 14.4656 13.687 14.4869 13.7464 14.5038Z" fill="white"/>
</svg>
