<svg width="24" height="24" viewBox="0 0 24 24" fill="none" xmlns="http://www.w3.org/2000/svg">
<rect width="24" height="24" rx="12" fill="#3B7EE6"/>
<path d="M9.62013 15.9166C9.59467 15.9336 9.53104 15.9378 9.42921 15.9293C9.33588 15.9208 9.23406 15.8954 9.12375 15.853C9.02193 15.819 8.94132 15.7766 8.88193 15.7257C8.84799 15.6917 8.81405 15.6536 8.78011 15.6111C8.74617 15.5602 8.7292 15.4754 8.7292 15.3566C8.73768 15.2378 8.76738 15.0469 8.81829 14.7838C8.85223 14.6141 8.89465 14.4359 8.94556 14.2493C8.99648 14.0626 9.04314 13.9014 9.08557 13.7656C9.12799 13.6299 9.14921 13.562 9.14921 13.562C9.19163 13.545 9.25103 13.4177 9.32739 13.1802C9.41224 12.9426 9.50558 12.6541 9.6074 12.3147C9.64134 12.1959 9.70074 11.9965 9.78559 11.7165C9.87044 11.4365 9.95529 11.1649 10.0401 10.9019C10.1165 10.6558 10.1886 10.4649 10.2565 10.3292C10.3244 10.1934 10.3583 10.1255 10.3583 10.1255C10.3583 10.1255 10.3074 10.1552 10.2056 10.2146C10.1038 10.274 9.97226 10.3546 9.81104 10.4564C9.64983 10.5583 9.48013 10.6771 9.30194 10.8128C9.15769 10.8977 8.99223 11.0165 8.80556 11.1692C8.62737 11.3134 8.46192 11.4322 8.30918 11.5256C8.08009 11.7038 7.92311 11.8183 7.83826 11.8692C7.7619 11.9201 7.68553 11.9244 7.60916 11.8819C7.49886 11.7886 7.39279 11.6528 7.29097 11.4747C7.19764 11.288 7.17642 11.1522 7.22734 11.0674C7.24431 11.0589 7.29946 11.0207 7.39279 10.9528C7.49462 10.8849 7.60916 10.8043 7.73644 10.711C7.86372 10.6177 7.97826 10.5328 8.08009 10.4564C8.19039 10.3801 8.26676 10.3292 8.30918 10.3037C8.33464 10.3037 8.38131 10.274 8.44919 10.2146C8.51707 10.1552 8.58919 10.1001 8.66556 10.0492C8.70798 9.99825 8.85647 9.8837 9.11102 9.70551C9.36558 9.52733 9.64134 9.32793 9.93832 9.10732C10.2523 8.91216 10.5323 8.75519 10.7783 8.63639C11.0244 8.5176 11.1644 8.46245 11.1984 8.47093C11.2238 8.47093 11.2832 8.50063 11.3765 8.56003C11.4784 8.61942 11.5759 8.6873 11.6693 8.76367C11.7626 8.84004 11.8135 8.90367 11.822 8.95458C11.8729 9.01398 11.8475 9.14974 11.7456 9.36187C11.7117 9.43823 11.6565 9.57824 11.5802 9.78188C11.5038 9.97704 11.419 10.2061 11.3256 10.4692C11.2408 10.7237 11.1559 10.9783 11.0711 11.2328C10.9947 11.4789 10.9311 11.691 10.8802 11.8692C10.8123 12.1322 10.7486 12.3359 10.6892 12.4801C10.6383 12.6244 10.5874 12.7644 10.5365 12.9001C10.4941 13.0274 10.4432 13.2056 10.3838 13.4347C10.3244 13.5705 10.2608 13.7444 10.1929 13.9565C10.1335 14.1602 10.0783 14.3638 10.0274 14.5675C9.9765 14.7626 9.93832 14.9238 9.91286 15.0511C9.84498 15.2378 9.78983 15.4202 9.74741 15.5984C9.70498 15.7766 9.66255 15.8827 9.62013 15.9166ZM13.7464 16.0184C13.6445 16.0014 13.5258 15.9293 13.39 15.802C13.2542 15.6748 13.1609 15.5517 13.11 15.4329C13.076 15.2717 13.1439 14.9917 13.3136 14.5929C13.4833 14.1856 13.7124 13.7105 14.0009 13.1674C14.1876 12.862 14.2809 12.6838 14.2809 12.6329C14.2809 12.582 14.1961 12.5565 14.0264 12.5565C13.95 12.5395 13.8439 12.5183 13.7082 12.4929C13.5809 12.4589 13.5045 12.425 13.4791 12.391C13.3433 12.3232 13.2627 12.251 13.2373 12.1747C13.2203 12.0898 13.25 12.0432 13.3264 12.0347C13.4112 11.9922 13.4367 11.9371 13.4027 11.8692C13.3773 11.7928 13.373 11.7335 13.39 11.691C13.4324 11.691 13.4664 11.6953 13.4918 11.7038C13.5173 11.7038 13.5639 11.7122 13.6318 11.7292C13.7506 11.7292 13.8609 11.7335 13.9627 11.7419C14.073 11.7504 14.1749 11.7547 14.2682 11.7547C14.3106 11.7547 14.3615 11.7547 14.4209 11.7547C14.4888 11.7547 14.5482 11.7589 14.5991 11.7674C14.7179 11.7844 14.7985 11.7759 14.8409 11.7419C14.8834 11.6995 14.964 11.6019 15.0828 11.4492C15.1506 11.3304 15.2397 11.2031 15.35 11.0674C15.4604 10.9231 15.5707 10.7449 15.681 10.5328C15.9779 10.1086 16.1434 9.82431 16.1773 9.68006C16.2113 9.53581 16.1434 9.47217 15.9737 9.48915C15.8379 9.50612 15.6852 9.54006 15.5155 9.59097C15.3543 9.63339 15.1125 9.714 14.79 9.83279C14.5524 9.92613 14.3658 9.98552 14.23 10.011C14.1027 10.0279 13.9924 10.011 13.8991 9.96007C13.8482 9.95158 13.8058 9.90067 13.7718 9.80734C13.7464 9.714 13.7294 9.61218 13.7209 9.50187C13.7209 9.38308 13.7252 9.29399 13.7336 9.23459C13.7506 9.14126 13.9246 9.03944 14.2555 8.92913C14.5864 8.81882 14.9682 8.70852 15.401 8.59821C15.5961 8.56427 15.8167 8.54306 16.0628 8.53457C16.3089 8.52609 16.5295 8.53457 16.7246 8.56003C16.9283 8.58548 17.0471 8.63215 17.081 8.70003C17.081 8.70003 17.0895 8.71276 17.1065 8.73822C17.1319 8.75519 17.1489 8.7467 17.1574 8.71276C17.1913 8.72124 17.2168 8.75518 17.2337 8.81458C17.2507 8.86549 17.2846 8.93337 17.3356 9.01822C17.4204 9.16247 17.4713 9.26853 17.4883 9.33641C17.5137 9.40429 17.5137 9.50187 17.4883 9.62915C17.4628 9.72248 17.4204 9.81582 17.361 9.90916C17.3016 10.0025 17.2549 10.0619 17.221 10.0873C17.1786 10.1213 17.1446 10.1595 17.1192 10.2019C17.1022 10.2443 17.0937 10.2655 17.0937 10.2655C17.0852 10.2995 17.0598 10.3334 17.0174 10.3674C16.9749 10.3928 16.9325 10.431 16.8901 10.4819C16.8816 10.5158 16.8604 10.554 16.8265 10.5964C16.801 10.6389 16.784 10.6728 16.7755 10.6983C16.7671 10.7068 16.7331 10.7577 16.6737 10.851C16.6143 10.9359 16.5464 11.0377 16.4701 11.1565C16.3937 11.2753 16.3216 11.3856 16.2537 11.4874C16.1858 11.5892 16.1392 11.6613 16.1137 11.7038C15.9949 11.8141 15.9355 11.8947 15.9355 11.9456C15.9355 11.9965 15.9907 12.0474 16.101 12.0983C16.2452 12.1577 16.364 12.2298 16.4574 12.3147C16.5507 12.391 16.6143 12.4886 16.6483 12.6074C16.6568 12.8026 16.6228 12.9171 16.5464 12.9511C16.504 13.0105 16.4319 13.0529 16.3301 13.0783C16.2367 13.1038 16.1773 13.0995 16.1519 13.0656C16.1264 13.0147 16.067 12.968 15.9737 12.9256C15.8889 12.8747 15.804 12.8365 15.7191 12.8111C15.6343 12.7856 15.5791 12.7729 15.5537 12.7729C15.5197 12.7898 15.4858 12.8238 15.4519 12.8747C15.4179 12.9171 15.3797 12.9638 15.3373 13.0147C15.2779 13.0995 15.2016 13.2311 15.1082 13.4093C15.0149 13.579 14.9216 13.7487 14.8282 13.9184C14.7349 14.0796 14.6628 14.2026 14.6118 14.2875C14.6034 14.3299 14.5779 14.3723 14.5355 14.4147C14.5015 14.4572 14.4761 14.5081 14.4591 14.5675C14.4252 14.6269 14.3955 14.716 14.37 14.8347C14.3446 14.9451 14.3318 15.0469 14.3318 15.1402C14.3318 15.2251 14.3446 15.2717 14.37 15.2802C14.4379 15.2632 14.4846 15.2717 14.51 15.3057C14.544 15.3311 14.5694 15.3778 14.5864 15.4457C14.6288 15.5051 14.5949 15.5857 14.4846 15.6875C14.3827 15.7808 14.2555 15.8614 14.1027 15.9293C13.9585 16.0057 13.8397 16.0354 13.7464 16.0184Z" fill="white"/>
</svg>
