<svg width="19" height="19" viewBox="0 0 19 19" fill="none" xmlns="http://www.w3.org/2000/svg">
<path d="M6.10355 9.44379C6.10355 7.78701 7.44589 6.44357 9.10219 6.44357C10.7585 6.44357 12.1015 7.78701 12.1015 9.44379C12.1015 11.1006 10.7585 12.444 9.10219 12.444C7.44589 12.444 6.10355 11.1006 6.10355 9.44379ZM4.48216 9.44379C4.48216 11.9962 6.55054 14.0652 9.10219 14.0652C11.6538 14.0652 13.7222 11.9962 13.7222 9.44379C13.7222 6.89141 11.6538 4.82243 9.10219 4.82243C6.55054 4.82243 4.48216 6.89141 4.48216 9.44379ZM12.8254 4.63919C12.8253 4.85279 12.8886 5.06162 13.0072 5.23927C13.1257 5.41693 13.2943 5.55542 13.4915 5.63724C13.6888 5.71906 13.9059 5.74053 14.1153 5.69895C14.3248 5.65736 14.5172 5.55458 14.6683 5.4036C14.8193 5.25262 14.9222 5.06022 14.964 4.85074C15.0057 4.64126 14.9844 4.4241 14.9028 4.22672C14.8211 4.02935 14.6828 3.86062 14.5053 3.74188C14.3278 3.62314 14.1191 3.55971 13.9055 3.55963H13.9051C13.6189 3.55976 13.3444 3.67353 13.142 3.87595C12.9395 4.07836 12.8257 4.35287 12.8254 4.63919ZM5.46726 16.7695C4.59006 16.7296 4.11327 16.5834 3.79642 16.4599C3.37635 16.2963 3.07663 16.1015 2.76151 15.7867C2.44638 15.472 2.25132 15.1724 2.08851 14.7522C1.96499 14.4354 1.81887 13.9584 1.779 13.0809C1.73538 12.1323 1.72667 11.8473 1.72667 9.44386C1.72667 7.04045 1.7361 6.75626 1.779 5.80681C1.81895 4.92935 1.96614 4.45321 2.08851 4.13548C2.25204 3.71529 2.44682 3.41549 2.76151 3.10027C3.0762 2.78506 3.37563 2.58994 3.79642 2.42708C4.11312 2.30352 4.59006 2.15736 5.46726 2.11748C6.41565 2.07385 6.70055 2.06513 9.10219 2.06513C11.5038 2.06513 11.789 2.07457 12.7382 2.11748C13.6154 2.15744 14.0914 2.30468 14.409 2.42708C14.8291 2.58994 15.1288 2.78549 15.4439 3.10027C15.7591 3.41505 15.9534 3.71529 16.117 4.13548C16.2405 4.45228 16.3866 4.92935 16.4265 5.80681C16.4701 6.75626 16.4788 7.04045 16.4788 9.44386C16.4788 11.8473 16.4701 12.1315 16.4265 13.0809C16.3865 13.9584 16.2397 14.4353 16.117 14.7522C15.9534 15.1724 15.7586 15.4722 15.4439 15.7867C15.1293 16.1012 14.8291 16.2963 14.409 16.4599C14.0923 16.5835 13.6154 16.7296 12.7382 16.7695C11.7898 16.8132 11.5049 16.8219 9.10219 16.8219C6.69947 16.8219 6.41537 16.8132 5.46726 16.7695ZM5.39276 0.498351C4.43494 0.541983 3.78044 0.693902 3.20886 0.916381C2.6169 1.14613 2.11579 1.45436 1.61503 1.95447C1.11427 2.45458 0.806924 2.95663 0.57724 3.54876C0.354825 4.12086 0.20295 4.7752 0.159331 5.73329C0.114992 6.6929 0.104843 6.99969 0.104843 9.44379C0.104843 11.8879 0.114992 12.1947 0.159331 13.1543C0.20295 14.1125 0.354825 14.7667 0.57724 15.3388C0.806924 15.9306 1.11435 16.4332 1.61503 16.9331C2.11571 17.433 2.6169 17.7408 3.20886 17.9712C3.78152 18.1937 4.43494 18.3456 5.39276 18.3892C6.3526 18.4329 6.6588 18.4437 9.10219 18.4437C11.5456 18.4437 11.8523 18.4336 12.8116 18.3892C13.7695 18.3456 14.4236 18.1937 14.9955 17.9712C15.5871 17.7408 16.0886 17.4332 16.5893 16.9331C17.0901 16.433 17.3968 15.9306 17.6271 15.3388C17.8496 14.7667 18.0021 14.1124 18.045 13.1543C18.0887 12.194 18.0988 11.8879 18.0988 9.44379C18.0988 6.99969 18.0887 6.6929 18.045 5.73329C18.0014 4.77513 17.8496 4.1205 17.6271 3.54876C17.3968 2.95699 17.0893 2.45537 16.5893 1.95447C16.0894 1.45357 15.5871 1.14613 14.9962 0.916381C14.4236 0.693902 13.7694 0.541263 12.8123 0.498351C11.853 0.45472 11.5463 0.443848 9.10291 0.443848C6.65952 0.443848 6.3526 0.454 5.39276 0.498351Z" fill="white"/>
</svg>
