<svg width="39" height="12" viewBox="0 0 39 12" fill="none" xmlns="http://www.w3.org/2000/svg">
<path fill-rule="evenodd" clip-rule="evenodd" d="M25.5192 0.0834961C26.7413 0.0834961 27.7296 0.339413 28.3528 0.571196L27.9231 3.04471L27.6374 2.92305C27.0658 2.69143 26.3111 2.45998 25.2841 2.48444C24.0367 2.48444 23.4774 2.98376 23.4644 3.47129C23.4644 4.00751 24.141 4.36095 25.246 4.88506C27.0663 5.70149 27.9105 6.7007 27.8979 8.00467C27.8724 10.381 25.7143 11.9166 22.3993 11.9166C20.982 11.9042 19.6168 11.6233 18.8758 11.3069L19.318 8.7356L19.7339 8.91862C20.761 9.34553 21.4368 9.5279 22.6982 9.5279C23.6078 9.5279 24.583 9.17421 24.5954 8.40679C24.5954 7.90714 24.1799 7.54127 22.9577 6.98067C21.7618 6.4321 20.1629 5.51831 20.1888 3.87309C20.2023 1.64322 22.3993 0.0834961 25.5192 0.0834961ZM13.7406 11.7459H16.8999L18.8758 0.29123H15.7167L13.7406 11.7459ZM34.0076 0.29123H36.4512L39 11.7457H36.0748C36.0748 11.7457 35.7885 10.4297 35.6979 10.0275H31.6416C31.5243 10.332 30.9785 11.7457 30.9785 11.7457H27.6636L32.3563 1.24159C32.6814 0.498222 33.254 0.29123 34.0076 0.29123ZM33.8128 4.48302C33.8128 4.48302 32.8117 7.02985 32.5515 7.68788H35.1775C35.0476 7.11526 34.4493 4.37331 34.4493 4.37331L34.2285 3.38637C34.1355 3.64049 34.0011 3.98993 33.9104 4.22563L33.9062 4.23649C33.8471 4.39018 33.8076 4.49262 33.8128 4.48302ZM5.13493 0.29123H0.0520017L0 0.522684C1.23971 0.819837 2.34853 1.24814 3.32008 1.78067L6.13593 11.7338H9.47677L14.4426 0.29123H11.1019L8.00794 8.1022L7.66988 6.51809L7.66956 6.51711L6.56489 1.25411C6.38301 0.522521 5.82397 0.315365 5.13493 0.29123Z" fill="#0C31CC"/>
</svg>
