<svg width="24" height="24" viewBox="0 0 24 24" fill="none" xmlns="http://www.w3.org/2000/svg">
<rect width="24" height="24" rx="12" fill="#FFC861"/>
<path d="M8.7292 14.9618C8.6698 14.9618 8.55949 14.9406 8.39828 14.8982C8.24555 14.8558 8.08433 14.8048 7.91463 14.7454C7.75341 14.6776 7.62613 14.6054 7.5328 14.5291C7.24431 14.283 7.03642 14.0115 6.90914 13.7145C6.78187 13.409 6.7055 13.0993 6.68005 12.7854C6.66308 12.4714 6.6758 12.1745 6.71823 11.8945C6.81157 11.3514 7.00672 10.8126 7.3037 10.278C7.60068 9.735 7.95705 9.28529 8.37282 8.92892C8.59343 8.73376 8.81405 8.56831 9.03466 8.43254C9.25527 8.29678 9.49285 8.1992 9.74741 8.13981C9.84074 8.11435 9.97226 8.10163 10.142 8.10163C10.3201 8.09314 10.4389 8.0889 10.4983 8.0889C10.668 8.0889 10.8547 8.12708 11.0584 8.20345C11.2705 8.27133 11.4529 8.35618 11.6056 8.458C11.7584 8.55134 11.8347 8.64043 11.8347 8.72528C11.8347 8.78467 11.8305 8.84407 11.822 8.90347C11.8135 8.96286 11.7753 8.97559 11.7075 8.94165H11.5802L11.7075 9.32348C11.7414 9.39136 11.7711 9.48469 11.7966 9.60349C11.822 9.71379 11.8347 9.81561 11.8347 9.90895C11.8347 9.9938 11.822 10.1211 11.7966 10.2908C11.7796 10.452 11.7499 10.6259 11.7075 10.8126C11.6735 10.9993 11.6353 11.1732 11.5929 11.3344C11.559 11.4957 11.525 11.6145 11.4911 11.6908C11.4656 11.7417 11.4487 11.7926 11.4402 11.8435C11.4402 11.886 11.4402 11.9242 11.4402 11.9581C11.4062 12.026 11.3511 12.1448 11.2747 12.3145C11.1984 12.4842 11.1432 12.603 11.1093 12.6708C11.0753 12.7048 11.0456 12.7345 11.0202 12.7599C11.0032 12.7854 11.0117 12.8151 11.0456 12.849C11.0456 12.8745 11.0244 12.9339 10.982 13.0272C10.9396 13.1121 10.8929 13.1927 10.842 13.269C10.7996 13.3454 10.7656 13.3836 10.7402 13.3836C10.7402 13.3836 10.7274 13.3878 10.702 13.3963C10.685 13.3963 10.6765 13.409 10.6765 13.4345C10.6765 13.4684 10.6171 13.5575 10.4983 13.7018C10.388 13.846 10.2565 13.9945 10.1038 14.1472C10.0189 14.2321 9.88317 14.3424 9.69649 14.4782C9.50982 14.6054 9.32315 14.72 9.13648 14.8218C8.95829 14.9151 8.82253 14.9618 8.7292 14.9618ZM8.70374 13.74C8.79708 13.74 8.88617 13.7272 8.97102 13.7018C9.05587 13.6678 9.12799 13.6212 9.18739 13.5618C9.34012 13.46 9.48437 13.3242 9.62013 13.1545C9.76438 12.9848 9.88317 12.7896 9.9765 12.569C10.0698 12.4417 10.142 12.3102 10.1929 12.1745C10.2523 12.0302 10.3414 11.7884 10.4602 11.449C10.528 11.3557 10.5747 11.2411 10.6002 11.1053C10.6256 10.9696 10.6383 10.855 10.6383 10.7617C10.6383 10.6684 10.6383 10.5411 10.6383 10.3799C10.6468 10.2187 10.668 10.0829 10.702 9.97259C10.702 9.75197 10.6977 9.6247 10.6892 9.59076C10.6808 9.54833 10.6468 9.49318 10.5874 9.4253C10.5535 9.39984 10.5068 9.37439 10.4474 9.34893C10.3965 9.32348 10.3414 9.31075 10.282 9.31075C10.2226 9.31075 10.142 9.32772 10.0401 9.36166C9.9468 9.38712 9.8662 9.42106 9.79832 9.46348C9.73892 9.49742 9.67104 9.50166 9.59467 9.47621C9.52679 9.45075 9.49285 9.41681 9.49285 9.37439C9.49285 9.2556 9.43346 9.26408 9.31467 9.39984C9.20436 9.52712 9.05587 9.70531 8.8692 9.9344C8.71647 10.0871 8.58495 10.2441 8.47464 10.4053C8.37282 10.5581 8.32191 10.6514 8.32191 10.6853C8.32191 10.7193 8.30918 10.7617 8.28373 10.8126C8.25827 10.8635 8.23282 10.9229 8.20736 10.9908C8.16494 11.0502 8.11403 11.1478 8.05463 11.2835C7.99524 11.4193 7.93584 11.5551 7.87644 11.6908C7.82553 11.8181 7.79159 11.9157 7.77462 11.9836C7.77462 12.0175 7.77462 12.1108 7.77462 12.2636C7.77462 12.4078 7.77462 12.5436 7.77462 12.6708C7.77462 12.8151 7.77887 12.9212 7.78735 12.989C7.79584 13.0569 7.80856 13.1121 7.82553 13.1545C7.85099 13.1969 7.88493 13.2606 7.92735 13.3454C7.96129 13.4048 8.01221 13.4769 8.08009 13.5618C8.15645 13.6381 8.20736 13.6933 8.23282 13.7272C8.32615 13.8121 8.38555 13.846 8.411 13.8291C8.44494 13.8036 8.54252 13.7739 8.70374 13.74ZM14.51 14.7964C14.23 14.8727 13.9627 14.9024 13.7082 14.8855C13.4621 14.86 13.25 14.7624 13.0718 14.5927C12.953 14.4994 12.83 14.3721 12.7027 14.2109C12.5839 14.0497 12.5118 13.8842 12.4863 13.7145C12.4439 13.5872 12.4185 13.4854 12.41 13.409C12.4015 13.3327 12.4057 13.2393 12.4227 13.129C12.4481 13.0187 12.4821 12.849 12.5245 12.6199C12.5924 12.3145 12.6518 12.0769 12.7027 11.9072C12.7536 11.729 12.8554 11.5338 13.0082 11.3217C13.076 11.1435 13.1524 10.9653 13.2373 10.7872C13.3306 10.6005 13.3985 10.4817 13.4409 10.4308C13.4833 10.3714 13.547 10.2823 13.6318 10.1635C13.7167 10.0447 13.8058 9.9344 13.8991 9.83258C13.9839 9.72228 14.0603 9.62046 14.1282 9.52712C14.2046 9.4253 14.2427 9.37439 14.2427 9.37439C14.2852 9.34893 14.3234 9.32348 14.3573 9.29802C14.3997 9.27257 14.4421 9.23014 14.4846 9.17075C14.5524 9.09438 14.6628 9.00104 14.8155 8.89074C14.9682 8.77195 15.1422 8.65316 15.3373 8.53436C15.5325 8.41557 15.7234 8.318 15.9101 8.24163C16.0967 8.15678 16.258 8.10587 16.3937 8.0889C16.6652 7.99556 16.7925 7.9998 16.7755 8.10163C16.7755 8.10163 16.818 8.14829 16.9028 8.24163C16.9962 8.32648 17.0768 8.37739 17.1446 8.39436C17.1786 8.40285 17.204 8.43254 17.221 8.48345C17.2465 8.52588 17.2719 8.56831 17.2974 8.61073C17.3143 8.67861 17.2804 8.77195 17.1956 8.89074C17.1107 9.00104 17.0089 9.11135 16.8901 9.22166C16.7713 9.30651 16.6864 9.35318 16.6355 9.36166C16.5931 9.37015 16.5549 9.35742 16.521 9.32348C16.5295 9.28954 16.5125 9.26832 16.4701 9.25984C16.4277 9.24287 16.4064 9.23438 16.4064 9.23438C16.3555 9.21741 16.258 9.23438 16.1137 9.28529C15.9779 9.32772 15.8295 9.39984 15.6682 9.50166C15.5155 9.595 15.3755 9.70955 15.2482 9.84531C15.1719 9.91319 15.104 9.98107 15.0446 10.049C14.9852 10.1168 14.947 10.1677 14.93 10.2017C14.8197 10.312 14.7222 10.4223 14.6373 10.5326C14.5524 10.6344 14.51 10.6853 14.51 10.6853C14.5355 10.7362 14.5949 10.749 14.6882 10.7235C14.79 10.6981 14.8452 10.6684 14.8537 10.6344C14.8537 10.6005 14.947 10.5581 15.1337 10.5071C15.3288 10.4478 15.524 10.4096 15.7191 10.3926C15.7955 10.3587 15.8973 10.3544 16.0246 10.3799C16.1604 10.4053 16.2707 10.4265 16.3555 10.4435C16.5422 10.4774 16.6695 10.5114 16.7374 10.5453C16.8052 10.5793 16.8901 10.6599 16.9919 10.7872C17.1616 10.9484 17.2762 11.1223 17.3356 11.309C17.4034 11.4957 17.4331 11.6993 17.4247 11.9199C17.4247 12.0557 17.4119 12.1745 17.3865 12.2763C17.361 12.3781 17.3016 12.4842 17.2083 12.5945C17.1404 12.7048 17.0513 12.8448 16.941 13.0145C16.8307 13.1757 16.7204 13.3242 16.6101 13.46C16.5083 13.5957 16.4192 13.6891 16.3428 13.74C16.3089 13.7569 16.2749 13.7781 16.241 13.8036C16.2155 13.8206 16.2028 13.8291 16.2028 13.8291C16.1943 13.88 16.1264 13.9521 15.9992 14.0454C15.8804 14.1303 15.7276 14.2279 15.541 14.3382C15.3628 14.44 15.1803 14.5333 14.9937 14.6182C14.807 14.703 14.6458 14.7624 14.51 14.7964ZM13.7464 13.8163C13.8821 13.8333 13.9839 13.846 14.0518 13.8545C14.1197 13.8545 14.247 13.8163 14.4337 13.74C14.5015 13.723 14.5609 13.706 14.6118 13.6891C14.6628 13.6721 14.7009 13.6678 14.7264 13.6763C14.7264 13.6763 14.7773 13.6424 14.8791 13.5745C14.9894 13.4981 15.1125 13.4175 15.2482 13.3327C15.647 13.0866 15.944 12.8193 16.1392 12.5308C16.3343 12.2339 16.4107 11.9836 16.3683 11.7799C16.3767 11.729 16.3683 11.6738 16.3428 11.6145C16.3173 11.5466 16.3046 11.5041 16.3046 11.4872C16.2876 11.4872 16.2495 11.4787 16.1901 11.4617C16.1392 11.4447 16.0755 11.432 15.9992 11.4235C15.9143 11.3981 15.8337 11.3854 15.7573 11.3854C15.681 11.3854 15.5622 11.4023 15.401 11.4363C15.2482 11.4617 15.0022 11.5169 14.6628 11.6017C14.6034 11.6102 14.5397 11.6314 14.4718 11.6654C14.4124 11.6908 14.3488 11.712 14.2809 11.729C14.264 11.7545 14.2215 11.7842 14.1537 11.8181C14.0858 11.852 14.0306 11.8775 13.9882 11.8945C13.9033 11.9029 13.8312 11.9708 13.7718 12.0981C13.7124 12.2254 13.6403 12.4757 13.5555 12.849C13.513 13.1121 13.4833 13.286 13.4664 13.3709C13.4579 13.4557 13.4706 13.5278 13.5045 13.5872C13.5215 13.6721 13.5512 13.7272 13.5936 13.7527C13.6361 13.7781 13.687 13.7994 13.7464 13.8163Z" fill="black"/>
</svg>
