<svg width="24" height="24" viewBox="0 0 24 24" fill="none" xmlns="http://www.w3.org/2000/svg">
<rect width="24" height="24" rx="12" fill="#FFC861"/>
<path d="M8.7292 14.9618C8.6698 14.9618 8.55949 14.9406 8.39828 14.8982C8.24555 14.8558 8.08433 14.8048 7.91463 14.7454C7.75341 14.6776 7.62613 14.6054 7.5328 14.5291C7.24431 14.283 7.03642 14.0115 6.90914 13.7145C6.78187 13.409 6.7055 13.0993 6.68005 12.7854C6.66308 12.4714 6.6758 12.1745 6.71823 11.8945C6.81157 11.3514 7.00672 10.8126 7.3037 10.278C7.60068 9.735 7.95705 9.28529 8.37282 8.92892C8.59343 8.73376 8.81405 8.56831 9.03466 8.43254C9.25527 8.29678 9.49285 8.1992 9.74741 8.13981C9.84074 8.11435 9.97226 8.10163 10.142 8.10163C10.3201 8.09314 10.4389 8.0889 10.4983 8.0889C10.668 8.0889 10.8547 8.12708 11.0584 8.20345C11.2705 8.27133 11.4529 8.35618 11.6056 8.458C11.7584 8.55134 11.8347 8.64043 11.8347 8.72528C11.8347 8.78467 11.8305 8.84407 11.822 8.90347C11.8135 8.96286 11.7753 8.97559 11.7075 8.94165H11.5802L11.7075 9.32348C11.7414 9.39136 11.7711 9.48469 11.7966 9.60349C11.822 9.71379 11.8347 9.81561 11.8347 9.90895C11.8347 9.9938 11.822 10.1211 11.7966 10.2908C11.7796 10.452 11.7499 10.6259 11.7075 10.8126C11.6735 10.9993 11.6353 11.1732 11.5929 11.3344C11.559 11.4957 11.525 11.6145 11.4911 11.6908C11.4656 11.7417 11.4487 11.7926 11.4402 11.8435C11.4402 11.886 11.4402 11.9242 11.4402 11.9581C11.4062 12.026 11.3511 12.1448 11.2747 12.3145C11.1984 12.4842 11.1432 12.603 11.1093 12.6708C11.0753 12.7048 11.0456 12.7345 11.0202 12.7599C11.0032 12.7854 11.0117 12.8151 11.0456 12.849C11.0456 12.8745 11.0244 12.9339 10.982 13.0272C10.9396 13.1121 10.8929 13.1927 10.842 13.269C10.7996 13.3454 10.7656 13.3836 10.7402 13.3836C10.7402 13.3836 10.7274 13.3878 10.702 13.3963C10.685 13.3963 10.6765 13.409 10.6765 13.4345C10.6765 13.4684 10.6171 13.5575 10.4983 13.7018C10.388 13.846 10.2565 13.9945 10.1038 14.1472C10.0189 14.2321 9.88317 14.3424 9.69649 14.4782C9.50982 14.6054 9.32315 14.72 9.13648 14.8218C8.95829 14.9151 8.82253 14.9618 8.7292 14.9618ZM8.70374 13.74C8.79708 13.74 8.88617 13.7272 8.97102 13.7018C9.05587 13.6678 9.12799 13.6212 9.18739 13.5618C9.34012 13.46 9.48437 13.3242 9.62013 13.1545C9.76438 12.9848 9.88317 12.7896 9.9765 12.569C10.0698 12.4417 10.142 12.3102 10.1929 12.1745C10.2523 12.0302 10.3414 11.7884 10.4602 11.449C10.528 11.3557 10.5747 11.2411 10.6002 11.1053C10.6256 10.9696 10.6383 10.855 10.6383 10.7617C10.6383 10.6684 10.6383 10.5411 10.6383 10.3799C10.6468 10.2187 10.668 10.0829 10.702 9.97259C10.702 9.75197 10.6977 9.6247 10.6892 9.59076C10.6808 9.54833 10.6468 9.49318 10.5874 9.4253C10.5535 9.39984 10.5068 9.37439 10.4474 9.34893C10.3965 9.32348 10.3414 9.31075 10.282 9.31075C10.2226 9.31075 10.142 9.32772 10.0401 9.36166C9.9468 9.38712 9.8662 9.42106 9.79832 9.46348C9.73892 9.49742 9.67104 9.50166 9.59467 9.47621C9.52679 9.45075 9.49285 9.41681 9.49285 9.37439C9.49285 9.2556 9.43346 9.26408 9.31467 9.39984C9.20436 9.52712 9.05587 9.70531 8.8692 9.9344C8.71647 10.0871 8.58495 10.2441 8.47464 10.4053C8.37282 10.5581 8.32191 10.6514 8.32191 10.6853C8.32191 10.7193 8.30918 10.7617 8.28373 10.8126C8.25827 10.8635 8.23282 10.9229 8.20736 10.9908C8.16494 11.0502 8.11403 11.1478 8.05463 11.2835C7.99524 11.4193 7.93584 11.5551 7.87644 11.6908C7.82553 11.8181 7.79159 11.9157 7.77462 11.9836C7.77462 12.0175 7.77462 12.1108 7.77462 12.2636C7.77462 12.4078 7.77462 12.5436 7.77462 12.6708C7.77462 12.8151 7.77887 12.9212 7.78735 12.989C7.79584 13.0569 7.80856 13.1121 7.82553 13.1545C7.85099 13.1969 7.88493 13.2606 7.92735 13.3454C7.96129 13.4048 8.01221 13.4769 8.08009 13.5618C8.15645 13.6381 8.20736 13.6933 8.23282 13.7272C8.32615 13.8121 8.38555 13.846 8.411 13.8291C8.44494 13.8036 8.54252 13.7739 8.70374 13.74ZM15.35 15.2291C15.3246 15.2461 15.261 15.2503 15.1591 15.2418C15.0658 15.2333 14.964 15.2079 14.8537 15.1655C14.7518 15.1315 14.6712 15.0891 14.6118 15.0382C14.5779 15.0042 14.544 14.9661 14.51 14.9236C14.4761 14.8727 14.4591 14.7879 14.4591 14.6691C14.4676 14.5503 14.4973 14.3594 14.5482 14.0963C14.5821 13.9266 14.6246 13.7484 14.6755 13.5618C14.7264 13.3751 14.7731 13.2139 14.8155 13.0781C14.8579 12.9424 14.8791 12.8745 14.8791 12.8745C14.9216 12.8575 14.9809 12.7302 15.0573 12.4927C15.1422 12.2551 15.2355 11.9666 15.3373 11.6272C15.3713 11.5084 15.4307 11.309 15.5155 11.029C15.6004 10.749 15.6852 10.4774 15.7701 10.2144C15.8464 9.96834 15.9185 9.77743 15.9864 9.64167C16.0543 9.50591 16.0883 9.43803 16.0883 9.43803C16.0883 9.43803 16.0373 9.46772 15.9355 9.52712C15.8337 9.58652 15.7022 9.66712 15.541 9.76894C15.3797 9.87077 15.21 9.98956 15.0319 10.1253C14.8876 10.2102 14.7222 10.329 14.5355 10.4817C14.3573 10.6259 14.1918 10.7447 14.0391 10.8381C13.81 11.0163 13.653 11.1308 13.5682 11.1817C13.4918 11.2326 13.4154 11.2369 13.3391 11.1944C13.2288 11.1011 13.1227 10.9653 13.0209 10.7872C12.9276 10.6005 12.9063 10.4647 12.9573 10.3799C12.9742 10.3714 13.0294 10.3332 13.1227 10.2653C13.2245 10.1974 13.3391 10.1168 13.4664 10.0235C13.5936 9.93016 13.7082 9.84531 13.81 9.76894C13.9203 9.69258 13.9967 9.64167 14.0391 9.61621C14.0646 9.61621 14.1112 9.58652 14.1791 9.52712C14.247 9.46772 14.3191 9.41257 14.3955 9.36166C14.4379 9.31075 14.5864 9.1962 14.8409 9.01801C15.0955 8.83983 15.3713 8.64043 15.6682 8.41982C15.9822 8.22466 16.2622 8.06769 16.5083 7.94889C16.7543 7.8301 16.8943 7.77495 16.9283 7.78343C16.9537 7.78343 17.0131 7.81313 17.1065 7.87253C17.2083 7.93192 17.3059 7.9998 17.3992 8.07617C17.4925 8.15254 17.5434 8.21617 17.5519 8.26708C17.6028 8.32648 17.5774 8.46224 17.4756 8.67437C17.4416 8.75073 17.3865 8.89074 17.3101 9.09438C17.2337 9.28954 17.1489 9.51863 17.0555 9.78167C16.9707 10.0362 16.8858 10.2908 16.801 10.5453C16.7246 10.7914 16.661 11.0035 16.6101 11.1817C16.5422 11.4447 16.4786 11.6484 16.4192 11.7926C16.3683 11.9369 16.3173 12.0769 16.2664 12.2126C16.224 12.3399 16.1731 12.5181 16.1137 12.7472C16.0543 12.883 15.9907 13.0569 15.9228 13.269C15.8634 13.4727 15.8082 13.6763 15.7573 13.88C15.7064 14.0751 15.6682 14.2363 15.6428 14.3636C15.5749 14.5503 15.5197 14.7327 15.4773 14.9109C15.4349 15.0891 15.3925 15.1952 15.35 15.2291Z" fill="black"/>
</svg>
