<svg width="24" height="24" viewBox="0 0 24 24" fill="none" xmlns="http://www.w3.org/2000/svg">
<rect width="24" height="24" rx="12" fill="#FFC861"/>
<path d="M8.7292 14.9618C8.6698 14.9618 8.55949 14.9406 8.39828 14.8982C8.24555 14.8558 8.08433 14.8048 7.91463 14.7454C7.75341 14.6776 7.62613 14.6054 7.5328 14.5291C7.24431 14.283 7.03642 14.0115 6.90914 13.7145C6.78187 13.409 6.7055 13.0993 6.68005 12.7854C6.66308 12.4714 6.6758 12.1745 6.71823 11.8945C6.81157 11.3514 7.00672 10.8126 7.3037 10.278C7.60068 9.735 7.95705 9.28529 8.37282 8.92892C8.59343 8.73376 8.81405 8.56831 9.03466 8.43254C9.25527 8.29678 9.49285 8.1992 9.74741 8.13981C9.84074 8.11435 9.97226 8.10163 10.142 8.10163C10.3201 8.09314 10.4389 8.0889 10.4983 8.0889C10.668 8.0889 10.8547 8.12708 11.0584 8.20345C11.2705 8.27133 11.4529 8.35618 11.6056 8.458C11.7584 8.55134 11.8347 8.64043 11.8347 8.72528C11.8347 8.78467 11.8305 8.84407 11.822 8.90347C11.8135 8.96286 11.7753 8.97559 11.7075 8.94165H11.5802L11.7075 9.32348C11.7414 9.39136 11.7711 9.48469 11.7966 9.60349C11.822 9.71379 11.8347 9.81561 11.8347 9.90895C11.8347 9.9938 11.822 10.1211 11.7966 10.2908C11.7796 10.452 11.7499 10.6259 11.7075 10.8126C11.6735 10.9993 11.6353 11.1732 11.5929 11.3344C11.559 11.4957 11.525 11.6145 11.4911 11.6908C11.4656 11.7417 11.4487 11.7926 11.4402 11.8435C11.4402 11.886 11.4402 11.9242 11.4402 11.9581C11.4062 12.026 11.3511 12.1448 11.2747 12.3145C11.1984 12.4842 11.1432 12.603 11.1093 12.6708C11.0753 12.7048 11.0456 12.7345 11.0202 12.7599C11.0032 12.7854 11.0117 12.8151 11.0456 12.849C11.0456 12.8745 11.0244 12.9339 10.982 13.0272C10.9396 13.1121 10.8929 13.1927 10.842 13.269C10.7996 13.3454 10.7656 13.3836 10.7402 13.3836C10.7402 13.3836 10.7274 13.3878 10.702 13.3963C10.685 13.3963 10.6765 13.409 10.6765 13.4345C10.6765 13.4684 10.6171 13.5575 10.4983 13.7018C10.388 13.846 10.2565 13.9945 10.1038 14.1472C10.0189 14.2321 9.88317 14.3424 9.69649 14.4782C9.50982 14.6054 9.32315 14.72 9.13648 14.8218C8.95829 14.9151 8.82253 14.9618 8.7292 14.9618ZM8.70374 13.74C8.79708 13.74 8.88617 13.7272 8.97102 13.7018C9.05587 13.6678 9.12799 13.6212 9.18739 13.5618C9.34012 13.46 9.48437 13.3242 9.62013 13.1545C9.76438 12.9848 9.88317 12.7896 9.9765 12.569C10.0698 12.4417 10.142 12.3102 10.1929 12.1745C10.2523 12.0302 10.3414 11.7884 10.4602 11.449C10.528 11.3557 10.5747 11.2411 10.6002 11.1053C10.6256 10.9696 10.6383 10.855 10.6383 10.7617C10.6383 10.6684 10.6383 10.5411 10.6383 10.3799C10.6468 10.2187 10.668 10.0829 10.702 9.97259C10.702 9.75197 10.6977 9.6247 10.6892 9.59076C10.6808 9.54833 10.6468 9.49318 10.5874 9.4253C10.5535 9.39984 10.5068 9.37439 10.4474 9.34893C10.3965 9.32348 10.3414 9.31075 10.282 9.31075C10.2226 9.31075 10.142 9.32772 10.0401 9.36166C9.9468 9.38712 9.8662 9.42106 9.79832 9.46348C9.73892 9.49742 9.67104 9.50166 9.59467 9.47621C9.52679 9.45075 9.49285 9.41681 9.49285 9.37439C9.49285 9.2556 9.43346 9.26408 9.31467 9.39984C9.20436 9.52712 9.05587 9.70531 8.8692 9.9344C8.71647 10.0871 8.58495 10.2441 8.47464 10.4053C8.37282 10.5581 8.32191 10.6514 8.32191 10.6853C8.32191 10.7193 8.30918 10.7617 8.28373 10.8126C8.25827 10.8635 8.23282 10.9229 8.20736 10.9908C8.16494 11.0502 8.11403 11.1478 8.05463 11.2835C7.99524 11.4193 7.93584 11.5551 7.87644 11.6908C7.82553 11.8181 7.79159 11.9157 7.77462 11.9836C7.77462 12.0175 7.77462 12.1108 7.77462 12.2636C7.77462 12.4078 7.77462 12.5436 7.77462 12.6708C7.77462 12.8151 7.77887 12.9212 7.78735 12.989C7.79584 13.0569 7.80856 13.1121 7.82553 13.1545C7.85099 13.1969 7.88493 13.2606 7.92735 13.3454C7.96129 13.4048 8.01221 13.4769 8.08009 13.5618C8.15645 13.6381 8.20736 13.6933 8.23282 13.7272C8.32615 13.8121 8.38555 13.846 8.411 13.8291C8.44494 13.8036 8.54252 13.7739 8.70374 13.74ZM14.9428 15.1527C14.9088 15.1527 14.824 15.0933 14.6882 14.9745C14.5609 14.8558 14.4973 14.6776 14.4973 14.44C14.5058 14.1769 14.5482 13.9012 14.6246 13.6127C14.7094 13.3157 14.79 13.0527 14.8664 12.8236C14.9173 12.6708 14.9597 12.5436 14.9937 12.4417C15.0361 12.3399 15.0573 12.2763 15.0573 12.2508C15.0488 12.2508 15.0022 12.2593 14.9173 12.2763C14.8409 12.2933 14.7434 12.3145 14.6246 12.3399C14.2088 12.4248 13.8906 12.4672 13.67 12.4672C13.4579 12.4672 13.2754 12.3399 13.1227 12.0854C13.0718 12.0345 13.0039 11.9411 12.9191 11.8054C12.8342 11.6696 12.7748 11.5211 12.7409 11.3599C12.7154 11.1987 12.7579 11.0629 12.8682 10.9526C12.953 10.7405 13.0209 10.5878 13.0718 10.4944C13.1227 10.4011 13.1567 10.3332 13.1736 10.2908C13.1991 10.2484 13.2118 10.2059 13.2118 10.1635C13.2203 10.1465 13.233 10.1211 13.25 10.0871C13.267 10.0532 13.2882 10.0193 13.3136 9.98531C13.39 9.85804 13.4961 9.69258 13.6318 9.48894C13.7761 9.28529 13.9246 9.08165 14.0773 8.87801C14.2385 8.66588 14.3827 8.47921 14.51 8.31799C14.6373 8.14829 14.7306 8.03799 14.79 7.98708C14.8409 7.96162 14.93 7.92344 15.0573 7.87253C15.1931 7.82162 15.2907 7.79616 15.35 7.79616C15.4179 7.79616 15.4816 7.84283 15.541 7.93617C15.6088 8.02102 15.664 8.11011 15.7064 8.20345C15.7488 8.29678 15.7701 8.36042 15.7701 8.39436C15.7701 8.39436 15.7658 8.40285 15.7573 8.41982C15.7488 8.43679 15.7319 8.46648 15.7064 8.50891C15.6725 8.55982 15.6216 8.6277 15.5537 8.71255C15.4943 8.7974 15.4052 8.90771 15.2864 9.04347C15.1846 9.16226 15.0573 9.33621 14.9046 9.5653C14.7518 9.78591 14.5991 10.0235 14.4464 10.278C14.3021 10.5241 14.1791 10.7447 14.0773 10.9399C13.9755 11.135 13.9246 11.2666 13.9246 11.3344C13.9246 11.3769 13.9373 11.4108 13.9627 11.4363C13.9967 11.4532 14.0561 11.4617 14.1409 11.4617C14.2512 11.4447 14.3488 11.4278 14.4337 11.4108C14.527 11.3938 14.6118 11.3769 14.6882 11.3599C14.7815 11.3429 14.8622 11.326 14.93 11.309C14.9979 11.2835 15.0616 11.2623 15.121 11.2453C15.1888 11.2199 15.2482 11.1987 15.2991 11.1817C15.3585 11.1563 15.4094 11.1266 15.4519 11.0926C15.5537 11.0078 15.6301 10.8932 15.681 10.749C15.7319 10.6047 15.8125 10.4096 15.9228 10.1635C15.9907 9.9938 16.0586 9.84107 16.1264 9.70531C16.2028 9.56106 16.2707 9.42954 16.3301 9.31075C16.5422 8.92044 16.7204 8.63619 16.8646 8.458C17.0089 8.27133 17.0895 8.17799 17.1065 8.17799C17.1319 8.17799 17.1913 8.21193 17.2846 8.27981C17.378 8.34769 17.4671 8.41982 17.5519 8.49618C17.6198 8.55558 17.675 8.61073 17.7174 8.66164C17.7598 8.70407 17.781 8.73376 17.781 8.75073C17.781 8.85256 17.7556 8.95862 17.7047 9.06893C17.6622 9.17075 17.5986 9.28954 17.5137 9.4253C17.4289 9.56106 17.3313 9.735 17.221 9.94713C17.0937 10.1932 16.9749 10.4393 16.8646 10.6853C16.7543 10.9229 16.6483 11.1605 16.5464 11.3981C16.4446 11.6272 16.3513 11.852 16.2664 12.0726C16.1816 12.2933 16.101 12.5011 16.0246 12.6963C15.8379 13.1969 15.7107 13.566 15.6428 13.8036C15.5749 14.0412 15.541 14.2066 15.541 14.3C15.5494 14.3848 15.5664 14.457 15.5919 14.5164C15.5919 14.6267 15.5579 14.7327 15.4901 14.8345C15.4222 14.9279 15.3373 15.0042 15.2355 15.0636C15.1337 15.123 15.0361 15.1527 14.9428 15.1527Z" fill="black"/>
</svg>
