<svg width="24" height="24" viewBox="0 0 24 24" fill="none" xmlns="http://www.w3.org/2000/svg">
<rect width="24" height="24" rx="12" fill="#FFC861"/>
<path d="M8.7292 14.9618C8.6698 14.9618 8.55949 14.9406 8.39828 14.8982C8.24555 14.8558 8.08433 14.8048 7.91463 14.7454C7.75341 14.6776 7.62613 14.6054 7.5328 14.5291C7.24431 14.283 7.03642 14.0115 6.90914 13.7145C6.78187 13.409 6.7055 13.0993 6.68005 12.7854C6.66308 12.4714 6.6758 12.1745 6.71823 11.8945C6.81157 11.3514 7.00672 10.8126 7.3037 10.278C7.60068 9.735 7.95705 9.28529 8.37282 8.92892C8.59343 8.73376 8.81405 8.56831 9.03466 8.43254C9.25527 8.29678 9.49285 8.1992 9.74741 8.13981C9.84074 8.11435 9.97226 8.10163 10.142 8.10163C10.3201 8.09314 10.4389 8.0889 10.4983 8.0889C10.668 8.0889 10.8547 8.12708 11.0584 8.20345C11.2705 8.27133 11.4529 8.35618 11.6056 8.458C11.7584 8.55134 11.8347 8.64043 11.8347 8.72528C11.8347 8.78467 11.8305 8.84407 11.822 8.90347C11.8135 8.96286 11.7753 8.97559 11.7075 8.94165H11.5802L11.7075 9.32348C11.7414 9.39136 11.7711 9.48469 11.7966 9.60349C11.822 9.71379 11.8347 9.81561 11.8347 9.90895C11.8347 9.9938 11.822 10.1211 11.7966 10.2908C11.7796 10.452 11.7499 10.6259 11.7075 10.8126C11.6735 10.9993 11.6353 11.1732 11.5929 11.3344C11.559 11.4957 11.525 11.6145 11.4911 11.6908C11.4656 11.7417 11.4487 11.7926 11.4402 11.8435C11.4402 11.886 11.4402 11.9242 11.4402 11.9581C11.4062 12.026 11.3511 12.1448 11.2747 12.3145C11.1984 12.4842 11.1432 12.603 11.1093 12.6708C11.0753 12.7048 11.0456 12.7345 11.0202 12.7599C11.0032 12.7854 11.0117 12.8151 11.0456 12.849C11.0456 12.8745 11.0244 12.9339 10.982 13.0272C10.9396 13.1121 10.8929 13.1927 10.842 13.269C10.7996 13.3454 10.7656 13.3836 10.7402 13.3836C10.7402 13.3836 10.7274 13.3878 10.702 13.3963C10.685 13.3963 10.6765 13.409 10.6765 13.4345C10.6765 13.4684 10.6171 13.5575 10.4983 13.7018C10.388 13.846 10.2565 13.9945 10.1038 14.1472C10.0189 14.2321 9.88317 14.3424 9.69649 14.4782C9.50982 14.6054 9.32315 14.72 9.13648 14.8218C8.95829 14.9151 8.82253 14.9618 8.7292 14.9618ZM8.70374 13.74C8.79708 13.74 8.88617 13.7272 8.97102 13.7018C9.05587 13.6678 9.12799 13.6212 9.18739 13.5618C9.34012 13.46 9.48437 13.3242 9.62013 13.1545C9.76438 12.9848 9.88317 12.7896 9.9765 12.569C10.0698 12.4417 10.142 12.3102 10.1929 12.1745C10.2523 12.0302 10.3414 11.7884 10.4602 11.449C10.528 11.3557 10.5747 11.2411 10.6002 11.1053C10.6256 10.9696 10.6383 10.855 10.6383 10.7617C10.6383 10.6684 10.6383 10.5411 10.6383 10.3799C10.6468 10.2187 10.668 10.0829 10.702 9.97259C10.702 9.75197 10.6977 9.6247 10.6892 9.59076C10.6808 9.54833 10.6468 9.49318 10.5874 9.4253C10.5535 9.39984 10.5068 9.37439 10.4474 9.34893C10.3965 9.32348 10.3414 9.31075 10.282 9.31075C10.2226 9.31075 10.142 9.32772 10.0401 9.36166C9.9468 9.38712 9.8662 9.42106 9.79832 9.46348C9.73892 9.49742 9.67104 9.50166 9.59467 9.47621C9.52679 9.45075 9.49285 9.41681 9.49285 9.37439C9.49285 9.2556 9.43346 9.26408 9.31467 9.39984C9.20436 9.52712 9.05587 9.70531 8.8692 9.9344C8.71647 10.0871 8.58495 10.2441 8.47464 10.4053C8.37282 10.5581 8.32191 10.6514 8.32191 10.6853C8.32191 10.7193 8.30918 10.7617 8.28373 10.8126C8.25827 10.8635 8.23282 10.9229 8.20736 10.9908C8.16494 11.0502 8.11403 11.1478 8.05463 11.2835C7.99524 11.4193 7.93584 11.5551 7.87644 11.6908C7.82553 11.8181 7.79159 11.9157 7.77462 11.9836C7.77462 12.0175 7.77462 12.1108 7.77462 12.2636C7.77462 12.4078 7.77462 12.5436 7.77462 12.6708C7.77462 12.8151 7.77887 12.9212 7.78735 12.989C7.79584 13.0569 7.80856 13.1121 7.82553 13.1545C7.85099 13.1969 7.88493 13.2606 7.92735 13.3454C7.96129 13.4048 8.01221 13.4769 8.08009 13.5618C8.15645 13.6381 8.20736 13.6933 8.23282 13.7272C8.32615 13.8121 8.38555 13.846 8.411 13.8291C8.44494 13.8036 8.54252 13.7739 8.70374 13.74ZM12.9063 14.7964C12.7536 14.6861 12.6772 14.5927 12.6772 14.5164C12.6433 14.4654 12.6051 14.44 12.5627 14.44C12.5372 14.4485 12.5118 14.406 12.4863 14.3127C12.4694 14.2194 12.4524 14.1176 12.4354 14.0072C12.4269 13.8969 12.4269 13.8248 12.4354 13.7909C12.4694 13.723 12.533 13.6721 12.6263 13.6381C12.7282 13.6042 12.8257 13.5915 12.9191 13.6C13.0209 13.6 13.076 13.6339 13.0845 13.7018C13.1015 13.7697 13.1651 13.8248 13.2754 13.8672C13.3942 13.9097 13.547 13.9266 13.7336 13.9182C13.9712 13.9097 14.1876 13.8715 14.3827 13.8036C14.5864 13.7357 14.7688 13.6381 14.93 13.5109C15.0997 13.3836 15.2525 13.2309 15.3882 13.0527C15.4476 12.9339 15.5028 12.7769 15.5537 12.5818C15.6046 12.3866 15.6385 12.2126 15.6555 12.0599C15.6725 11.9072 15.6598 11.8308 15.6173 11.8308C15.6173 11.8308 15.6088 11.8011 15.5919 11.7417C15.5834 11.6823 15.5664 11.6187 15.541 11.5508C15.4985 11.4235 15.401 11.2963 15.2482 11.169C15.0955 11.0332 14.947 10.9356 14.8028 10.8762C14.7434 10.8593 14.6203 10.8593 14.4337 10.8762C14.247 10.8932 14.09 10.9102 13.9627 10.9272C13.827 10.9356 13.7464 10.9356 13.7209 10.9272C13.7039 10.9102 13.6955 10.9017 13.6955 10.9017C13.653 10.8932 13.5809 10.8508 13.4791 10.7744C13.3858 10.6981 13.2967 10.6175 13.2118 10.5326C13.1354 10.4478 13.0973 10.3841 13.0973 10.3417C13.1142 10.2823 13.1609 10.1805 13.2373 10.0362C13.3136 9.89198 13.407 9.735 13.5173 9.5653C13.6361 9.3956 13.7549 9.23014 13.8736 9.06893C13.9924 8.90771 14.1027 8.77619 14.2046 8.67437C14.4591 8.39436 14.7646 8.18648 15.121 8.05072C15.4773 7.90647 15.8295 7.84283 16.1773 7.8598C16.4234 7.86829 16.6058 7.90223 16.7246 7.96162C16.8519 8.01253 16.9665 8.10587 17.0683 8.24163C17.1362 8.36042 17.1616 8.48345 17.1446 8.61073C17.1277 8.73801 17.0852 8.83559 17.0174 8.90347C16.9495 8.97135 16.8646 8.97983 16.7628 8.92892C16.644 8.85256 16.4828 8.82286 16.2792 8.83983C16.0755 8.8568 15.8592 8.89922 15.6301 8.9671C15.4519 9.03498 15.3076 9.09438 15.1973 9.14529C15.087 9.18772 15.0106 9.2556 14.9682 9.34893C14.9343 9.37439 14.9088 9.39984 14.8919 9.4253C14.8834 9.45075 14.8622 9.45924 14.8282 9.45075C14.8282 9.45075 14.8155 9.46772 14.79 9.50166C14.7646 9.52712 14.7518 9.55682 14.7518 9.59076C14.7094 9.64167 14.6797 9.67985 14.6628 9.70531C14.6543 9.72228 14.6331 9.71379 14.5991 9.67985C14.5991 9.67985 14.5991 9.69258 14.5991 9.71803C14.5991 9.74349 14.5949 9.77319 14.5864 9.80713C14.5779 9.86652 14.5949 9.90895 14.6373 9.9344C14.6882 9.95137 14.7943 9.96834 14.9555 9.98531C15.1676 10.0193 15.3246 10.0532 15.4264 10.0871C15.5367 10.1126 15.6979 10.189 15.9101 10.3162C16.1476 10.452 16.3216 10.6556 16.4319 10.9272C16.5507 11.1902 16.6186 11.4829 16.6355 11.8054C16.661 12.1193 16.6525 12.4205 16.6101 12.709C16.5846 12.8957 16.5592 13.0399 16.5337 13.1418C16.5083 13.2436 16.4361 13.3836 16.3173 13.5618C16.1222 13.8333 15.8719 14.0751 15.5664 14.2873C15.261 14.4909 14.9385 14.6521 14.5991 14.7709C14.2597 14.8897 13.9373 14.9576 13.6318 14.9745C13.3348 14.983 13.093 14.9236 12.9063 14.7964Z" fill="black"/>
</svg>
