<svg width="24" height="24" viewBox="0 0 24 24" fill="none" xmlns="http://www.w3.org/2000/svg">
<rect width="24" height="24" rx="12" fill="#FFC861"/>
<path d="M8.7292 14.9618C8.6698 14.9618 8.55949 14.9406 8.39828 14.8982C8.24555 14.8558 8.08433 14.8048 7.91463 14.7454C7.75341 14.6776 7.62613 14.6054 7.5328 14.5291C7.24431 14.283 7.03642 14.0115 6.90914 13.7145C6.78187 13.409 6.7055 13.0993 6.68005 12.7854C6.66308 12.4714 6.6758 12.1745 6.71823 11.8945C6.81157 11.3514 7.00672 10.8126 7.3037 10.278C7.60068 9.735 7.95705 9.28529 8.37282 8.92892C8.59343 8.73376 8.81405 8.56831 9.03466 8.43254C9.25527 8.29678 9.49285 8.1992 9.74741 8.13981C9.84074 8.11435 9.97226 8.10163 10.142 8.10163C10.3201 8.09314 10.4389 8.0889 10.4983 8.0889C10.668 8.0889 10.8547 8.12708 11.0584 8.20345C11.2705 8.27133 11.4529 8.35618 11.6056 8.458C11.7584 8.55134 11.8347 8.64043 11.8347 8.72528C11.8347 8.78467 11.8305 8.84407 11.822 8.90347C11.8135 8.96286 11.7753 8.97559 11.7075 8.94165H11.5802L11.7075 9.32348C11.7414 9.39136 11.7711 9.48469 11.7966 9.60349C11.822 9.71379 11.8347 9.81561 11.8347 9.90895C11.8347 9.9938 11.822 10.1211 11.7966 10.2908C11.7796 10.452 11.7499 10.6259 11.7075 10.8126C11.6735 10.9993 11.6353 11.1732 11.5929 11.3344C11.559 11.4957 11.525 11.6145 11.4911 11.6908C11.4656 11.7417 11.4487 11.7926 11.4402 11.8435C11.4402 11.886 11.4402 11.9242 11.4402 11.9581C11.4062 12.026 11.3511 12.1448 11.2747 12.3145C11.1984 12.4842 11.1432 12.603 11.1093 12.6708C11.0753 12.7048 11.0456 12.7345 11.0202 12.7599C11.0032 12.7854 11.0117 12.8151 11.0456 12.849C11.0456 12.8745 11.0244 12.9339 10.982 13.0272C10.9396 13.1121 10.8929 13.1927 10.842 13.269C10.7996 13.3454 10.7656 13.3836 10.7402 13.3836C10.7402 13.3836 10.7274 13.3878 10.702 13.3963C10.685 13.3963 10.6765 13.409 10.6765 13.4345C10.6765 13.4684 10.6171 13.5575 10.4983 13.7018C10.388 13.846 10.2565 13.9945 10.1038 14.1472C10.0189 14.2321 9.88317 14.3424 9.69649 14.4782C9.50982 14.6054 9.32315 14.72 9.13648 14.8218C8.95829 14.9151 8.82253 14.9618 8.7292 14.9618ZM8.70374 13.74C8.79708 13.74 8.88617 13.7272 8.97102 13.7018C9.05587 13.6678 9.12799 13.6212 9.18739 13.5618C9.34012 13.46 9.48437 13.3242 9.62013 13.1545C9.76438 12.9848 9.88317 12.7896 9.9765 12.569C10.0698 12.4417 10.142 12.3102 10.1929 12.1745C10.2523 12.0302 10.3414 11.7884 10.4602 11.449C10.528 11.3557 10.5747 11.2411 10.6002 11.1053C10.6256 10.9696 10.6383 10.855 10.6383 10.7617C10.6383 10.6684 10.6383 10.5411 10.6383 10.3799C10.6468 10.2187 10.668 10.0829 10.702 9.97259C10.702 9.75197 10.6977 9.6247 10.6892 9.59076C10.6808 9.54833 10.6468 9.49318 10.5874 9.4253C10.5535 9.39984 10.5068 9.37439 10.4474 9.34893C10.3965 9.32348 10.3414 9.31075 10.282 9.31075C10.2226 9.31075 10.142 9.32772 10.0401 9.36166C9.9468 9.38712 9.8662 9.42106 9.79832 9.46348C9.73892 9.49742 9.67104 9.50166 9.59467 9.47621C9.52679 9.45075 9.49285 9.41681 9.49285 9.37439C9.49285 9.2556 9.43346 9.26408 9.31467 9.39984C9.20436 9.52712 9.05587 9.70531 8.8692 9.9344C8.71647 10.0871 8.58495 10.2441 8.47464 10.4053C8.37282 10.5581 8.32191 10.6514 8.32191 10.6853C8.32191 10.7193 8.30918 10.7617 8.28373 10.8126C8.25827 10.8635 8.23282 10.9229 8.20736 10.9908C8.16494 11.0502 8.11403 11.1478 8.05463 11.2835C7.99524 11.4193 7.93584 11.5551 7.87644 11.6908C7.82553 11.8181 7.79159 11.9157 7.77462 11.9836C7.77462 12.0175 7.77462 12.1108 7.77462 12.2636C7.77462 12.4078 7.77462 12.5436 7.77462 12.6708C7.77462 12.8151 7.77887 12.9212 7.78735 12.989C7.79584 13.0569 7.80856 13.1121 7.82553 13.1545C7.85099 13.1969 7.88493 13.2606 7.92735 13.3454C7.96129 13.4048 8.01221 13.4769 8.08009 13.5618C8.15645 13.6381 8.20736 13.6933 8.23282 13.7272C8.32615 13.8121 8.38555 13.846 8.411 13.8291C8.44494 13.8036 8.54252 13.7739 8.70374 13.74ZM12.7918 14.8982C12.7579 14.8812 12.6985 14.8345 12.6136 14.7582C12.5372 14.6818 12.4609 14.597 12.3845 14.5036C12.3081 14.4018 12.2572 14.3254 12.2318 14.2745C12.2063 14.2321 12.2063 14.1557 12.2318 14.0454C12.2657 13.9351 12.2997 13.88 12.3336 13.88C12.3591 13.8969 12.393 13.8672 12.4354 13.7909C12.4778 13.7145 12.5203 13.6339 12.5627 13.5491C12.6051 13.4557 12.6263 13.4006 12.6263 13.3836C12.6348 13.3497 12.656 13.3242 12.69 13.3072C12.7324 13.2818 12.7706 13.2563 12.8045 13.2309C12.8469 13.163 12.9021 13.0951 12.97 13.0272C13.0463 12.9509 13.1057 12.8872 13.1482 12.8363C13.216 12.7515 13.3391 12.6242 13.5173 12.4545C13.6955 12.2848 13.8694 12.1108 14.0391 11.9326C14.2173 11.7375 14.3743 11.5678 14.51 11.4235C14.6458 11.2708 14.7179 11.1647 14.7264 11.1053C14.7264 11.1053 14.7391 11.0926 14.7646 11.0672C14.7985 11.0332 14.8367 11.0035 14.8791 10.9781C14.9216 10.9526 14.9767 10.9102 15.0446 10.8508C15.121 10.7914 15.1846 10.7362 15.2355 10.6853C15.2525 10.6175 15.2907 10.5411 15.35 10.4562C15.4179 10.3629 15.4943 10.2738 15.5791 10.189C15.647 10.0871 15.7107 9.97683 15.7701 9.85804C15.8295 9.73076 15.8676 9.63743 15.8846 9.57803C15.9101 9.48469 15.9016 9.42954 15.8592 9.41257C15.8167 9.38712 15.7022 9.34469 15.5155 9.28529C15.3119 9.21741 15.121 9.20469 14.9428 9.24711C14.7646 9.28954 14.527 9.41681 14.23 9.62894C14.1112 9.6544 14.0009 9.68834 13.8991 9.73076C13.8058 9.77319 13.7252 9.79016 13.6573 9.78167C13.6233 9.7647 13.5851 9.72652 13.5427 9.66712C13.5003 9.60773 13.4536 9.55258 13.4027 9.50166L13.2754 8.95438L13.67 8.73801C14.0179 8.51739 14.3488 8.35194 14.6628 8.24163C14.9852 8.12284 15.2652 8.10163 15.5028 8.17799C15.5961 8.17799 15.681 8.19072 15.7573 8.21617C15.8337 8.23314 15.8719 8.24163 15.8719 8.24163C15.9398 8.23314 16.0373 8.26708 16.1646 8.34345C16.3004 8.41982 16.4319 8.51739 16.5592 8.63619C16.6949 8.75498 16.7883 8.87377 16.8392 8.99256C16.9749 9.1962 17.0259 9.44227 16.9919 9.73076C16.958 10.0193 16.8349 10.3205 16.6228 10.6344C16.5804 10.6853 16.487 10.7914 16.3428 10.9526C16.1986 11.1138 16.0331 11.2963 15.8464 11.4999C15.6682 11.6951 15.5028 11.869 15.35 12.0217C15.2058 12.1745 15.1125 12.272 15.07 12.3145C15.0106 12.3399 14.9088 12.4205 14.7646 12.5563C14.6288 12.6921 14.4803 12.8448 14.3191 13.0145C14.1664 13.1757 14.0349 13.32 13.9246 13.4472C13.8227 13.566 13.7803 13.6254 13.7973 13.6254C13.7888 13.6594 13.8312 13.6594 13.9246 13.6254C14.0264 13.583 14.1155 13.5491 14.1918 13.5236C14.3191 13.4812 14.4676 13.443 14.6373 13.409C14.8155 13.3666 14.9937 13.3327 15.1719 13.3072C15.35 13.2818 15.5028 13.2648 15.6301 13.2563C15.7658 13.2478 15.8464 13.2563 15.8719 13.2818C15.8889 13.3242 15.9016 13.3412 15.9101 13.3327C15.927 13.3157 15.9355 13.3072 15.9355 13.3072C15.9525 13.2478 16.0586 13.2309 16.2537 13.2563C16.4574 13.2818 16.6398 13.32 16.801 13.3709C16.8943 13.3963 16.9665 13.4303 17.0174 13.4727C17.0768 13.5151 17.1065 13.5533 17.1065 13.5872C17.1065 13.5872 17.1149 13.6084 17.1319 13.6509C17.1574 13.6848 17.1956 13.7315 17.2465 13.7909C17.3822 13.9012 17.3822 14.02 17.2465 14.1472C17.1192 14.2745 16.8858 14.3085 16.5464 14.2491C16.3258 14.2491 16.1434 14.2618 15.9992 14.2873C15.9652 14.3042 15.8931 14.3127 15.7828 14.3127C15.6725 14.3127 15.5664 14.317 15.4646 14.3254C15.3119 14.3085 15.1591 14.317 15.0064 14.3509C14.8537 14.3763 14.6712 14.423 14.4591 14.4909C14.3827 14.5164 14.264 14.5545 14.1027 14.6054C13.9415 14.6564 13.7676 14.7073 13.5809 14.7582C13.3942 14.8091 13.2245 14.8473 13.0718 14.8727C12.9276 14.8982 12.8342 14.9067 12.7918 14.8982Z" fill="black"/>
</svg>
