<svg width="24" height="24" viewBox="0 0 24 24" fill="none" xmlns="http://www.w3.org/2000/svg">
<rect width="24" height="24" rx="12" fill="#FFC861"/>
<path d="M8.7292 14.9618C8.6698 14.9618 8.55949 14.9406 8.39828 14.8982C8.24555 14.8558 8.08433 14.8048 7.91463 14.7454C7.75341 14.6776 7.62613 14.6054 7.5328 14.5291C7.24431 14.283 7.03642 14.0115 6.90914 13.7145C6.78187 13.409 6.7055 13.0993 6.68005 12.7854C6.66308 12.4714 6.6758 12.1745 6.71823 11.8945C6.81157 11.3514 7.00672 10.8126 7.3037 10.278C7.60068 9.735 7.95705 9.28529 8.37282 8.92892C8.59343 8.73376 8.81405 8.56831 9.03466 8.43254C9.25527 8.29678 9.49285 8.1992 9.74741 8.13981C9.84074 8.11435 9.97226 8.10163 10.142 8.10163C10.3201 8.09314 10.4389 8.0889 10.4983 8.0889C10.668 8.0889 10.8547 8.12708 11.0584 8.20345C11.2705 8.27133 11.4529 8.35618 11.6056 8.458C11.7584 8.55134 11.8347 8.64043 11.8347 8.72528C11.8347 8.78467 11.8305 8.84407 11.822 8.90347C11.8135 8.96286 11.7753 8.97559 11.7075 8.94165H11.5802L11.7075 9.32348C11.7414 9.39136 11.7711 9.48469 11.7966 9.60349C11.822 9.71379 11.8347 9.81561 11.8347 9.90895C11.8347 9.9938 11.822 10.1211 11.7966 10.2908C11.7796 10.452 11.7499 10.6259 11.7075 10.8126C11.6735 10.9993 11.6353 11.1732 11.5929 11.3344C11.559 11.4957 11.525 11.6145 11.4911 11.6908C11.4656 11.7417 11.4487 11.7926 11.4402 11.8435C11.4402 11.886 11.4402 11.9242 11.4402 11.9581C11.4062 12.026 11.3511 12.1448 11.2747 12.3145C11.1984 12.4842 11.1432 12.603 11.1093 12.6708C11.0753 12.7048 11.0456 12.7345 11.0202 12.7599C11.0032 12.7854 11.0117 12.8151 11.0456 12.849C11.0456 12.8745 11.0244 12.9339 10.982 13.0272C10.9396 13.1121 10.8929 13.1927 10.842 13.269C10.7996 13.3454 10.7656 13.3836 10.7402 13.3836C10.7402 13.3836 10.7274 13.3878 10.702 13.3963C10.685 13.3963 10.6765 13.409 10.6765 13.4345C10.6765 13.4684 10.6171 13.5575 10.4983 13.7018C10.388 13.846 10.2565 13.9945 10.1038 14.1472C10.0189 14.2321 9.88317 14.3424 9.69649 14.4782C9.50982 14.6054 9.32315 14.72 9.13648 14.8218C8.95829 14.9151 8.82253 14.9618 8.7292 14.9618ZM8.70374 13.74C8.79708 13.74 8.88617 13.7272 8.97102 13.7018C9.05587 13.6678 9.12799 13.6212 9.18739 13.5618C9.34012 13.46 9.48437 13.3242 9.62013 13.1545C9.76438 12.9848 9.88317 12.7896 9.9765 12.569C10.0698 12.4417 10.142 12.3102 10.1929 12.1745C10.2523 12.0302 10.3414 11.7884 10.4602 11.449C10.528 11.3557 10.5747 11.2411 10.6002 11.1053C10.6256 10.9696 10.6383 10.855 10.6383 10.7617C10.6383 10.6684 10.6383 10.5411 10.6383 10.3799C10.6468 10.2187 10.668 10.0829 10.702 9.97259C10.702 9.75197 10.6977 9.6247 10.6892 9.59076C10.6808 9.54833 10.6468 9.49318 10.5874 9.4253C10.5535 9.39984 10.5068 9.37439 10.4474 9.34893C10.3965 9.32348 10.3414 9.31075 10.282 9.31075C10.2226 9.31075 10.142 9.32772 10.0401 9.36166C9.9468 9.38712 9.8662 9.42106 9.79832 9.46348C9.73892 9.49742 9.67104 9.50166 9.59467 9.47621C9.52679 9.45075 9.49285 9.41681 9.49285 9.37439C9.49285 9.2556 9.43346 9.26408 9.31467 9.39984C9.20436 9.52712 9.05587 9.70531 8.8692 9.9344C8.71647 10.0871 8.58495 10.2441 8.47464 10.4053C8.37282 10.5581 8.32191 10.6514 8.32191 10.6853C8.32191 10.7193 8.30918 10.7617 8.28373 10.8126C8.25827 10.8635 8.23282 10.9229 8.20736 10.9908C8.16494 11.0502 8.11403 11.1478 8.05463 11.2835C7.99524 11.4193 7.93584 11.5551 7.87644 11.6908C7.82553 11.8181 7.79159 11.9157 7.77462 11.9836C7.77462 12.0175 7.77462 12.1108 7.77462 12.2636C7.77462 12.4078 7.77462 12.5436 7.77462 12.6708C7.77462 12.8151 7.77887 12.9212 7.78735 12.989C7.79584 13.0569 7.80856 13.1121 7.82553 13.1545C7.85099 13.1969 7.88493 13.2606 7.92735 13.3454C7.96129 13.4048 8.01221 13.4769 8.08009 13.5618C8.15645 13.6381 8.20736 13.6933 8.23282 13.7272C8.32615 13.8121 8.38555 13.846 8.411 13.8291C8.44494 13.8036 8.54252 13.7739 8.70374 13.74ZM13.8355 14.9873C13.6233 14.9873 13.4154 14.9491 13.2118 14.8727C13.0166 14.7879 12.8597 14.6903 12.7409 14.58C12.6221 14.4697 12.5669 14.3636 12.5754 14.2618C12.5839 14.126 12.6306 14.02 12.7154 13.9436C12.8003 13.8672 12.936 13.8418 13.1227 13.8672C13.4112 13.9266 13.7039 13.9478 14.0009 13.9309C14.2979 13.9054 14.5737 13.846 14.8282 13.7527C15.0913 13.6594 15.3034 13.5321 15.4646 13.3709C15.6937 13.1503 15.8125 12.9636 15.821 12.8108C15.8295 12.6496 15.7107 12.4884 15.4646 12.3272C15.3543 12.2508 15.2185 12.1787 15.0573 12.1108C14.8961 12.0429 14.7349 11.992 14.5737 11.9581C14.4209 11.9157 14.2852 11.8987 14.1664 11.9072C14.09 11.9157 13.9967 11.9029 13.8864 11.869C13.7761 11.8266 13.6658 11.7757 13.5555 11.7163C13.5045 11.6569 13.4579 11.5593 13.4154 11.4235C13.373 11.2878 13.3433 11.2029 13.3264 11.169C13.3179 11.1266 13.3476 11.0756 13.4154 11.0163C13.4833 10.9569 13.6191 10.8678 13.8227 10.749C14.0264 10.6217 14.3234 10.452 14.7137 10.2399C15.07 10.0447 15.3416 9.89622 15.5282 9.7944C15.7234 9.68409 15.8719 9.59924 15.9737 9.53985C16.084 9.47197 16.1773 9.40409 16.2537 9.33621C16.3555 9.21741 16.4022 9.12832 16.3937 9.06893C16.3852 9.00953 16.2707 8.95862 16.0501 8.91619C15.8379 8.89922 15.6682 8.89922 15.541 8.91619C15.4137 8.92468 15.35 8.94589 15.35 8.97983C15.35 8.97983 15.3458 8.97983 15.3373 8.97983C15.3373 8.97983 15.3246 8.97983 15.2991 8.97983C15.2567 8.96286 15.1634 8.9671 15.0191 8.99256C14.8749 9.01801 14.7349 9.04771 14.5991 9.08165C14.4718 9.11559 14.404 9.14529 14.3955 9.17075C14.387 9.18772 14.3276 9.21741 14.2173 9.25984C14.1155 9.29378 14.0094 9.32348 13.8991 9.34893C13.7973 9.37439 13.7336 9.38712 13.7082 9.38712C13.6658 9.37015 13.6148 9.31075 13.5555 9.20893C13.5045 9.10711 13.4621 9.00104 13.4282 8.89074C13.3942 8.77195 13.3858 8.69134 13.4027 8.64891C13.4197 8.61497 13.4791 8.56406 13.5809 8.49618C13.6912 8.41982 13.8142 8.34345 13.95 8.26708C14.0858 8.18223 14.2003 8.1186 14.2937 8.07617C14.4124 8.04223 14.5864 8.01253 14.8155 7.98708C15.0531 7.95314 15.2864 7.92768 15.5155 7.91071C15.7531 7.88526 15.9228 7.87677 16.0246 7.88526C16.4149 7.92768 16.7289 8.0295 16.9665 8.19072C17.204 8.34345 17.3568 8.58952 17.4247 8.92892C17.4501 9.04771 17.4501 9.17075 17.4247 9.29802C17.3992 9.4253 17.344 9.55258 17.2592 9.67985C17.1743 9.80713 17.0471 9.94713 16.8774 10.0999C16.6652 10.2356 16.4998 10.3502 16.381 10.4435C16.2707 10.5284 16.1179 10.6175 15.9228 10.7108C15.8634 10.7532 15.7701 10.7999 15.6428 10.8508C15.5155 10.9017 15.3967 10.9484 15.2864 10.9908C15.1761 11.0332 15.121 11.0629 15.121 11.0799C15.121 11.0799 15.1591 11.0884 15.2355 11.1053C15.3203 11.1138 15.4094 11.1308 15.5028 11.1563C15.6046 11.1732 15.6767 11.2029 15.7191 11.2453C15.9652 11.3302 16.1901 11.4787 16.3937 11.6908C16.6058 11.8945 16.7543 12.0557 16.8392 12.1745C16.958 12.4375 16.9707 12.726 16.8774 13.0399C16.7925 13.3454 16.6355 13.6381 16.4064 13.9182C16.1858 14.1897 15.927 14.4145 15.6301 14.5927C15.3925 14.7285 15.0997 14.8261 14.7518 14.8855C14.4124 14.9364 14.107 14.9703 13.8355 14.9873Z" fill="black"/>
</svg>
